<?xml version="1.0" encoding="utf-8"?>
<!-- Generator: Adobe Illustrator 17.0.0, SVG Export Plug-In . SVG Version: 6.00 Build 0)  -->
<!DOCTYPE svg PUBLIC "-//W3C//DTD SVG 1.1//EN" "http://www.w3.org/Graphics/SVG/1.1/DTD/svg11.dtd">
<svg version="1.1" id="Calque_1" xmlns="http://www.w3.org/2000/svg" xmlns:xlink="http://www.w3.org/1999/xlink" x="0px" y="0px"
	 width="58.546px" height="431.15px" viewBox="0 0 58.546 431.15" enable-background="new 0 0 58.546 431.15" xml:space="preserve">
<g>
	<path fill="#0C0A05" d="M2.133,431.15v-8.059h47.406v-22.597h7.901v30.656H2.133z"/>
	<path fill="#0C0A05" d="M20.305,379.874v-21.965h7.111v14.38h7.111v-13.589h6.954v13.589h8.849v-14.696h7.111v22.281H20.305z
		 M5.53,365.178v-7.743l10.271,9.718v5.531L5.53,365.178z"/>
	<path fill="#0C0A05" d="M39.031,339.263c-10.904,0-19.595-8.928-19.595-19.673c0-10.825,8.691-19.753,19.595-19.753
		c10.745,0,19.515,8.928,19.515,19.753C58.546,330.335,49.776,339.263,39.031,339.263z M39.031,307.817
		c-6.716,0-12.247,5.057-12.247,11.772c0,6.637,5.531,11.693,12.247,11.693c6.637,0,12.167-5.057,12.167-11.693
		C51.198,312.874,45.668,307.817,39.031,307.817z"/>
	<path fill="#0C0A05" d="M45.272,205.818c-2.58-1.527-5.136-2.567-7.664-3.121c-2.528-0.553-5.056-0.829-7.584-0.829
		s-4.543,0.118-6.044,0.355s-2.647,0.646-3.437,1.225c-0.79,0.58-1.304,1.356-1.541,2.331c-0.237,0.975-0.355,2.2-0.355,3.674H17.54
		v-15.011h1.106c0,1.37,0.185,2.476,0.553,3.318c0.369,0.843,0.948,1.488,1.738,1.936c0.79,0.448,1.805,0.738,3.042,0.869
		c1.238,0.132,2.726,0.197,4.464,0.197c2.161,0,4.083,0.106,5.768,0.316c1.686,0.211,3.227,0.501,4.623,0.869
		c1.396,0.369,2.713,0.843,3.95,1.422c1.238,0.58,2.463,1.212,3.674,1.896c2.528-1.369,4.517-2.58,5.965-3.634
		c1.449-1.053,2.173-2.264,2.173-3.635c0-0.842-0.237-1.514-0.711-2.015c-0.474-0.5-1.079-0.881-1.817-1.146
		c-0.737-0.263-1.54-0.447-2.409-0.553s-1.725-0.158-2.568-0.158v-1.106c2.212,0,4.043,0.29,5.491,0.869
		c1.449,0.58,2.621,1.304,3.516,2.173c0.896,0.869,1.527,1.856,1.896,2.963c0.368,1.106,0.553,2.16,0.553,3.16
		c0,1.106-0.118,2.055-0.355,2.844c-0.236,0.79-0.605,1.489-1.105,2.094c-0.5,0.606-1.119,1.173-1.857,1.699
		c-0.736,0.527-1.605,1.106-2.606,1.738c0.632,0.632,1.291,1.422,1.975,2.37c0.686,0.948,1.317,2.015,1.896,3.2
		c0.58,1.185,1.066,2.489,1.462,3.911c0.395,1.422,0.592,2.951,0.592,4.583c0,3.319-0.646,6.111-1.936,8.375
		c-1.29,2.266-2.844,4.096-4.661,5.491c-1.817,1.396-3.739,2.384-5.768,2.963c-2.027,0.581-3.753,0.869-5.176,0.869
		c-2.737,0-5.135-0.486-7.19-1.461c-2.054-0.974-3.857-2.212-5.412-3.713c-1.553-1.501-2.91-3.147-4.069-4.938
		c-1.158-1.79-2.212-3.528-3.16-5.214c-1.158,0.58-2.515,1.159-4.069,1.738c-1.553,0.58-3.437,0.869-5.649,0.869
		c-1.79,0-3.384-0.316-4.78-0.948c-1.395-0.632-2.594-1.448-3.595-2.449c-1-1-1.764-2.146-2.292-3.437
		c-0.526-1.29-0.79-2.594-0.79-3.911c0-2.001,0.632-3.7,1.896-5.096c1.264-1.395,3.239-2.094,5.926-2.094
		c1.58,0,2.963,0.251,4.148,0.751c1.185,0.501,2.226,1.133,3.121,1.896c0.896,0.764,1.659,1.62,2.292,2.568
		c0.632,0.948,1.185,1.844,1.659,2.687L45.272,205.818z M22.044,226.519c1.422,2.739,3.069,4.926,4.938,6.558
		c1.87,1.633,4.333,2.449,7.387,2.449c2.371,0,4.859-0.421,7.467-1.264c2.607-0.842,4.991-1.948,7.15-3.318
		c2.16-1.369,3.938-2.91,5.333-4.622c1.396-1.711,2.094-3.437,2.094-5.175c0-1.896-0.461-3.674-1.383-5.333
		c-0.921-1.659-2.066-3.226-3.437-4.701L22.044,226.519z M7.506,223.674c1.371,0,3.002-0.381,4.899-1.146
		c1.896-0.763,3.792-1.62,5.688-2.568c-0.526-0.895-1.079-1.778-1.659-2.647c-0.579-0.869-1.264-1.632-2.054-2.292
		c-0.79-0.658-1.711-1.197-2.765-1.62c-1.053-0.421-2.292-0.632-3.714-0.632c-1.79,0-3.37,0.435-4.74,1.304
		c-1.369,0.869-2.054,2.358-2.054,4.464c0,1.37,0.606,2.568,1.817,3.595C4.136,223.161,5.663,223.674,7.506,223.674z"/>
	<path fill="#0C0A05" d="M57.44,133.287H5.373v-16.986H57.44V133.287z"/>
	<path fill="#0C0A05" d="M39.505,79.878c6.084,0,12.562-2.449,12.562-9.955c0-4.03-0.553-7.032-2.528-9.008l2.924-1.738
		c3.792,4.108,6.083,9.087,6.083,16.829c0,12.326-8.296,20.306-18.962,20.306c-13.195,0-20.938-8.217-20.938-20.306
		c0-14.301,10.587-19.041,20.859-19.041V79.878z M14.379,84.065l-3.16,1.738L0.948,73.32c0.474-1.738,1.975-3.872,4.029-4.979
		c1.66-0.869,2.924-0.632,2.924-0.632L14.379,84.065z M25.125,75.927c0,2.687,5.847,3.951,9.007,3.951v-7.585
		C31.051,72.293,25.125,73.557,25.125,75.927z"/>
	<path fill="#0C0A05" d="M58.546,4.425c0,4.583-1.659,7.111-4.266,9.64c2.212,2.291,4.266,4.661,4.266,10.192
		c0,7.031-3.555,13.432-11.298,13.432c-9.956,0-13.116-12.01-13.116-21.333c-7.427,0-9.481,3.16-9.481,7.269
		c0,4.188,1.501,6.479,2.923,8.06l-3.397,2.133c-3.397-3.871-5.531-7.979-5.531-17.619C18.646,5.452,25.125,0,34.132,0L57.44,0
		C57.44,0,58.546,0.712,58.546,4.425z M39.505,16.355c0,4.819,4.583,6.558,8.059,6.558c3.082,0,4.504-1.58,4.504-3.397
		c0-1.738-0.711-3.16-2.923-3.16H39.505z"/>
</g>
</svg>
