<?xml version="1.0" standalone="no"?>
<!DOCTYPE svg PUBLIC "-//W3C//DTD SVG 1.1//EN" "http://www.w3.org/Graphics/SVG/1.1/DTD/svg11.dtd" >
<svg>
<metadata>
Created by FontForge 20090622 at Mon Aug 27 03:17:09 2018
 By deploy user
Copyright 2017 The Archivo Project Authors (https://github.com/Omnibus-Type/Archivo)
</metadata>
<defs>
<font id="Archivo-Bold" horiz-adv-x="611" >
  <font-face 
    font-family="Archivo"
    font-weight="700"
    font-stretch="normal"
    units-per-em="1000"
    panose-1="2 11 8 3 2 2 2 2 11 4"
    ascent="800"
    descent="-200"
    x-height="526"
    cap-height="686"
    bbox="-328 -312 1308 1035"
    underline-thickness="50"
    underline-position="-50"
    unicode-range="U+000D-U+FB02"
  />
<missing-glyph horiz-adv-x="501" 
d="M0 700h500v-700h-500v700zM420 650h-340l170 -255zM220 350l-170 255v-510zM450 605l-170 -255l170 -255v510zM420 50l-170 255l-170 -255h340z" />
    <glyph glyph-name="f_f" unicode="ff" horiz-adv-x="666" 
d="M554 576v-50h93v-112h-93v-414h-137v414h-196v-414h-137v414h-75v112h75v60q0 62 33 103.5t109 41.5q21 0 46 -5t42 -11v-96h-50q-43 0 -43 -43v-50h196v60q0 62 33 103.5t109 41.5q21 0 46 -5t42 -11v-96h-50q-43 0 -43 -43z" />
    <glyph glyph-name="fi" unicode="fi" 
d="M9 0zM84 414h-75v112h75v60q0 62 33 103.5t109 41.5q21 0 46 -5t42 -11v-96h-50q-43 0 -43 -43v-50h93v-112h-93v-414h-137v414zM404 723h137v-124h-137v124zM404 526h137v-526h-137v526z" />
    <glyph glyph-name="fl" unicode="fl" 
d="M9 0zM84 414h-75v112h75v60q0 62 33 103.5t109 41.5q21 0 46 -5t42 -11v-96h-50q-43 0 -43 -43v-50h93v-112h-93v-414h-137v414zM404 723h137v-723h-137v723z" />
    <glyph glyph-name=".notdef" horiz-adv-x="501" 
d="M0 700h500v-700h-500v700zM420 650h-340l170 -255zM220 350l-170 255v-510zM450 605l-170 -255l170 -255v510zM420 50l-170 255l-170 -255h340z" />
    <glyph glyph-name="NULL" horiz-adv-x="0" 
 />
    <glyph glyph-name="NULL" horiz-adv-x="0" 
 />
    <glyph glyph-name="nonmarkingreturn" unicode="&#xd;" horiz-adv-x="278" 
 />
    <glyph glyph-name="space" unicode=" " horiz-adv-x="278" 
 />
    <glyph glyph-name="A" unicode="A" horiz-adv-x="722" 
d="M270 686h182l268 -686h-158l-49 131h-312l-49 -131h-150zM467 252l-65 174q-8 21 -23 70l-20 65h-5l-20 -65t-23 -70l-65 -174h221z" />
    <glyph glyph-name="Aacute" unicode="&#xc1;" horiz-adv-x="722" 
d="M2 0zM270 686h182l268 -686h-158l-49 131h-312l-49 -131h-150zM467 252l-65 174q-8 21 -23 70l-20 65h-5l-20 -65t-23 -70l-65 -174h221zM387 868h133l1 -3l-108 -129h-105z" />
    <glyph glyph-name="Abreve" unicode="&#x102;" horiz-adv-x="722" 
d="M2 0zM270 686h182l268 -686h-158l-49 131h-312l-49 -131h-150zM467 252l-65 174q-8 21 -23 70l-20 65h-5l-20 -65t-23 -70l-65 -174h221zM269 751q-36 20 -53 51.5t-17 65.5h90q3 -18 21 -33t50 -15t51 15t21 33h90q0 -34 -17 -65.5t-53.5 -51.5t-91.5 -20t-91 20z" />
    <glyph glyph-name="uni1EAE" unicode="&#x1eae;" horiz-adv-x="722" 
d="M2 0zM270 686h182l268 -686h-158l-49 131h-312l-49 -131h-150zM467 252l-65 174q-8 21 -23 70l-20 65h-5l-20 -65t-23 -70l-65 -174h221zM269 751q-36 20 -53 51.5t-17 65.5h90q3 -18 21 -33t50 -15t51 15t21 33h90q0 -34 -17 -65.5t-53.5 -51.5t-91.5 -20t-91 20z
M387 1000h133l1 -3l-108 -129h-105z" />
    <glyph glyph-name="uni1EB6" unicode="&#x1eb6;" horiz-adv-x="722" 
d="M2 0zM270 686h182l268 -686h-158l-49 131h-312l-49 -131h-150zM467 252l-65 174q-8 21 -23 70l-20 65h-5l-20 -65t-23 -70l-65 -174h221zM269 751q-36 20 -53 51.5t-17 65.5h90q3 -18 21 -33t50 -15t51 15t21 33h90q0 -34 -17 -65.5t-53.5 -51.5t-91.5 -20t-91 20z
M293 -43h135v-130h-135v130z" />
    <glyph glyph-name="uni1EB0" unicode="&#x1eb0;" horiz-adv-x="722" 
d="M2 0zM270 686h182l268 -686h-158l-49 131h-312l-49 -131h-150zM467 252l-65 174q-8 21 -23 70l-20 65h-5l-20 -65t-23 -70l-65 -174h221zM269 751q-36 20 -53 51.5t-17 65.5h90q3 -18 21 -33t50 -15t51 15t21 33h90q0 -34 -17 -65.5t-53.5 -51.5t-91.5 -20t-91 20z
M199 997l1 3h133l79 -132h-105z" />
    <glyph glyph-name="uni1EB2" unicode="&#x1eb2;" horiz-adv-x="722" 
d="M2 0zM270 686h182l268 -686h-158l-49 131h-312l-49 -131h-150zM467 252l-65 174q-8 21 -23 70l-20 65h-5l-20 -65t-23 -70l-65 -174h221zM269 751q-36 20 -53 51.5t-17 65.5h90q3 -18 21 -33t50 -15t51 15t21 33h90q0 -34 -17 -65.5t-53.5 -51.5t-91.5 -20t-91 20z
M327 922h14q18 0 25 4.5t7 14.5q0 11 -8.5 15t-26.5 4h-58v44q38 8 83 8q46 0 81.5 -13.5t35.5 -47.5q0 -27 -24 -41.5t-61 -16.5v-25h-68v54z" />
    <glyph glyph-name="uni1EB4" unicode="&#x1eb4;" horiz-adv-x="722" 
d="M2 0zM270 686h182l268 -686h-158l-49 131h-312l-49 -131h-150zM467 252l-65 174q-8 21 -23 70l-20 65h-5l-20 -65t-23 -70l-65 -174h221zM269 751q-36 20 -53 51.5t-17 65.5h90q3 -18 21 -33t50 -15t51 15t21 33h90q0 -34 -17 -65.5t-53.5 -51.5t-91.5 -20t-91 20z
M219.5 993.5q24.5 34.5 73.5 34.5q16 0 30 -4.5t39 -14.5q21 -9 35 -13.5t29 -4.5t23.5 8.5t11.5 28.5h70q0 -53 -24.5 -87.5t-74.5 -34.5q-16 0 -29.5 4.5t-38.5 14.5q-21 9 -35 13.5t-29 4.5q-30 0 -35 -37h-70q0 53 24.5 87.5z" />
    <glyph glyph-name="uni01CD" unicode="&#x1cd;" horiz-adv-x="722" 
d="M2 0zM270 686h182l268 -686h-158l-49 131h-312l-49 -131h-150zM467 252l-65 174q-8 21 -23 70l-20 65h-5l-20 -65t-23 -70l-65 -174h221zM194 868h111l56 -69l55 69h111l-105 -135h-122z" />
    <glyph glyph-name="Acircumflex" unicode="&#xc2;" horiz-adv-x="722" 
d="M2 0zM270 686h182l268 -686h-158l-49 131h-312l-49 -131h-150zM467 252l-65 174q-8 21 -23 70l-20 65h-5l-20 -65t-23 -70l-65 -174h221zM300 868h122l105 -135h-111l-55 69l-56 -69h-111z" />
    <glyph glyph-name="uni1EA4" unicode="&#x1ea4;" horiz-adv-x="722" 
d="M2 0zM270 686h182l268 -686h-158l-49 131h-312l-49 -131h-150zM467 252l-65 174q-8 21 -23 70l-20 65h-5l-20 -65t-23 -70l-65 -174h221zM300 868h122l105 -135h-111l-55 69l-56 -69h-111zM534 963h133l1 -3l-108 -129h-105z" />
    <glyph glyph-name="uni1EAC" unicode="&#x1eac;" horiz-adv-x="722" 
d="M2 0zM270 686h182l268 -686h-158l-49 131h-312l-49 -131h-150zM467 252l-65 174q-8 21 -23 70l-20 65h-5l-20 -65t-23 -70l-65 -174h221zM300 868h122l105 -135h-111l-55 69l-56 -69h-111zM293 -43h135v-130h-135v130z" />
    <glyph glyph-name="uni1EA6" unicode="&#x1ea6;" horiz-adv-x="722" 
d="M2 0zM270 686h182l268 -686h-158l-49 131h-312l-49 -131h-150zM467 252l-65 174q-8 21 -23 70l-20 65h-5l-20 -65t-23 -70l-65 -174h221zM300 868h122l105 -135h-111l-55 69l-56 -69h-111zM387 960l1 3h133l79 -132h-105z" />
    <glyph glyph-name="uni1EA8" unicode="&#x1ea8;" horiz-adv-x="722" 
d="M2 0zM270 686h182l268 -686h-158l-49 131h-312l-49 -131h-150zM467 252l-65 174q-8 21 -23 70l-20 65h-5l-20 -65t-23 -70l-65 -174h221zM300 868h122l105 -135h-111l-55 69l-56 -69h-111zM474 885h14q18 0 25 4.5t7 14.5q0 11 -8.5 15t-26.5 4h-58v44q38 8 83 8
q46 0 81.5 -13.5t35.5 -47.5q0 -27 -24 -41.5t-61 -16.5v-25h-68v54z" />
    <glyph glyph-name="uni1EAA" unicode="&#x1eaa;" horiz-adv-x="722" 
d="M2 0zM270 686h182l268 -686h-158l-49 131h-312l-49 -131h-150zM467 252l-65 174q-8 21 -23 70l-20 65h-5l-20 -65t-23 -70l-65 -174h221zM300 868h122l105 -135h-111l-55 69l-56 -69h-111zM219.5 993.5q24.5 34.5 73.5 34.5q16 0 30 -4.5t39 -14.5q21 -9 35 -13.5
t29 -4.5t23.5 8.5t11.5 28.5h70q0 -53 -24.5 -87.5t-74.5 -34.5q-16 0 -29.5 4.5t-38.5 14.5q-21 9 -35 13.5t-29 4.5q-30 0 -35 -37h-70q0 53 24.5 87.5z" />
    <glyph glyph-name="uni0200" unicode="&#x200;" horiz-adv-x="722" 
d="M2 0zM270 686h182l268 -686h-158l-49 131h-312l-49 -131h-150zM467 252l-65 174q-8 21 -23 70l-20 65h-5l-20 -65t-23 -70l-65 -174h221zM133 865l1 3h133l79 -132h-105zM308 865l1 3h133l79 -132h-105z" />
    <glyph glyph-name="Adieresis" unicode="&#xc4;" horiz-adv-x="722" 
d="M2 0zM270 686h182l268 -686h-158l-49 131h-312l-49 -131h-150zM467 252l-65 174q-8 21 -23 70l-20 65h-5l-20 -65t-23 -70l-65 -174h221zM197 868h118v-118h-118v118zM407 868h119v-118h-119v118z" />
    <glyph glyph-name="uni1EA0" unicode="&#x1ea0;" horiz-adv-x="722" 
d="M2 0zM270 686h182l268 -686h-158l-49 131h-312l-49 -131h-150zM467 252l-65 174q-8 21 -23 70l-20 65h-5l-20 -65t-23 -70l-65 -174h221zM293 -43h135v-130h-135v130z" />
    <glyph glyph-name="Agrave" unicode="&#xc0;" horiz-adv-x="722" 
d="M2 0zM270 686h182l268 -686h-158l-49 131h-312l-49 -131h-150zM467 252l-65 174q-8 21 -23 70l-20 65h-5l-20 -65t-23 -70l-65 -174h221zM200 865l1 3h133l79 -132h-105z" />
    <glyph glyph-name="uni1EA2" unicode="&#x1ea2;" horiz-adv-x="722" 
d="M2 0zM270 686h182l268 -686h-158l-49 131h-312l-49 -131h-150zM467 252l-65 174q-8 21 -23 70l-20 65h-5l-20 -65t-23 -70l-65 -174h221zM327 790h14q18 0 25 4.5t7 14.5q0 11 -8.5 15t-26.5 4h-58v44q38 8 83 8q46 0 81.5 -13.5t35.5 -47.5q0 -27 -24 -41.5t-61 -16.5
v-25h-68v54z" />
    <glyph glyph-name="uni0202" unicode="&#x202;" horiz-adv-x="722" 
d="M2 0zM270 686h182l268 -686h-158l-49 131h-312l-49 -131h-150zM467 252l-65 174q-8 21 -23 70l-20 65h-5l-20 -65t-23 -70l-65 -174h221zM216 796.5q17 31.5 53 51.5t91 20t91.5 -20t53.5 -51.5t17 -65.5h-90q-2 18 -21 33t-51 15t-50 -15t-21 -33h-90q0 34 17 65.5z" />
    <glyph glyph-name="Amacron" unicode="&#x100;" horiz-adv-x="722" 
d="M2 0zM270 686h182l268 -686h-158l-49 131h-312l-49 -131h-150zM467 252l-65 174q-8 21 -23 70l-20 65h-5l-20 -65t-23 -70l-65 -174h221zM208 844h305v-88h-305v88z" />
    <glyph glyph-name="Aogonek" unicode="&#x104;" horiz-adv-x="722" 
d="M554 -161.5q-32 20.5 -32 67.5q0 30 10.5 52t29.5 42l-49 131h-312l-49 -131h-150l268 686h182l268 -686h-68q-25 -31 -25 -62q0 -51 58 -51h36v-55q-45 -14 -83 -14q-52 0 -84 20.5zM467 252l-65 174q-8 21 -23 70l-20 65h-5l-20 -65t-23 -70l-65 -174h221z" />
    <glyph glyph-name="Aring" unicode="&#xc5;" horiz-adv-x="722" 
d="M2 0zM270 686h182l268 -686h-158l-49 131h-312l-49 -131h-150zM467 252l-65 174q-8 21 -23 70l-20 65h-5l-20 -65t-23 -70l-65 -174h221zM287.5 730q-27.5 29 -27.5 72t27.5 72t73.5 29t73.5 -29t27.5 -72t-27.5 -72t-73.5 -29t-73.5 29zM392.5 770.5
q12.5 12.5 12.5 31.5t-12.5 31.5t-31.5 12.5q-20 0 -32 -12.5t-12 -31.5t12 -31.5t32 -12.5q19 0 31.5 12.5z" />
    <glyph glyph-name="Aringacute" unicode="&#x1fa;" horiz-adv-x="722" 
d="M381 993h133l1 -3l-108 -129h-105zM270 686q-10 20 -10 47q0 43 27.5 72t73.5 29t73.5 -29t27.5 -72q0 -24 -10 -47l268 -686h-158l-49 131h-312l-49 -131h-150zM393 701q12 13 12 32t-12.5 31.5t-31.5 12.5q-20 0 -32 -12.5t-12 -31.5t12.5 -32t32.5 -13q19 0 31 13z
M467 252l-65 174q-8 21 -23 70l-20 65h-5l-20 -65t-23 -70l-65 -174h221z" />
    <glyph glyph-name="Atilde" unicode="&#xc3;" horiz-adv-x="722" 
d="M2 0zM270 686h182l268 -686h-158l-49 131h-312l-49 -131h-150zM467 252l-65 174q-8 21 -23 70l-20 65h-5l-20 -65t-23 -70l-65 -174h221zM217.5 833.5q24.5 34.5 73.5 34.5q16 0 30 -4.5t39 -14.5q21 -9 35 -13.5t29 -4.5t23.5 8.5t11.5 28.5h70q0 -53 -24.5 -87.5
t-74.5 -34.5q-16 0 -29.5 4.5t-38.5 14.5q-21 9 -35 13.5t-29 4.5q-30 0 -35 -37h-70q0 53 24.5 87.5z" />
    <glyph glyph-name="AE" unicode="&#xc6;" horiz-adv-x="1000" 
d="M327 686h612v-123h-387l40 -151h303v-123h-270l44 -166h276v-123h-390l-34 131h-316l-60 -131h-150zM490 252l-80 311h-5l-144 -311h229z" />
    <glyph glyph-name="AEacute" unicode="&#x1fc;" horiz-adv-x="1000" 
d="M0 0zM327 686h612v-123h-387l40 -151h303v-123h-270l44 -166h276v-123h-390l-34 131h-316l-60 -131h-150zM490 252l-80 311h-5l-144 -311h229zM526 868h133l1 -3l-108 -129h-105z" />
    <glyph glyph-name="B" unicode="B" horiz-adv-x="722" 
d="M67 686h393q54 0 98 -21.5t69 -60t25 -88.5q0 -57 -31.5 -98.5t-80.5 -57.5v-4q58 -11 94.5 -56.5t36.5 -107.5q0 -93 -59.5 -142.5t-151.5 -49.5h-393v686zM419 412q40 0 62 20.5t22 52.5q0 38 -20.5 58t-56.5 20h-213v-151h206zM436 123q38 0 62 22t24 63q0 37 -24 60
t-70 23h-215v-168h223z" />
    <glyph glyph-name="C" unicode="C" horiz-adv-x="722" 
d="M42 343q0 178 87 266.5t245 88.5q87 0 156.5 -29.5t110 -90t40.5 -147.5h-149q0 67 -43 105.5t-112 38.5q-94 0 -140 -56t-46 -161v-30q0 -217 186 -217q73 0 116.5 38t43.5 105h144q0 -88 -40 -147.5t-109 -89t-158 -29.5q-332 0 -332 355z" />
    <glyph glyph-name="Cacute" unicode="&#x106;" horiz-adv-x="722" 
d="M42 0zM42 343q0 178 87 266.5t245 88.5q87 0 156.5 -29.5t110 -90t40.5 -147.5h-149q0 67 -43 105.5t-112 38.5q-94 0 -140 -56t-46 -161v-30q0 -217 186 -217q73 0 116.5 38t43.5 105h144q0 -88 -40 -147.5t-109 -89t-158 -29.5q-332 0 -332 355zM387 868h133l1 -3
l-108 -129h-105z" />
    <glyph glyph-name="Ccaron" unicode="&#x10c;" horiz-adv-x="722" 
d="M42 0zM42 343q0 178 87 266.5t245 88.5q87 0 156.5 -29.5t110 -90t40.5 -147.5h-149q0 67 -43 105.5t-112 38.5q-94 0 -140 -56t-46 -161v-30q0 -217 186 -217q73 0 116.5 38t43.5 105h144q0 -88 -40 -147.5t-109 -89t-158 -29.5q-332 0 -332 355zM194 868h111l56 -69
l55 69h111l-105 -135h-122z" />
    <glyph glyph-name="Ccedilla" unicode="&#xc7;" horiz-adv-x="722" 
d="M493.5 149q43.5 38 43.5 105h144q0 -121 -74.5 -188.5t-196.5 -76.5l-3 -22q44 -2 71 -19t27 -49q0 -45 -41.5 -63t-94.5 -18q-56 0 -104 8v49h88q23 0 34 5t11 19q0 12 -9.5 18t-32.5 6h-41l10 67q-283 26 -283 353q0 178 87 266.5t245 88.5q87 0 156.5 -29.5t110 -90
t40.5 -147.5h-149q0 67 -43 105.5t-112 38.5q-94 0 -140 -56t-46 -161v-30q0 -217 186 -217q73 0 116.5 38z" />
    <glyph glyph-name="Ccircumflex" unicode="&#x108;" horiz-adv-x="722" 
d="M42 0zM42 343q0 178 87 266.5t245 88.5q87 0 156.5 -29.5t110 -90t40.5 -147.5h-149q0 67 -43 105.5t-112 38.5q-94 0 -140 -56t-46 -161v-30q0 -217 186 -217q73 0 116.5 38t43.5 105h144q0 -88 -40 -147.5t-109 -89t-158 -29.5q-332 0 -332 355zM300 868h122l105 -135
h-111l-55 69l-56 -69h-111z" />
    <glyph glyph-name="Cdotaccent" unicode="&#x10a;" horiz-adv-x="722" 
d="M42 0zM42 343q0 178 87 266.5t245 88.5q87 0 156.5 -29.5t110 -90t40.5 -147.5h-149q0 67 -43 105.5t-112 38.5q-94 0 -140 -56t-46 -161v-30q0 -217 186 -217q73 0 116.5 38t43.5 105h144q0 -88 -40 -147.5t-109 -89t-158 -29.5q-332 0 -332 355zM293 869h135v-130h-135
v130z" />
    <glyph glyph-name="D" unicode="D" horiz-adv-x="722" 
d="M67 686h284q157 0 242.5 -85.5t85.5 -257.5t-85.5 -257.5t-242.5 -85.5h-284v686zM351 123q88 0 133.5 53.5t45.5 151.5v30q0 98 -45.5 151.5t-133.5 53.5h-139v-440h139z" />
    <glyph glyph-name="uni01F1" unicode="&#x1f1;" horiz-adv-x="1333" 
d="M67 0zM67 686h284q157 0 242.5 -85.5t85.5 -257.5t-85.5 -257.5t-242.5 -85.5h-284v686zM351 123q88 0 133.5 53.5t45.5 151.5v30q0 98 -45.5 151.5t-133.5 53.5h-139v-440h139zM739 68l347 495h-321v123h534v-69l-346 -494h355v-123h-569v68z" />
    <glyph glyph-name="uni01C4" unicode="&#x1c4;" horiz-adv-x="1333" 
d="M67 0zM67 686h284q157 0 242.5 -85.5t85.5 -257.5t-85.5 -257.5t-242.5 -85.5h-284v686zM351 123q88 0 133.5 53.5t45.5 151.5v30q0 98 -45.5 151.5t-133.5 53.5h-139v-440h139zM739 68l347 495h-321v123h534v-69l-346 -494h355v-123h-569v68zM861 868h111l56 -69l55 69
h111l-105 -135h-122z" />
    <glyph glyph-name="Eth" unicode="&#xd0;" horiz-adv-x="722" 
d="M593.5 600.5q85.5 -85.5 85.5 -257.5t-85.5 -257.5t-242.5 -85.5h-284v312h-63v85h63v289h284q157 0 242.5 -85.5zM530 358q0 98 -45.5 151.5t-133.5 53.5h-139v-166h139v-85h-139v-189h139q88 0 133.5 53.5t45.5 151.5v30z" />
    <glyph glyph-name="Dcaron" unicode="&#x10e;" horiz-adv-x="722" 
d="M67 0zM67 686h284q157 0 242.5 -85.5t85.5 -257.5t-85.5 -257.5t-242.5 -85.5h-284v686zM351 123q88 0 133.5 53.5t45.5 151.5v30q0 98 -45.5 151.5t-133.5 53.5h-139v-440h139zM194 868h111l56 -69l55 69h111l-105 -135h-122z" />
    <glyph glyph-name="Dcroat" unicode="&#x110;" horiz-adv-x="722" 
d="M4 0zM593.5 600.5q85.5 -85.5 85.5 -257.5t-85.5 -257.5t-242.5 -85.5h-284v312h-63v85h63v289h284q157 0 242.5 -85.5zM530 358q0 98 -45.5 151.5t-133.5 53.5h-139v-166h139v-85h-139v-189h139q88 0 133.5 53.5t45.5 151.5v30z" />
    <glyph glyph-name="uni1E0C" unicode="&#x1e0c;" horiz-adv-x="722" 
d="M67 0zM67 686h284q157 0 242.5 -85.5t85.5 -257.5t-85.5 -257.5t-242.5 -85.5h-284v686zM351 123q88 0 133.5 53.5t45.5 151.5v30q0 98 -45.5 151.5t-133.5 53.5h-139v-440h139zM293 -43h135v-130h-135v130z" />
    <glyph glyph-name="uni01F2" unicode="&#x1f2;" horiz-adv-x="1222" 
d="M67 0zM67 686h284q157 0 242.5 -85.5t85.5 -257.5t-85.5 -257.5t-242.5 -85.5h-284v686zM351 123q88 0 133.5 53.5t45.5 151.5v30q0 98 -45.5 151.5t-133.5 53.5h-139v-440h139zM743 61l249 353h-234v112h433v-60l-250 -354h259v-112h-457v61z" />
    <glyph glyph-name="uni01C5" unicode="&#x1c5;" horiz-adv-x="1222" 
d="M67 0zM67 686h284q157 0 242.5 -85.5t85.5 -257.5t-85.5 -257.5t-242.5 -85.5h-284v686zM351 123q88 0 133.5 53.5t45.5 151.5v30q0 98 -45.5 151.5t-133.5 53.5h-139v-440h139zM743 61l249 353h-234v112h433v-60l-250 -354h259v-112h-457v61zM805 723h111l56 -69l55 69
h111l-105 -135h-122z" />
    <glyph glyph-name="E" unicode="E" horiz-adv-x="667" 
d="M67 686h539v-123h-394v-151h350v-123h-350v-166h400v-123h-545v686z" />
    <glyph glyph-name="Eacute" unicode="&#xc9;" horiz-adv-x="667" 
d="M67 0zM67 686h539v-123h-394v-151h350v-123h-350v-166h400v-123h-545v686zM360 868h133l1 -3l-108 -129h-105z" />
    <glyph glyph-name="Ebreve" unicode="&#x114;" horiz-adv-x="667" 
d="M67 0zM67 686h539v-123h-394v-151h350v-123h-350v-166h400v-123h-545v686zM242 751q-36 20 -53 51.5t-17 65.5h90q3 -18 21 -33t50 -15t51 15t21 33h90q0 -34 -17 -65.5t-53.5 -51.5t-91.5 -20t-91 20z" />
    <glyph glyph-name="Ecaron" unicode="&#x11a;" horiz-adv-x="667" 
d="M67 0zM67 686h539v-123h-394v-151h350v-123h-350v-166h400v-123h-545v686zM167 868h111l56 -69l55 69h111l-105 -135h-122z" />
    <glyph glyph-name="Ecircumflex" unicode="&#xca;" horiz-adv-x="667" 
d="M67 0zM67 686h539v-123h-394v-151h350v-123h-350v-166h400v-123h-545v686zM273 868h122l105 -135h-111l-55 69l-56 -69h-111z" />
    <glyph glyph-name="uni1EBE" unicode="&#x1ebe;" horiz-adv-x="667" 
d="M67 0zM67 686h539v-123h-394v-151h350v-123h-350v-166h400v-123h-545v686zM273 868h122l105 -135h-111l-55 69l-56 -69h-111zM507 963h133l1 -3l-108 -129h-105z" />
    <glyph glyph-name="uni1EC6" unicode="&#x1ec6;" horiz-adv-x="667" 
d="M67 0zM67 686h539v-123h-394v-151h350v-123h-350v-166h400v-123h-545v686zM273 868h122l105 -135h-111l-55 69l-56 -69h-111zM266 -43h135v-130h-135v130z" />
    <glyph glyph-name="uni1EC0" unicode="&#x1ec0;" horiz-adv-x="667" 
d="M67 0zM67 686h539v-123h-394v-151h350v-123h-350v-166h400v-123h-545v686zM273 868h122l105 -135h-111l-55 69l-56 -69h-111zM360 960l1 3h133l79 -132h-105z" />
    <glyph glyph-name="uni1EC2" unicode="&#x1ec2;" horiz-adv-x="667" 
d="M67 0zM67 686h539v-123h-394v-151h350v-123h-350v-166h400v-123h-545v686zM273 868h122l105 -135h-111l-55 69l-56 -69h-111zM447 885h14q18 0 25 4.5t7 14.5q0 11 -8.5 15t-26.5 4h-58v44q38 8 83 8q46 0 81.5 -13.5t35.5 -47.5q0 -27 -24 -41.5t-61 -16.5v-25h-68v54z
" />
    <glyph glyph-name="uni1EC4" unicode="&#x1ec4;" horiz-adv-x="667" 
d="M67 0zM67 686h539v-123h-394v-151h350v-123h-350v-166h400v-123h-545v686zM273 868h122l105 -135h-111l-55 69l-56 -69h-111zM192.5 993.5q24.5 34.5 73.5 34.5q16 0 30 -4.5t39 -14.5q21 -9 35 -13.5t29 -4.5t23.5 8.5t11.5 28.5h70q0 -53 -24.5 -87.5t-74.5 -34.5
q-16 0 -29.5 4.5t-38.5 14.5q-21 9 -35 13.5t-29 4.5q-30 0 -35 -37h-70q0 53 24.5 87.5z" />
    <glyph glyph-name="uni0204" unicode="&#x204;" horiz-adv-x="667" 
d="M67 0zM67 686h539v-123h-394v-151h350v-123h-350v-166h400v-123h-545v686zM106 865l1 3h133l79 -132h-105zM281 865l1 3h133l79 -132h-105z" />
    <glyph glyph-name="Edieresis" unicode="&#xcb;" horiz-adv-x="667" 
d="M67 0zM67 686h539v-123h-394v-151h350v-123h-350v-166h400v-123h-545v686zM170 868h118v-118h-118v118zM380 868h119v-118h-119v118z" />
    <glyph glyph-name="Edotaccent" unicode="&#x116;" horiz-adv-x="667" 
d="M67 0zM67 686h539v-123h-394v-151h350v-123h-350v-166h400v-123h-545v686zM266 869h135v-130h-135v130z" />
    <glyph glyph-name="uni1EB8" unicode="&#x1eb8;" horiz-adv-x="667" 
d="M67 0zM67 686h539v-123h-394v-151h350v-123h-350v-166h400v-123h-545v686zM266 -43h135v-130h-135v130z" />
    <glyph glyph-name="Egrave" unicode="&#xc8;" horiz-adv-x="667" 
d="M67 0zM67 686h539v-123h-394v-151h350v-123h-350v-166h400v-123h-545v686zM173 865l1 3h133l79 -132h-105z" />
    <glyph glyph-name="uni1EBA" unicode="&#x1eba;" horiz-adv-x="667" 
d="M67 0zM67 686h539v-123h-394v-151h350v-123h-350v-166h400v-123h-545v686zM300 790h14q18 0 25 4.5t7 14.5q0 11 -8.5 15t-26.5 4h-58v44q38 8 83 8q46 0 81.5 -13.5t35.5 -47.5q0 -27 -24 -41.5t-61 -16.5v-25h-68v54z" />
    <glyph glyph-name="uni0206" unicode="&#x206;" horiz-adv-x="667" 
d="M67 0zM67 686h539v-123h-394v-151h350v-123h-350v-166h400v-123h-545v686zM189 796.5q17 31.5 53 51.5t91 20t91.5 -20t53.5 -51.5t17 -65.5h-90q-2 18 -21 33t-51 15t-50 -15t-21 -33h-90q0 34 17 65.5z" />
    <glyph glyph-name="Emacron" unicode="&#x112;" horiz-adv-x="667" 
d="M67 0zM67 686h539v-123h-394v-151h350v-123h-350v-166h400v-123h-545v686zM181 844h305v-88h-305v88z" />
    <glyph glyph-name="Eogonek" unicode="&#x118;" horiz-adv-x="667" 
d="M466.5 -162.5q-31.5 19.5 -31.5 62.5q0 32 19.5 55.5t54.5 44.5h-442v686h539v-123h-394v-151h350v-123h-350v-166h400v-123q-28 -16 -50 -35.5t-22 -40.5q0 -15 12.5 -26t35.5 -11h24v-55q-39 -14 -71 -14q-43 0 -74.5 19.5z" />
    <glyph glyph-name="uni1EBC" unicode="&#x1ebc;" horiz-adv-x="667" 
d="M67 0zM67 686h539v-123h-394v-151h350v-123h-350v-166h400v-123h-545v686zM190.5 833.5q24.5 34.5 73.5 34.5q16 0 30 -4.5t39 -14.5q21 -9 35 -13.5t29 -4.5t23.5 8.5t11.5 28.5h70q0 -53 -24.5 -87.5t-74.5 -34.5q-16 0 -29.5 4.5t-38.5 14.5q-21 9 -35 13.5t-29 4.5
q-30 0 -35 -37h-70q0 53 24.5 87.5z" />
    <glyph glyph-name="F" unicode="F" 
d="M67 686h497v-123h-352v-169h315v-123h-315v-271h-145v686z" />
    <glyph glyph-name="G" unicode="G" horiz-adv-x="778" 
d="M364 373h353v-373h-100l-13 76q-48 -46 -101 -67t-129 -21q-159 0 -245.5 87t-86.5 268q0 177 92 266t260 89q89 0 162.5 -27.5t117 -83t43.5 -135.5h-150q0 56 -49.5 89.5t-118.5 33.5q-105 0 -156.5 -56t-51.5 -161v-30q0 -110 47.5 -163.5t145.5 -53.5q81 0 134 38.5
t54 104.5h-208v119z" />
    <glyph glyph-name="uni01F4" unicode="&#x1f4;" horiz-adv-x="778" 
d="M42 0zM364 373h353v-373h-100l-13 76q-48 -46 -101 -67t-129 -21q-159 0 -245.5 87t-86.5 268q0 177 92 266t260 89q89 0 162.5 -27.5t117 -83t43.5 -135.5h-150q0 56 -49.5 89.5t-118.5 33.5q-105 0 -156.5 -56t-51.5 -161v-30q0 -110 47.5 -163.5t145.5 -53.5
q81 0 134 38.5t54 104.5h-208v119zM415 868h133l1 -3l-108 -129h-105z" />
    <glyph glyph-name="Gbreve" unicode="&#x11e;" horiz-adv-x="778" 
d="M42 0zM364 373h353v-373h-100l-13 76q-48 -46 -101 -67t-129 -21q-159 0 -245.5 87t-86.5 268q0 177 92 266t260 89q89 0 162.5 -27.5t117 -83t43.5 -135.5h-150q0 56 -49.5 89.5t-118.5 33.5q-105 0 -156.5 -56t-51.5 -161v-30q0 -110 47.5 -163.5t145.5 -53.5
q81 0 134 38.5t54 104.5h-208v119zM297 751q-36 20 -53 51.5t-17 65.5h90q3 -18 21 -33t50 -15t51 15t21 33h90q0 -34 -17 -65.5t-53.5 -51.5t-91.5 -20t-91 20z" />
    <glyph glyph-name="Gcaron" unicode="&#x1e6;" horiz-adv-x="778" 
d="M42 0zM364 373h353v-373h-100l-13 76q-48 -46 -101 -67t-129 -21q-159 0 -245.5 87t-86.5 268q0 177 92 266t260 89q89 0 162.5 -27.5t117 -83t43.5 -135.5h-150q0 56 -49.5 89.5t-118.5 33.5q-105 0 -156.5 -56t-51.5 -161v-30q0 -110 47.5 -163.5t145.5 -53.5
q81 0 134 38.5t54 104.5h-208v119zM222 868h111l56 -69l55 69h111l-105 -135h-122z" />
    <glyph glyph-name="Gcircumflex" unicode="&#x11c;" horiz-adv-x="778" 
d="M42 0zM364 373h353v-373h-100l-13 76q-48 -46 -101 -67t-129 -21q-159 0 -245.5 87t-86.5 268q0 177 92 266t260 89q89 0 162.5 -27.5t117 -83t43.5 -135.5h-150q0 56 -49.5 89.5t-118.5 33.5q-105 0 -156.5 -56t-51.5 -161v-30q0 -110 47.5 -163.5t145.5 -53.5
q81 0 134 38.5t54 104.5h-208v119zM328 868h122l105 -135h-111l-55 69l-56 -69h-111z" />
    <glyph glyph-name="Gcommaaccent" unicode="&#x122;" horiz-adv-x="778" 
d="M42 0zM364 373h353v-373h-100l-13 76q-48 -46 -101 -67t-129 -21q-159 0 -245.5 87t-86.5 268q0 177 92 266t260 89q89 0 162.5 -27.5t117 -83t43.5 -135.5h-150q0 56 -49.5 89.5t-118.5 33.5q-105 0 -156.5 -56t-51.5 -161v-30q0 -110 47.5 -163.5t145.5 -53.5
q81 0 134 38.5t54 104.5h-208v119zM375 -138h-55v98h138v-86l-63 -104h-72z" />
    <glyph glyph-name="Gdotaccent" unicode="&#x120;" horiz-adv-x="778" 
d="M42 0zM364 373h353v-373h-100l-13 76q-48 -46 -101 -67t-129 -21q-159 0 -245.5 87t-86.5 268q0 177 92 266t260 89q89 0 162.5 -27.5t117 -83t43.5 -135.5h-150q0 56 -49.5 89.5t-118.5 33.5q-105 0 -156.5 -56t-51.5 -161v-30q0 -110 47.5 -163.5t145.5 -53.5
q81 0 134 38.5t54 104.5h-208v119zM321 869h135v-130h-135v130z" />
    <glyph glyph-name="H" unicode="H" horiz-adv-x="722" 
d="M67 686h145v-272h298v272h145v-686h-145v289h-298v-289h-145v686z" />
    <glyph glyph-name="Hbar" unicode="&#x126;" horiz-adv-x="722" 
d="M67 507h-60v91h60v88h145v-88h298v88h145v-88h60v-91h-60v-507h-145v289h-298v-289h-145v507zM510 414v93h-298v-93h298z" />
    <glyph glyph-name="Hcircumflex" unicode="&#x124;" horiz-adv-x="722" 
d="M67 0zM67 686h145v-272h298v272h145v-686h-145v289h-298v-289h-145v686zM300 868h122l105 -135h-111l-55 69l-56 -69h-111z" />
    <glyph glyph-name="uni1E24" unicode="&#x1e24;" horiz-adv-x="722" 
d="M67 0zM67 686h145v-272h298v272h145v-686h-145v289h-298v-289h-145v686zM293 -43h135v-130h-135v130z" />
    <glyph glyph-name="I" unicode="I" horiz-adv-x="278" 
d="M67 686h145v-686h-145v686z" />
    <glyph glyph-name="IJ" unicode="&#x132;" horiz-adv-x="834" 
d="M67 0zM67 686h145v-686h-145v686zM364 40q-61 52 -61 153v43h144v-41q0 -41 23.5 -63t68.5 -22q44 0 66 22t22 63v491h146v-493q0 -101 -60 -153t-174 -52t-175 52z" />
    <glyph glyph-name="Iacute" unicode="&#xcd;" horiz-adv-x="278" 
d="M67 0zM67 686h145v-686h-145v686zM165 868h133l1 -3l-108 -129h-105z" />
    <glyph glyph-name="Ibreve" unicode="&#x12c;" horiz-adv-x="278" 
d="M0 0zM67 686h145v-686h-145v686zM47 751q-36 20 -53 51.5t-17 65.5h90q3 -18 21 -33t50 -15t51 15t21 33h90q0 -34 -17 -65.5t-53.5 -51.5t-91.5 -20t-91 20z" />
    <glyph glyph-name="uni01CF" unicode="&#x1cf;" horiz-adv-x="278" 
d="M0 0zM67 686h145v-686h-145v686zM-28 868h111l56 -69l55 69h111l-105 -135h-122z" />
    <glyph glyph-name="Icircumflex" unicode="&#xce;" horiz-adv-x="278" 
d="M0 0zM67 686h145v-686h-145v686zM78 868h122l105 -135h-111l-55 69l-56 -69h-111z" />
    <glyph glyph-name="uni0208" unicode="&#x208;" horiz-adv-x="278" 
d="M0 0zM67 686h145v-686h-145v686zM-89 865l1 3h133l79 -132h-105zM86 865l1 3h133l79 -132h-105z" />
    <glyph glyph-name="Idieresis" unicode="&#xcf;" horiz-adv-x="278" 
d="M0 0zM67 686h145v-686h-145v686zM-25 868h118v-118h-118v118zM185 868h119v-118h-119v118z" />
    <glyph glyph-name="Idotaccent" unicode="&#x130;" horiz-adv-x="278" 
d="M67 0zM67 686h145v-686h-145v686zM71 869h135v-130h-135v130z" />
    <glyph glyph-name="uni1ECA" unicode="&#x1eca;" horiz-adv-x="278" 
d="M67 0zM67 686h145v-686h-145v686zM71 -43h135v-130h-135v130z" />
    <glyph glyph-name="Igrave" unicode="&#xcc;" horiz-adv-x="278" 
d="M0 0zM67 686h145v-686h-145v686zM-22 865l1 3h133l79 -132h-105z" />
    <glyph glyph-name="uni1EC8" unicode="&#x1ec8;" horiz-adv-x="278" 
d="M58 0zM67 686h145v-686h-145v686zM105 790h14q18 0 25 4.5t7 14.5q0 11 -8.5 15t-26.5 4h-58v44q38 8 83 8q46 0 81.5 -13.5t35.5 -47.5q0 -27 -24 -41.5t-61 -16.5v-25h-68v54z" />
    <glyph glyph-name="uni020A" unicode="&#x20a;" horiz-adv-x="278" 
d="M0 0zM67 686h145v-686h-145v686zM-6 796.5q17 31.5 53 51.5t91 20t91.5 -20t53.5 -51.5t17 -65.5h-90q-2 18 -21 33t-51 15t-50 -15t-21 -33h-90q0 34 17 65.5z" />
    <glyph glyph-name="Imacron" unicode="&#x12a;" horiz-adv-x="278" 
d="M0 0zM67 686h145v-686h-145v686zM-14 844h305v-88h-305v88z" />
    <glyph glyph-name="Iogonek" unicode="&#x12e;" horiz-adv-x="278" 
d="M172 0q-12 -13 -22 -32t-10 -38q0 -22 12 -36.5t36 -14.5h24v-55q-39 -14 -71 -14q-44 0 -75 21t-31 67q0 32 12.5 55.5t34.5 46.5h-15v686h145v-686h-40z" />
    <glyph glyph-name="Itilde" unicode="&#x128;" horiz-adv-x="278" 
d="M0 0zM67 686h145v-686h-145v686zM-4.5 833.5q24.5 34.5 73.5 34.5q16 0 30 -4.5t39 -14.5q21 -9 35 -13.5t29 -4.5t23.5 8.5t11.5 28.5h70q0 -53 -24.5 -87.5t-74.5 -34.5q-16 0 -29.5 4.5t-38.5 14.5q-21 9 -35 13.5t-29 4.5q-30 0 -35 -37h-70q0 53 24.5 87.5z" />
    <glyph glyph-name="J" unicode="J" horiz-adv-x="556" 
d="M86 40q-61 52 -61 153v43h144v-41q0 -41 23.5 -63t68.5 -22q44 0 66 22t22 63v491h146v-493q0 -101 -60 -153t-174 -52t-175 52z" />
    <glyph glyph-name="Jcircumflex" unicode="&#x134;" horiz-adv-x="556" 
d="M25 0zM86 40q-61 52 -61 153v43h144v-41q0 -41 23.5 -63t68.5 -22q44 0 66 22t22 63v491h146v-493q0 -101 -60 -153t-174 -52t-175 52zM361 868h122l105 -135h-111l-55 69l-56 -69h-111z" />
    <glyph glyph-name="K" unicode="K" horiz-adv-x="722" 
d="M67 686h145v-331l317 331h176l-268 -279l272 -407h-172l-197 305l-128 -106v-199h-145v686z" />
    <glyph glyph-name="Kcommaaccent" unicode="&#x136;" horiz-adv-x="722" 
d="M67 0zM67 686h145v-331l317 331h176l-268 -279l272 -407h-172l-197 305l-128 -106v-199h-145v686zM347 -138h-55v98h138v-86l-63 -104h-72z" />
    <glyph glyph-name="L" unicode="L" 
d="M67 686h145v-560h370v-126h-515v686z" />
    <glyph glyph-name="uni01C7" unicode="&#x1c7;" horiz-adv-x="1167" 
d="M67 0zM67 686h145v-560h370v-126h-515v686zM697 40q-61 52 -61 153v43h144v-41q0 -41 23.5 -63t68.5 -22q44 0 66 22t22 63v491h146v-493q0 -101 -60 -153t-174 -52t-175 52z" />
    <glyph glyph-name="Lacute" unicode="&#x139;" 
d="M67 0zM67 686h145v-560h370v-126h-515v686zM166 868h133l1 -3l-108 -129h-105z" />
    <glyph glyph-name="Lcaron" unicode="&#x13d;" 
d="M67 686h145v-560h370v-126h-515v686zM409 559h-55v127h138v-115l-66 -129h-72z" />
    <glyph glyph-name="Lcommaaccent" unicode="&#x13b;" 
d="M67 0zM67 686h145v-560h370v-126h-515v686zM311 -138h-55v98h138v-86l-63 -104h-72z" />
    <glyph glyph-name="Ldot" unicode="&#x13f;" 
d="M67 0zM67 686h145v-560h370v-126h-515v686zM343 526h138v-137h-138v137z" />
    <glyph glyph-name="uni01C8" unicode="&#x1c8;" horiz-adv-x="889" 
d="M67 0zM67 686h145v-560h370v-126h-515v686zM682 723h137v-124h-137v124zM631.5 -177q-27.5 5 -44.5 11v96h52q43 0 43 43v553h137v-567q0 -61 -32 -101t-106 -40q-22 0 -49.5 5z" />
    <glyph glyph-name="Lslash" unicode="&#x141;" 
d="M67 246l-67 -44v102l67 44v338h145v-242l141 93v-102l-141 -93v-216h370v-126h-515v246z" />
    <glyph glyph-name="M" unicode="M" horiz-adv-x="833" 
d="M67 686h226l96 -378q8 -28 18.5 -82.5t13.5 -72.5h5q3 19 12.5 74.5t15.5 80.5l96 378h216v-686h-145v437q0 19 2.5 58t3.5 52h-5l-21 -81l-118 -466h-138l-118 466l-21 81h-5q1 -13 3.5 -53t2.5 -57v-437h-140v686z" />
    <glyph glyph-name="N" unicode="N" horiz-adv-x="722" 
d="M67 686h141l264 -373q8 -11 22 -35t18 -32l5 3q0 8 -1.5 26t-1.5 32v379h141v-686h-141l-265 376q-12 17 -24 38.5t-15 27.5l-5 -3q0 -7 1.5 -25t1.5 -35v-379h-141v686z" />
    <glyph glyph-name="uni01CA" unicode="&#x1ca;" horiz-adv-x="1278" 
d="M67 0zM67 686h141l264 -373q8 -11 22 -35t18 -32l5 3q0 8 -1.5 26t-1.5 32v379h141v-686h-141l-265 376q-12 17 -24 38.5t-15 27.5l-5 -3q0 -7 1.5 -25t1.5 -35v-379h-141v686zM808 40q-61 52 -61 153v43h144v-41q0 -41 23.5 -63t68.5 -22q44 0 66 22t22 63v491h146v-493
q0 -101 -60 -153t-174 -52t-175 52z" />
    <glyph glyph-name="Nacute" unicode="&#x143;" horiz-adv-x="722" 
d="M67 0zM67 686h141l264 -373q8 -11 22 -35t18 -32l5 3q0 8 -1.5 26t-1.5 32v379h141v-686h-141l-265 376q-12 17 -24 38.5t-15 27.5l-5 -3q0 -7 1.5 -25t1.5 -35v-379h-141v686zM387 868h133l1 -3l-108 -129h-105z" />
    <glyph glyph-name="Ncaron" unicode="&#x147;" horiz-adv-x="722" 
d="M67 0zM67 686h141l264 -373q8 -11 22 -35t18 -32l5 3q0 8 -1.5 26t-1.5 32v379h141v-686h-141l-265 376q-12 17 -24 38.5t-15 27.5l-5 -3q0 -7 1.5 -25t1.5 -35v-379h-141v686zM194 868h111l56 -69l55 69h111l-105 -135h-122z" />
    <glyph glyph-name="Ncommaaccent" unicode="&#x145;" horiz-adv-x="722" 
d="M67 0zM67 686h141l264 -373q8 -11 22 -35t18 -32l5 3q0 8 -1.5 26t-1.5 32v379h141v-686h-141l-265 376q-12 17 -24 38.5t-15 27.5l-5 -3q0 -7 1.5 -25t1.5 -35v-379h-141v686zM347 -138h-55v98h138v-86l-63 -104h-72z" />
    <glyph glyph-name="uni1E44" unicode="&#x1e44;" horiz-adv-x="722" 
d="M67 0zM67 686h141l264 -373q8 -11 22 -35t18 -32l5 3q0 8 -1.5 26t-1.5 32v379h141v-686h-141l-265 376q-12 17 -24 38.5t-15 27.5l-5 -3q0 -7 1.5 -25t1.5 -35v-379h-141v686zM293 869h135v-130h-135v130z" />
    <glyph glyph-name="Eng" unicode="&#x14a;" horiz-adv-x="722" 
d="M465.5 -177q-28.5 5 -46.5 11v96h52q43 0 43 43v27l-265 373q-12 17 -24 38.5t-15 27.5l-5 -3q0 -7 1.5 -25t1.5 -35v-376h-141v686h141l264 -370q8 -11 22 -35t18 -32l5 3q0 8 -1.5 26t-1.5 32v376h141v-727q0 -61 -32 -101t-106 -40q-23 0 -51.5 5z" />
    <glyph glyph-name="uni019D" unicode="&#x19d;" horiz-adv-x="722" 
d="M18.5 -177q-28.5 5 -46.5 11v96h52q43 0 43 43v713h141l264 -373q8 -11 22 -35t18 -32l5 3q0 8 -1.5 26t-1.5 32v379h141v-686h-141l-265 376q-12 17 -24 38.5t-15 27.5l-5 -3q0 -7 1.5 -25t1.5 -35v-420q0 -61 -32 -101t-106 -40q-23 0 -51.5 5z" />
    <glyph glyph-name="uni01CB" unicode="&#x1cb;" horiz-adv-x="1000" 
d="M67 0zM67 686h141l264 -373q8 -11 22 -35t18 -32l5 3q0 8 -1.5 26t-1.5 32v379h141v-686h-141l-265 376q-12 17 -24 38.5t-15 27.5l-5 -3q0 -7 1.5 -25t1.5 -35v-379h-141v686zM793 723h137v-124h-137v124zM742.5 -177q-27.5 5 -44.5 11v96h52q43 0 43 43v553h137v-567
q0 -61 -32 -101t-106 -40q-22 0 -49.5 5z" />
    <glyph glyph-name="Ntilde" unicode="&#xd1;" horiz-adv-x="722" 
d="M67 0zM67 686h141l264 -373q8 -11 22 -35t18 -32l5 3q0 8 -1.5 26t-1.5 32v379h141v-686h-141l-265 376q-12 17 -24 38.5t-15 27.5l-5 -3q0 -7 1.5 -25t1.5 -35v-379h-141v686zM217.5 833.5q24.5 34.5 73.5 34.5q16 0 30 -4.5t39 -14.5q21 -9 35 -13.5t29 -4.5t23.5 8.5
t11.5 28.5h70q0 -53 -24.5 -87.5t-74.5 -34.5q-16 0 -29.5 4.5t-38.5 14.5q-21 9 -35 13.5t-29 4.5q-30 0 -35 -37h-70q0 53 24.5 87.5z" />
    <glyph glyph-name="O" unicode="O" horiz-adv-x="778" 
d="M133 76.5q-91 88.5 -91 266.5t91 266.5t256 88.5q166 0 257 -88.5t91 -266.5t-91 -266.5t-257 -88.5q-165 0 -256 88.5zM537.5 167.5q50.5 56.5 50.5 160.5v30q0 104 -50.5 160.5t-148.5 56.5t-148 -56.5t-50 -160.5v-30q0 -104 50 -160.5t148 -56.5t148.5 56.5z" />
    <glyph glyph-name="Oacute" unicode="&#xd3;" horiz-adv-x="778" 
d="M42 0zM133 76.5q-91 88.5 -91 266.5t91 266.5t256 88.5q166 0 257 -88.5t91 -266.5t-91 -266.5t-257 -88.5q-165 0 -256 88.5zM537.5 167.5q50.5 56.5 50.5 160.5v30q0 104 -50.5 160.5t-148.5 56.5t-148 -56.5t-50 -160.5v-30q0 -104 50 -160.5t148 -56.5t148.5 56.5z
M415 868h133l1 -3l-108 -129h-105z" />
    <glyph glyph-name="Obreve" unicode="&#x14e;" horiz-adv-x="778" 
d="M42 0zM133 76.5q-91 88.5 -91 266.5t91 266.5t256 88.5q166 0 257 -88.5t91 -266.5t-91 -266.5t-257 -88.5q-165 0 -256 88.5zM537.5 167.5q50.5 56.5 50.5 160.5v30q0 104 -50.5 160.5t-148.5 56.5t-148 -56.5t-50 -160.5v-30q0 -104 50 -160.5t148 -56.5t148.5 56.5z
M297 751q-36 20 -53 51.5t-17 65.5h90q3 -18 21 -33t50 -15t51 15t21 33h90q0 -34 -17 -65.5t-53.5 -51.5t-91.5 -20t-91 20z" />
    <glyph glyph-name="uni01D1" unicode="&#x1d1;" horiz-adv-x="778" 
d="M42 0zM133 76.5q-91 88.5 -91 266.5t91 266.5t256 88.5q166 0 257 -88.5t91 -266.5t-91 -266.5t-257 -88.5q-165 0 -256 88.5zM537.5 167.5q50.5 56.5 50.5 160.5v30q0 104 -50.5 160.5t-148.5 56.5t-148 -56.5t-50 -160.5v-30q0 -104 50 -160.5t148 -56.5t148.5 56.5z
M222 868h111l56 -69l55 69h111l-105 -135h-122z" />
    <glyph glyph-name="Ocircumflex" unicode="&#xd4;" horiz-adv-x="778" 
d="M42 0zM133 76.5q-91 88.5 -91 266.5t91 266.5t256 88.5q166 0 257 -88.5t91 -266.5t-91 -266.5t-257 -88.5q-165 0 -256 88.5zM537.5 167.5q50.5 56.5 50.5 160.5v30q0 104 -50.5 160.5t-148.5 56.5t-148 -56.5t-50 -160.5v-30q0 -104 50 -160.5t148 -56.5t148.5 56.5z
M328 868h122l105 -135h-111l-55 69l-56 -69h-111z" />
    <glyph glyph-name="uni1ED0" unicode="&#x1ed0;" horiz-adv-x="778" 
d="M42 0zM133 76.5q-91 88.5 -91 266.5t91 266.5t256 88.5q166 0 257 -88.5t91 -266.5t-91 -266.5t-257 -88.5q-165 0 -256 88.5zM537.5 167.5q50.5 56.5 50.5 160.5v30q0 104 -50.5 160.5t-148.5 56.5t-148 -56.5t-50 -160.5v-30q0 -104 50 -160.5t148 -56.5t148.5 56.5z
M328 868h122l105 -135h-111l-55 69l-56 -69h-111zM562 963h133l1 -3l-108 -129h-105z" />
    <glyph glyph-name="uni1ED8" unicode="&#x1ed8;" horiz-adv-x="778" 
d="M42 0zM133 76.5q-91 88.5 -91 266.5t91 266.5t256 88.5q166 0 257 -88.5t91 -266.5t-91 -266.5t-257 -88.5q-165 0 -256 88.5zM537.5 167.5q50.5 56.5 50.5 160.5v30q0 104 -50.5 160.5t-148.5 56.5t-148 -56.5t-50 -160.5v-30q0 -104 50 -160.5t148 -56.5t148.5 56.5z
M328 868h122l105 -135h-111l-55 69l-56 -69h-111zM321 -43h135v-130h-135v130z" />
    <glyph glyph-name="uni1ED2" unicode="&#x1ed2;" horiz-adv-x="778" 
d="M42 0zM133 76.5q-91 88.5 -91 266.5t91 266.5t256 88.5q166 0 257 -88.5t91 -266.5t-91 -266.5t-257 -88.5q-165 0 -256 88.5zM537.5 167.5q50.5 56.5 50.5 160.5v30q0 104 -50.5 160.5t-148.5 56.5t-148 -56.5t-50 -160.5v-30q0 -104 50 -160.5t148 -56.5t148.5 56.5z
M328 868h122l105 -135h-111l-55 69l-56 -69h-111zM415 960l1 3h133l79 -132h-105z" />
    <glyph glyph-name="uni1ED4" unicode="&#x1ed4;" horiz-adv-x="778" 
d="M42 0zM133 76.5q-91 88.5 -91 266.5t91 266.5t256 88.5q166 0 257 -88.5t91 -266.5t-91 -266.5t-257 -88.5q-165 0 -256 88.5zM537.5 167.5q50.5 56.5 50.5 160.5v30q0 104 -50.5 160.5t-148.5 56.5t-148 -56.5t-50 -160.5v-30q0 -104 50 -160.5t148 -56.5t148.5 56.5z
M328 868h122l105 -135h-111l-55 69l-56 -69h-111zM502 885h14q18 0 25 4.5t7 14.5q0 11 -8.5 15t-26.5 4h-58v44q38 8 83 8q46 0 81.5 -13.5t35.5 -47.5q0 -27 -24 -41.5t-61 -16.5v-25h-68v54z" />
    <glyph glyph-name="uni1ED6" unicode="&#x1ed6;" horiz-adv-x="778" 
d="M42 0zM133 76.5q-91 88.5 -91 266.5t91 266.5t256 88.5q166 0 257 -88.5t91 -266.5t-91 -266.5t-257 -88.5q-165 0 -256 88.5zM537.5 167.5q50.5 56.5 50.5 160.5v30q0 104 -50.5 160.5t-148.5 56.5t-148 -56.5t-50 -160.5v-30q0 -104 50 -160.5t148 -56.5t148.5 56.5z
M328 868h122l105 -135h-111l-55 69l-56 -69h-111zM247.5 993.5q24.5 34.5 73.5 34.5q16 0 30 -4.5t39 -14.5q21 -9 35 -13.5t29 -4.5t23.5 8.5t11.5 28.5h70q0 -53 -24.5 -87.5t-74.5 -34.5q-16 0 -29.5 4.5t-38.5 14.5q-21 9 -35 13.5t-29 4.5q-30 0 -35 -37h-70
q0 53 24.5 87.5z" />
    <glyph glyph-name="uni020C" unicode="&#x20c;" horiz-adv-x="778" 
d="M42 0zM133 76.5q-91 88.5 -91 266.5t91 266.5t256 88.5q166 0 257 -88.5t91 -266.5t-91 -266.5t-257 -88.5q-165 0 -256 88.5zM537.5 167.5q50.5 56.5 50.5 160.5v30q0 104 -50.5 160.5t-148.5 56.5t-148 -56.5t-50 -160.5v-30q0 -104 50 -160.5t148 -56.5t148.5 56.5z
M161 865l1 3h133l79 -132h-105zM336 865l1 3h133l79 -132h-105z" />
    <glyph glyph-name="Odieresis" unicode="&#xd6;" horiz-adv-x="778" 
d="M42 0zM133 76.5q-91 88.5 -91 266.5t91 266.5t256 88.5q166 0 257 -88.5t91 -266.5t-91 -266.5t-257 -88.5q-165 0 -256 88.5zM537.5 167.5q50.5 56.5 50.5 160.5v30q0 104 -50.5 160.5t-148.5 56.5t-148 -56.5t-50 -160.5v-30q0 -104 50 -160.5t148 -56.5t148.5 56.5z
M225 868h118v-118h-118v118zM435 868h119v-118h-119v118z" />
    <glyph glyph-name="uni1ECC" unicode="&#x1ecc;" horiz-adv-x="778" 
d="M42 0zM133 76.5q-91 88.5 -91 266.5t91 266.5t256 88.5q166 0 257 -88.5t91 -266.5t-91 -266.5t-257 -88.5q-165 0 -256 88.5zM537.5 167.5q50.5 56.5 50.5 160.5v30q0 104 -50.5 160.5t-148.5 56.5t-148 -56.5t-50 -160.5v-30q0 -104 50 -160.5t148 -56.5t148.5 56.5z
M321 -43h135v-130h-135v130z" />
    <glyph glyph-name="Ograve" unicode="&#xd2;" horiz-adv-x="778" 
d="M42 0zM133 76.5q-91 88.5 -91 266.5t91 266.5t256 88.5q166 0 257 -88.5t91 -266.5t-91 -266.5t-257 -88.5q-165 0 -256 88.5zM537.5 167.5q50.5 56.5 50.5 160.5v30q0 104 -50.5 160.5t-148.5 56.5t-148 -56.5t-50 -160.5v-30q0 -104 50 -160.5t148 -56.5t148.5 56.5z
M228 865l1 3h133l79 -132h-105z" />
    <glyph glyph-name="uni1ECE" unicode="&#x1ece;" horiz-adv-x="778" 
d="M42 0zM133 76.5q-91 88.5 -91 266.5t91 266.5t256 88.5q166 0 257 -88.5t91 -266.5t-91 -266.5t-257 -88.5q-165 0 -256 88.5zM537.5 167.5q50.5 56.5 50.5 160.5v30q0 104 -50.5 160.5t-148.5 56.5t-148 -56.5t-50 -160.5v-30q0 -104 50 -160.5t148 -56.5t148.5 56.5z
M355 790h14q18 0 25 4.5t7 14.5q0 11 -8.5 15t-26.5 4h-58v44q38 8 83 8q46 0 81.5 -13.5t35.5 -47.5q0 -27 -24 -41.5t-61 -16.5v-25h-68v54z" />
    <glyph glyph-name="Ohorn" unicode="&#x1a0;" horiz-adv-x="778" 
d="M797 828v-54q0 -81 -29 -129.5t-91 -72.5q60 -88 60 -229q0 -178 -91 -266.5t-257 -88.5q-165 0 -256 88.5t-91 266.5t91 266.5t256 88.5q150 0 239 -72q61 18 80 65h-69v137h158zM588 358q0 104 -50.5 160.5t-148.5 56.5t-148 -56.5t-50 -160.5v-30q0 -104 50 -160.5
t148 -56.5t148.5 56.5t50.5 160.5v30z" />
    <glyph glyph-name="uni1EDA" unicode="&#x1eda;" horiz-adv-x="778" 
d="M42 0zM797 828v-54q0 -81 -29 -129.5t-91 -72.5q60 -88 60 -229q0 -178 -91 -266.5t-257 -88.5q-165 0 -256 88.5t-91 266.5t91 266.5t256 88.5q150 0 239 -72q61 18 80 65h-69v137h158zM588 358q0 104 -50.5 160.5t-148.5 56.5t-148 -56.5t-50 -160.5v-30
q0 -104 50 -160.5t148 -56.5t148.5 56.5t50.5 160.5v30zM415 868h133l1 -3l-108 -129h-105z" />
    <glyph glyph-name="uni1EE2" unicode="&#x1ee2;" horiz-adv-x="778" 
d="M42 0zM797 828v-54q0 -81 -29 -129.5t-91 -72.5q60 -88 60 -229q0 -178 -91 -266.5t-257 -88.5q-165 0 -256 88.5t-91 266.5t91 266.5t256 88.5q150 0 239 -72q61 18 80 65h-69v137h158zM588 358q0 104 -50.5 160.5t-148.5 56.5t-148 -56.5t-50 -160.5v-30
q0 -104 50 -160.5t148 -56.5t148.5 56.5t50.5 160.5v30zM321 -43h135v-130h-135v130z" />
    <glyph glyph-name="uni1EDC" unicode="&#x1edc;" horiz-adv-x="778" 
d="M42 0zM797 828v-54q0 -81 -29 -129.5t-91 -72.5q60 -88 60 -229q0 -178 -91 -266.5t-257 -88.5q-165 0 -256 88.5t-91 266.5t91 266.5t256 88.5q150 0 239 -72q61 18 80 65h-69v137h158zM588 358q0 104 -50.5 160.5t-148.5 56.5t-148 -56.5t-50 -160.5v-30
q0 -104 50 -160.5t148 -56.5t148.5 56.5t50.5 160.5v30zM228 865l1 3h133l79 -132h-105z" />
    <glyph glyph-name="uni1EDE" unicode="&#x1ede;" horiz-adv-x="778" 
d="M42 0zM797 828v-54q0 -81 -29 -129.5t-91 -72.5q60 -88 60 -229q0 -178 -91 -266.5t-257 -88.5q-165 0 -256 88.5t-91 266.5t91 266.5t256 88.5q150 0 239 -72q61 18 80 65h-69v137h158zM588 358q0 104 -50.5 160.5t-148.5 56.5t-148 -56.5t-50 -160.5v-30
q0 -104 50 -160.5t148 -56.5t148.5 56.5t50.5 160.5v30zM355 790h14q18 0 25 4.5t7 14.5q0 11 -8.5 15t-26.5 4h-58v44q38 8 83 8q46 0 81.5 -13.5t35.5 -47.5q0 -27 -24 -41.5t-61 -16.5v-25h-68v54z" />
    <glyph glyph-name="uni1EE0" unicode="&#x1ee0;" horiz-adv-x="778" 
d="M42 0zM797 828v-54q0 -81 -29 -129.5t-91 -72.5q60 -88 60 -229q0 -178 -91 -266.5t-257 -88.5q-165 0 -256 88.5t-91 266.5t91 266.5t256 88.5q150 0 239 -72q61 18 80 65h-69v137h158zM588 358q0 104 -50.5 160.5t-148.5 56.5t-148 -56.5t-50 -160.5v-30
q0 -104 50 -160.5t148 -56.5t148.5 56.5t50.5 160.5v30zM245.5 833.5q24.5 34.5 73.5 34.5q16 0 30 -4.5t39 -14.5q21 -9 35 -13.5t29 -4.5t23.5 8.5t11.5 28.5h70q0 -53 -24.5 -87.5t-74.5 -34.5q-16 0 -29.5 4.5t-38.5 14.5q-21 9 -35 13.5t-29 4.5q-30 0 -35 -37h-70
q0 53 24.5 87.5z" />
    <glyph glyph-name="Ohungarumlaut" unicode="&#x150;" horiz-adv-x="778" 
d="M42 0zM133 76.5q-91 88.5 -91 266.5t91 266.5t256 88.5q166 0 257 -88.5t91 -266.5t-91 -266.5t-257 -88.5q-165 0 -256 88.5zM537.5 167.5q50.5 56.5 50.5 160.5v30q0 104 -50.5 160.5t-148.5 56.5t-148 -56.5t-50 -160.5v-30q0 -104 50 -160.5t148 -56.5t148.5 56.5z
M328 868h133l1 -3l-108 -129h-105zM503 868h133l1 -3l-108 -129h-105z" />
    <glyph glyph-name="uni020E" unicode="&#x20e;" horiz-adv-x="778" 
d="M42 0zM133 76.5q-91 88.5 -91 266.5t91 266.5t256 88.5q166 0 257 -88.5t91 -266.5t-91 -266.5t-257 -88.5q-165 0 -256 88.5zM537.5 167.5q50.5 56.5 50.5 160.5v30q0 104 -50.5 160.5t-148.5 56.5t-148 -56.5t-50 -160.5v-30q0 -104 50 -160.5t148 -56.5t148.5 56.5z
M244 796.5q17 31.5 53 51.5t91 20t91.5 -20t53.5 -51.5t17 -65.5h-90q-2 18 -21 33t-51 15t-50 -15t-21 -33h-90q0 34 17 65.5z" />
    <glyph glyph-name="Omacron" unicode="&#x14c;" horiz-adv-x="778" 
d="M42 0zM133 76.5q-91 88.5 -91 266.5t91 266.5t256 88.5q166 0 257 -88.5t91 -266.5t-91 -266.5t-257 -88.5q-165 0 -256 88.5zM537.5 167.5q50.5 56.5 50.5 160.5v30q0 104 -50.5 160.5t-148.5 56.5t-148 -56.5t-50 -160.5v-30q0 -104 50 -160.5t148 -56.5t148.5 56.5z
M236 844h305v-88h-305v88z" />
    <glyph glyph-name="uni01EA" unicode="&#x1ea;" horiz-adv-x="778" 
d="M683 123.5q-54 -84.5 -154 -116.5q-12 -13 -22 -31.5t-10 -37.5q0 -22 12 -36.5t36 -14.5h24v-55q-39 -14 -71 -14q-44 0 -75 21t-31 67t30 83q-11 -1 -33 -1q-165 0 -256 88.5t-91 266.5t91 266.5t256 88.5q166 0 257 -88.5t91 -266.5q0 -135 -54 -219.5zM241 167.5
q50 -56.5 148 -56.5t148.5 56.5t50.5 160.5v30q0 104 -50.5 160.5t-148.5 56.5t-148 -56.5t-50 -160.5v-30q0 -104 50 -160.5z" />
    <glyph glyph-name="Oslash" unicode="&#xd8;" horiz-adv-x="778" 
d="M138 72q-96 90 -96 271q0 178 91 266.5t256 88.5q113 0 191 -41l58 78h94l-91 -121q96 -90 96 -271q0 -178 -91 -266.5t-257 -88.5q-112 0 -189 40l-58 -77h-95zM498 549q-44 26 -109 26q-98 0 -148 -56.5t-50 -160.5v-30q0 -87 34 -140zM537.5 167.5
q50.5 56.5 50.5 160.5v30q0 85 -35 140l-272 -362q43 -25 108 -25q98 0 148.5 56.5z" />
    <glyph glyph-name="Oslashacute" unicode="&#x1fe;" horiz-adv-x="778" 
d="M42 0zM138 72q-96 90 -96 271q0 178 91 266.5t256 88.5q113 0 191 -41l58 78h94l-91 -121q96 -90 96 -271q0 -178 -91 -266.5t-257 -88.5q-112 0 -189 40l-58 -77h-95zM498 549q-44 26 -109 26q-98 0 -148 -56.5t-50 -160.5v-30q0 -87 34 -140zM537.5 167.5
q50.5 56.5 50.5 160.5v30q0 85 -35 140l-272 -362q43 -25 108 -25q98 0 148.5 56.5zM415 868h133l1 -3l-108 -129h-105z" />
    <glyph glyph-name="Otilde" unicode="&#xd5;" horiz-adv-x="778" 
d="M42 0zM133 76.5q-91 88.5 -91 266.5t91 266.5t256 88.5q166 0 257 -88.5t91 -266.5t-91 -266.5t-257 -88.5q-165 0 -256 88.5zM537.5 167.5q50.5 56.5 50.5 160.5v30q0 104 -50.5 160.5t-148.5 56.5t-148 -56.5t-50 -160.5v-30q0 -104 50 -160.5t148 -56.5t148.5 56.5z
M245.5 833.5q24.5 34.5 73.5 34.5q16 0 30 -4.5t39 -14.5q21 -9 35 -13.5t29 -4.5t23.5 8.5t11.5 28.5h70q0 -53 -24.5 -87.5t-74.5 -34.5q-16 0 -29.5 4.5t-38.5 14.5q-21 9 -35 13.5t-29 4.5q-30 0 -35 -37h-70q0 53 24.5 87.5z" />
    <glyph glyph-name="OE" unicode="&#x152;" horiz-adv-x="1000" 
d="M113.5 79.5q-71.5 91.5 -71.5 263.5t71.5 263.5t199.5 91.5q108 0 177 -66v54h449v-123h-304v-151h260v-123h-260v-166h310v-123h-455v53q-72 -65 -177 -65q-128 0 -199.5 91.5zM452.5 165.5q37.5 54.5 37.5 177.5t-37.5 177.5t-109.5 54.5q-80 0 -116 -56.5t-36 -175.5
t36 -175.5t116 -56.5q72 0 109.5 54.5z" />
    <glyph glyph-name="P" unicode="P" horiz-adv-x="667" 
d="M67 686h327q115 0 173 -58.5t58 -165.5t-60.5 -166.5t-180.5 -59.5h-172v-236h-145v686zM381 359q47 0 72 27t25 76q0 48 -25 74.5t-72 26.5h-169v-204h169z" />
    <glyph glyph-name="Thorn" unicode="&#xde;" horiz-adv-x="667" 
d="M67 686h145v-107h182q115 0 173 -58.5t58 -165.5t-60.5 -166.5t-180.5 -59.5h-172v-129h-145v686zM381 252q47 0 72 27t25 76q0 48 -25 74.5t-72 26.5h-169v-204h169z" />
    <glyph glyph-name="Q" unicode="Q" horiz-adv-x="778" 
d="M416 -11q-9 -1 -27 -1q-165 0 -256 88.5t-91 266.5t91 266.5t256 88.5q166 0 257 -88.5t91 -266.5q0 -124 -45 -205t-130 -118l156 -150h-191zM537.5 167.5q50.5 56.5 50.5 160.5v30q0 104 -50.5 160.5t-148.5 56.5t-148 -56.5t-50 -160.5v-30q0 -104 50 -160.5
t148 -56.5t148.5 56.5z" />
    <glyph glyph-name="R" unicode="R" horiz-adv-x="722" 
d="M67 686h364q115 0 173 -56.5t58 -158.5q0 -144 -120 -192l140 -279h-157l-121 256h-192v-256h-145v686zM418 377q47 0 72 25t25 69t-25 68t-72 24h-206v-186h206z" />
    <glyph glyph-name="Racute" unicode="&#x154;" horiz-adv-x="722" 
d="M67 0zM67 686h364q115 0 173 -56.5t58 -158.5q0 -144 -120 -192l140 -279h-157l-121 256h-192v-256h-145v686zM418 377q47 0 72 25t25 69t-25 68t-72 24h-206v-186h206zM387 868h133l1 -3l-108 -129h-105z" />
    <glyph glyph-name="Rcaron" unicode="&#x158;" horiz-adv-x="722" 
d="M67 0zM67 686h364q115 0 173 -56.5t58 -158.5q0 -144 -120 -192l140 -279h-157l-121 256h-192v-256h-145v686zM418 377q47 0 72 25t25 69t-25 68t-72 24h-206v-186h206zM194 868h111l56 -69l55 69h111l-105 -135h-122z" />
    <glyph glyph-name="Rcommaaccent" unicode="&#x156;" horiz-adv-x="722" 
d="M67 0zM67 686h364q115 0 173 -56.5t58 -158.5q0 -144 -120 -192l140 -279h-157l-121 256h-192v-256h-145v686zM418 377q47 0 72 25t25 69t-25 68t-72 24h-206v-186h206zM347 -138h-55v98h138v-86l-63 -104h-72z" />
    <glyph glyph-name="uni0210" unicode="&#x210;" horiz-adv-x="722" 
d="M67 0zM67 686h364q115 0 173 -56.5t58 -158.5q0 -144 -120 -192l140 -279h-157l-121 256h-192v-256h-145v686zM418 377q47 0 72 25t25 69t-25 68t-72 24h-206v-186h206zM133 865l1 3h133l79 -132h-105zM308 865l1 3h133l79 -132h-105z" />
    <glyph glyph-name="uni1E5A" unicode="&#x1e5a;" horiz-adv-x="722" 
d="M67 0zM67 686h364q115 0 173 -56.5t58 -158.5q0 -144 -120 -192l140 -279h-157l-121 256h-192v-256h-145v686zM418 377q47 0 72 25t25 69t-25 68t-72 24h-206v-186h206zM293 -43h135v-130h-135v130z" />
    <glyph glyph-name="uni0212" unicode="&#x212;" horiz-adv-x="722" 
d="M67 0zM67 686h364q115 0 173 -56.5t58 -158.5q0 -144 -120 -192l140 -279h-157l-121 256h-192v-256h-145v686zM418 377q47 0 72 25t25 69t-25 68t-72 24h-206v-186h206zM216 796.5q17 31.5 53 51.5t91 20t91.5 -20t53.5 -51.5t17 -65.5h-90q-2 18 -21 33t-51 15t-50 -15
t-21 -33h-90q0 34 17 65.5z" />
    <glyph glyph-name="S" unicode="S" horiz-adv-x="667" 
d="M185.5 12.5q-65.5 24.5 -104.5 72.5t-39 116l1 22h147l-1 -16q0 -44 39 -70t109 -26q74 0 107 19.5t33 52.5q0 29 -21.5 48.5t-54 31t-89.5 27.5q-81 23 -131 44t-86 62.5t-36 109.5q0 94 76 143t202 49q119 0 194.5 -50.5t75.5 -151.5v-12h-144v9q0 38 -34.5 60
t-93.5 22q-63 0 -96.5 -17t-33.5 -47q0 -23 20 -39.5t50 -27t85 -25.5q82 -22 134.5 -43.5t90.5 -63.5t38 -110q0 -110 -78.5 -162t-214.5 -52q-79 0 -144.5 24.5z" />
    <glyph glyph-name="Sacute" unicode="&#x15a;" horiz-adv-x="667" 
d="M42 0zM185.5 12.5q-65.5 24.5 -104.5 72.5t-39 116l1 22h147l-1 -16q0 -44 39 -70t109 -26q74 0 107 19.5t33 52.5q0 29 -21.5 48.5t-54 31t-89.5 27.5q-81 23 -131 44t-86 62.5t-36 109.5q0 94 76 143t202 49q119 0 194.5 -50.5t75.5 -151.5v-12h-144v9q0 38 -34.5 60
t-93.5 22q-63 0 -96.5 -17t-33.5 -47q0 -23 20 -39.5t50 -27t85 -25.5q82 -22 134.5 -43.5t90.5 -63.5t38 -110q0 -110 -78.5 -162t-214.5 -52q-79 0 -144.5 24.5zM360 868h133l1 -3l-108 -129h-105z" />
    <glyph glyph-name="uniA78B" unicode="&#xa78b;" horiz-adv-x="223" 
d="M49 686h134v-120l-43 -359h-91v479z" />
    <glyph glyph-name="Scaron" unicode="&#x160;" horiz-adv-x="667" 
d="M42 0zM185.5 12.5q-65.5 24.5 -104.5 72.5t-39 116l1 22h147l-1 -16q0 -44 39 -70t109 -26q74 0 107 19.5t33 52.5q0 29 -21.5 48.5t-54 31t-89.5 27.5q-81 23 -131 44t-86 62.5t-36 109.5q0 94 76 143t202 49q119 0 194.5 -50.5t75.5 -151.5v-12h-144v9q0 38 -34.5 60
t-93.5 22q-63 0 -96.5 -17t-33.5 -47q0 -23 20 -39.5t50 -27t85 -25.5q82 -22 134.5 -43.5t90.5 -63.5t38 -110q0 -110 -78.5 -162t-214.5 -52q-79 0 -144.5 24.5zM167 868h111l56 -69l55 69h111l-105 -135h-122z" />
    <glyph glyph-name="Scedilla" unicode="&#x15e;" horiz-adv-x="667" 
d="M232 -174v49h88q23 0 34 5t11 19q0 12 -9.5 18t-32.5 6h-41l10 67q-108 8 -179 63t-71 148l1 22h147l-1 -16q0 -44 39 -70t109 -26q74 0 107 19.5t33 52.5q0 29 -21.5 48.5t-54 31t-89.5 27.5q-81 23 -131 44t-86 62.5t-36 109.5q0 94 76 143t202 49q119 0 194.5 -50.5
t75.5 -151.5v-12h-144v9q0 38 -34.5 60t-93.5 22q-63 0 -96.5 -17t-33.5 -47q0 -23 20 -39.5t50 -27t85 -25.5q82 -22 134.5 -43.5t90.5 -63.5t38 -110q0 -101 -65.5 -152.5t-180.5 -59.5l-3 -23q44 -2 71 -19t27 -49q0 -45 -41.5 -63t-94.5 -18q-56 0 -104 8z" />
    <glyph glyph-name="Scircumflex" unicode="&#x15c;" horiz-adv-x="667" 
d="M42 0zM185.5 12.5q-65.5 24.5 -104.5 72.5t-39 116l1 22h147l-1 -16q0 -44 39 -70t109 -26q74 0 107 19.5t33 52.5q0 29 -21.5 48.5t-54 31t-89.5 27.5q-81 23 -131 44t-86 62.5t-36 109.5q0 94 76 143t202 49q119 0 194.5 -50.5t75.5 -151.5v-12h-144v9q0 38 -34.5 60
t-93.5 22q-63 0 -96.5 -17t-33.5 -47q0 -23 20 -39.5t50 -27t85 -25.5q82 -22 134.5 -43.5t90.5 -63.5t38 -110q0 -110 -78.5 -162t-214.5 -52q-79 0 -144.5 24.5zM273 868h122l105 -135h-111l-55 69l-56 -69h-111z" />
    <glyph glyph-name="Scommaaccent" unicode="&#x218;" horiz-adv-x="667" 
d="M42 0zM185.5 12.5q-65.5 24.5 -104.5 72.5t-39 116l1 22h147l-1 -16q0 -44 39 -70t109 -26q74 0 107 19.5t33 52.5q0 29 -21.5 48.5t-54 31t-89.5 27.5q-81 23 -131 44t-86 62.5t-36 109.5q0 94 76 143t202 49q119 0 194.5 -50.5t75.5 -151.5v-12h-144v9q0 38 -34.5 60
t-93.5 22q-63 0 -96.5 -17t-33.5 -47q0 -23 20 -39.5t50 -27t85 -25.5q82 -22 134.5 -43.5t90.5 -63.5t38 -110q0 -110 -78.5 -162t-214.5 -52q-79 0 -144.5 24.5zM320 -138h-55v98h138v-86l-63 -104h-72z" />
    <glyph glyph-name="uni1E62" unicode="&#x1e62;" horiz-adv-x="667" 
d="M42 0zM185.5 12.5q-65.5 24.5 -104.5 72.5t-39 116l1 22h147l-1 -16q0 -44 39 -70t109 -26q74 0 107 19.5t33 52.5q0 29 -21.5 48.5t-54 31t-89.5 27.5q-81 23 -131 44t-86 62.5t-36 109.5q0 94 76 143t202 49q119 0 194.5 -50.5t75.5 -151.5v-12h-144v9q0 38 -34.5 60
t-93.5 22q-63 0 -96.5 -17t-33.5 -47q0 -23 20 -39.5t50 -27t85 -25.5q82 -22 134.5 -43.5t90.5 -63.5t38 -110q0 -110 -78.5 -162t-214.5 -52q-79 0 -144.5 24.5zM266 -43h135v-130h-135v130z" />
    <glyph glyph-name="uni1E9E" unicode="&#x1e9e;" horiz-adv-x="798" 
d="M67 391q0 151 90.5 229t255.5 78q88 0 156 -24.5t106 -69.5t38 -105q0 -50 -26 -91.5t-65 -56.5v-4q58 -15 91.5 -56.5t33.5 -101.5q0 -54 -27 -97t-77.5 -67.5t-118.5 -24.5h-227v125h214q41 0 64 23t23 54q0 34 -28.5 54.5t-78.5 20.5h-194v125h191q35 0 55.5 26
t20.5 58q0 41 -36 65t-104 24q-106 0 -159 -47t-53 -144v-384h-145v391z" />
    <glyph glyph-name="uni018F" unicode="&#x18f;" horiz-adv-x="758" 
d="M126 71.5q-84 83.5 -84 259.5v48h518q-5 103 -52 153t-144 50q-81 0 -130 -34t-49 -102h-143q0 125 88.5 188.5t237.5 63.5q172 0 257 -87.5t85 -271.5q0 -179 -82.5 -265t-251.5 -86q-166 0 -250 83.5zM506 145q42 40 52 128h-364q0 -87 49 -127.5t135 -40.5t128 40z
" />
    <glyph glyph-name="T" unicode="T" 
d="M233 561h-212v125h569v-125h-212v-561h-145v561z" />
    <glyph glyph-name="Tbar" unicode="&#x166;" 
d="M233 352h-89v91h89v118h-212v125h569v-125h-212v-118h89v-91h-89v-352h-145v352z" />
    <glyph glyph-name="Tcaron" unicode="&#x164;" 
d="M21 0zM233 561h-212v125h569v-125h-212v-561h-145v561zM139 868h111l56 -69l55 69h111l-105 -135h-122z" />
    <glyph glyph-name="uni0162" unicode="&#x162;" 
d="M347 0l-5 -33q44 -2 71 -19t27 -49q0 -45 -41.5 -63t-94.5 -18q-56 0 -104 8v49h88q23 0 34 5t11 19q0 12 -9.5 18t-32.5 6h-41l11 77h-28v561h-212v125h569v-125h-212v-561h-31z" />
    <glyph glyph-name="uni021A" unicode="&#x21a;" 
d="M21 0zM233 561h-212v125h569v-125h-212v-561h-145v561zM292 -138h-55v98h138v-86l-63 -104h-72z" />
    <glyph glyph-name="uni1E6C" unicode="&#x1e6c;" 
d="M21 0zM233 561h-212v125h569v-125h-212v-561h-145v561zM238 -43h135v-130h-135v130z" />
    <glyph glyph-name="U" unicode="U" horiz-adv-x="722" 
d="M144 56q-77 68 -77 199v431h145v-424q0 -74 38.5 -112.5t109.5 -38.5t110.5 38.5t39.5 112.5v424h145v-431q0 -131 -77.5 -199t-217.5 -68q-139 0 -216 68z" />
    <glyph glyph-name="Uacute" unicode="&#xda;" horiz-adv-x="722" 
d="M67 0zM144 56q-77 68 -77 199v431h145v-424q0 -74 38.5 -112.5t109.5 -38.5t110.5 38.5t39.5 112.5v424h145v-431q0 -131 -77.5 -199t-217.5 -68q-139 0 -216 68zM387 868h133l1 -3l-108 -129h-105z" />
    <glyph glyph-name="Ubreve" unicode="&#x16c;" horiz-adv-x="722" 
d="M67 0zM144 56q-77 68 -77 199v431h145v-424q0 -74 38.5 -112.5t109.5 -38.5t110.5 38.5t39.5 112.5v424h145v-431q0 -131 -77.5 -199t-217.5 -68q-139 0 -216 68zM269 751q-36 20 -53 51.5t-17 65.5h90q3 -18 21 -33t50 -15t51 15t21 33h90q0 -34 -17 -65.5t-53.5 -51.5
t-91.5 -20t-91 20z" />
    <glyph glyph-name="uni01D3" unicode="&#x1d3;" horiz-adv-x="722" 
d="M67 0zM144 56q-77 68 -77 199v431h145v-424q0 -74 38.5 -112.5t109.5 -38.5t110.5 38.5t39.5 112.5v424h145v-431q0 -131 -77.5 -199t-217.5 -68q-139 0 -216 68zM194 868h111l56 -69l55 69h111l-105 -135h-122z" />
    <glyph glyph-name="Ucircumflex" unicode="&#xdb;" horiz-adv-x="722" 
d="M67 0zM144 56q-77 68 -77 199v431h145v-424q0 -74 38.5 -112.5t109.5 -38.5t110.5 38.5t39.5 112.5v424h145v-431q0 -131 -77.5 -199t-217.5 -68q-139 0 -216 68zM300 868h122l105 -135h-111l-55 69l-56 -69h-111z" />
    <glyph glyph-name="uni0214" unicode="&#x214;" horiz-adv-x="722" 
d="M67 0zM144 56q-77 68 -77 199v431h145v-424q0 -74 38.5 -112.5t109.5 -38.5t110.5 38.5t39.5 112.5v424h145v-431q0 -131 -77.5 -199t-217.5 -68q-139 0 -216 68zM133 865l1 3h133l79 -132h-105zM308 865l1 3h133l79 -132h-105z" />
    <glyph glyph-name="Udieresis" unicode="&#xdc;" horiz-adv-x="722" 
d="M67 0zM144 56q-77 68 -77 199v431h145v-424q0 -74 38.5 -112.5t109.5 -38.5t110.5 38.5t39.5 112.5v424h145v-431q0 -131 -77.5 -199t-217.5 -68q-139 0 -216 68zM197 868h118v-118h-118v118zM407 868h119v-118h-119v118z" />
    <glyph glyph-name="uni01D7" unicode="&#x1d7;" horiz-adv-x="722" 
d="M67 0zM144 56q-77 68 -77 199v431h145v-424q0 -74 38.5 -112.5t109.5 -38.5t110.5 38.5t39.5 112.5v424h145v-431q0 -131 -77.5 -199t-217.5 -68q-139 0 -216 68zM197 868h118v-118h-118v118zM407 868h119v-118h-119v118zM387 1035h133l1 -3l-108 -129h-105z" />
    <glyph glyph-name="uni01D9" unicode="&#x1d9;" horiz-adv-x="722" 
d="M67 0zM144 56q-77 68 -77 199v431h145v-424q0 -74 38.5 -112.5t109.5 -38.5t110.5 38.5t39.5 112.5v424h145v-431q0 -131 -77.5 -199t-217.5 -68q-139 0 -216 68zM197 868h118v-118h-118v118zM407 868h119v-118h-119v118zM194 1035h111l56 -69l55 69h111l-105 -135h-122z
" />
    <glyph glyph-name="uni01DB" unicode="&#x1db;" horiz-adv-x="722" 
d="M67 0zM144 56q-77 68 -77 199v431h145v-424q0 -74 38.5 -112.5t109.5 -38.5t110.5 38.5t39.5 112.5v424h145v-431q0 -131 -77.5 -199t-217.5 -68q-139 0 -216 68zM197 868h118v-118h-118v118zM407 868h119v-118h-119v118zM200 1032l1 3h133l79 -132h-105z" />
    <glyph glyph-name="uni01D5" unicode="&#x1d5;" horiz-adv-x="722" 
d="M67 0zM144 56q-77 68 -77 199v431h145v-424q0 -74 38.5 -112.5t109.5 -38.5t110.5 38.5t39.5 112.5v424h145v-431q0 -131 -77.5 -199t-217.5 -68q-139 0 -216 68zM197 868h118v-118h-118v118zM407 868h119v-118h-119v118zM208 1011h305v-88h-305v88z" />
    <glyph glyph-name="uni1EE4" unicode="&#x1ee4;" horiz-adv-x="722" 
d="M67 0zM144 56q-77 68 -77 199v431h145v-424q0 -74 38.5 -112.5t109.5 -38.5t110.5 38.5t39.5 112.5v424h145v-431q0 -131 -77.5 -199t-217.5 -68q-139 0 -216 68zM293 -43h135v-130h-135v130z" />
    <glyph glyph-name="Ugrave" unicode="&#xd9;" horiz-adv-x="722" 
d="M67 0zM144 56q-77 68 -77 199v431h145v-424q0 -74 38.5 -112.5t109.5 -38.5t110.5 38.5t39.5 112.5v424h145v-431q0 -131 -77.5 -199t-217.5 -68q-139 0 -216 68zM200 865l1 3h133l79 -132h-105z" />
    <glyph glyph-name="uni1EE6" unicode="&#x1ee6;" horiz-adv-x="722" 
d="M67 0zM144 56q-77 68 -77 199v431h145v-424q0 -74 38.5 -112.5t109.5 -38.5t110.5 38.5t39.5 112.5v424h145v-431q0 -131 -77.5 -199t-217.5 -68q-139 0 -216 68zM327 790h14q18 0 25 4.5t7 14.5q0 11 -8.5 15t-26.5 4h-58v44q38 8 83 8q46 0 81.5 -13.5t35.5 -47.5
q0 -27 -24 -41.5t-61 -16.5v-25h-68v54z" />
    <glyph glyph-name="Uhorn" unicode="&#x1af;" horiz-adv-x="722" 
d="M756 868v-54q0 -75 -24.5 -121.5t-76.5 -72.5v-365q0 -131 -77.5 -199t-217.5 -68q-139 0 -216 68t-77 199v431h145v-424q0 -74 38.5 -112.5t109.5 -38.5t110.5 38.5t39.5 112.5v424h121q26 19 36 45h-69v137h158z" />
    <glyph glyph-name="uni1EE8" unicode="&#x1ee8;" horiz-adv-x="722" 
d="M67 0zM756 868v-54q0 -75 -24.5 -121.5t-76.5 -72.5v-365q0 -131 -77.5 -199t-217.5 -68q-139 0 -216 68t-77 199v431h145v-424q0 -74 38.5 -112.5t109.5 -38.5t110.5 38.5t39.5 112.5v424h121q26 19 36 45h-69v137h158zM387 868h133l1 -3l-108 -129h-105z" />
    <glyph glyph-name="uni1EF0" unicode="&#x1ef0;" horiz-adv-x="722" 
d="M67 0zM756 868v-54q0 -75 -24.5 -121.5t-76.5 -72.5v-365q0 -131 -77.5 -199t-217.5 -68q-139 0 -216 68t-77 199v431h145v-424q0 -74 38.5 -112.5t109.5 -38.5t110.5 38.5t39.5 112.5v424h121q26 19 36 45h-69v137h158zM293 -43h135v-130h-135v130z" />
    <glyph glyph-name="uni1EEA" unicode="&#x1eea;" horiz-adv-x="722" 
d="M67 0zM756 868v-54q0 -75 -24.5 -121.5t-76.5 -72.5v-365q0 -131 -77.5 -199t-217.5 -68q-139 0 -216 68t-77 199v431h145v-424q0 -74 38.5 -112.5t109.5 -38.5t110.5 38.5t39.5 112.5v424h121q26 19 36 45h-69v137h158zM200 865l1 3h133l79 -132h-105z" />
    <glyph glyph-name="uni1EEC" unicode="&#x1eec;" horiz-adv-x="722" 
d="M67 0zM756 868v-54q0 -75 -24.5 -121.5t-76.5 -72.5v-365q0 -131 -77.5 -199t-217.5 -68q-139 0 -216 68t-77 199v431h145v-424q0 -74 38.5 -112.5t109.5 -38.5t110.5 38.5t39.5 112.5v424h121q26 19 36 45h-69v137h158zM327 790h14q18 0 25 4.5t7 14.5q0 11 -8.5 15
t-26.5 4h-58v44q38 8 83 8q46 0 81.5 -13.5t35.5 -47.5q0 -27 -24 -41.5t-61 -16.5v-25h-68v54z" />
    <glyph glyph-name="uni1EEE" unicode="&#x1eee;" horiz-adv-x="722" 
d="M67 0zM756 868v-54q0 -75 -24.5 -121.5t-76.5 -72.5v-365q0 -131 -77.5 -199t-217.5 -68q-139 0 -216 68t-77 199v431h145v-424q0 -74 38.5 -112.5t109.5 -38.5t110.5 38.5t39.5 112.5v424h121q26 19 36 45h-69v137h158zM217.5 833.5q24.5 34.5 73.5 34.5q16 0 30 -4.5
t39 -14.5q21 -9 35 -13.5t29 -4.5t23.5 8.5t11.5 28.5h70q0 -53 -24.5 -87.5t-74.5 -34.5q-16 0 -29.5 4.5t-38.5 14.5q-21 9 -35 13.5t-29 4.5q-30 0 -35 -37h-70q0 53 24.5 87.5z" />
    <glyph glyph-name="Uhungarumlaut" unicode="&#x170;" horiz-adv-x="722" 
d="M67 0zM144 56q-77 68 -77 199v431h145v-424q0 -74 38.5 -112.5t109.5 -38.5t110.5 38.5t39.5 112.5v424h145v-431q0 -131 -77.5 -199t-217.5 -68q-139 0 -216 68zM300 868h133l1 -3l-108 -129h-105zM475 868h133l1 -3l-108 -129h-105z" />
    <glyph glyph-name="uni0216" unicode="&#x216;" horiz-adv-x="722" 
d="M67 0zM144 56q-77 68 -77 199v431h145v-424q0 -74 38.5 -112.5t109.5 -38.5t110.5 38.5t39.5 112.5v424h145v-431q0 -131 -77.5 -199t-217.5 -68q-139 0 -216 68zM216 796.5q17 31.5 53 51.5t91 20t91.5 -20t53.5 -51.5t17 -65.5h-90q-2 18 -21 33t-51 15t-50 -15
t-21 -33h-90q0 34 17 65.5z" />
    <glyph glyph-name="Umacron" unicode="&#x16a;" horiz-adv-x="722" 
d="M67 0zM144 56q-77 68 -77 199v431h145v-424q0 -74 38.5 -112.5t109.5 -38.5t110.5 38.5t39.5 112.5v424h145v-431q0 -131 -77.5 -199t-217.5 -68q-139 0 -216 68zM208 844h305v-88h-305v88z" />
    <glyph glyph-name="Uogonek" unicode="&#x172;" horiz-adv-x="722" 
d="M363 -161q-31 21 -31 67q0 43 28 82q-139 0 -216 68t-77 199v431h145v-424q0 -74 38.5 -112.5t109.5 -38.5t110.5 38.5t39.5 112.5v424h145v-431q0 -105 -50 -170t-144 -86q-24 -33 -24 -61q0 -22 12 -36.5t36 -14.5h24v-55q-39 -14 -71 -14q-44 0 -75 21z" />
    <glyph glyph-name="Uring" unicode="&#x16e;" horiz-adv-x="722" 
d="M67 0zM144 56q-77 68 -77 199v431h145v-424q0 -74 38.5 -112.5t109.5 -38.5t110.5 38.5t39.5 112.5v424h145v-431q0 -131 -77.5 -199t-217.5 -68q-139 0 -216 68zM287.5 730q-27.5 29 -27.5 72t27.5 72t73.5 29t73.5 -29t27.5 -72t-27.5 -72t-73.5 -29t-73.5 29z
M392.5 770.5q12.5 12.5 12.5 31.5t-12.5 31.5t-31.5 12.5q-20 0 -32 -12.5t-12 -31.5t12 -31.5t32 -12.5q19 0 31.5 12.5z" />
    <glyph glyph-name="Utilde" unicode="&#x168;" horiz-adv-x="722" 
d="M67 0zM144 56q-77 68 -77 199v431h145v-424q0 -74 38.5 -112.5t109.5 -38.5t110.5 38.5t39.5 112.5v424h145v-431q0 -131 -77.5 -199t-217.5 -68q-139 0 -216 68zM217.5 833.5q24.5 34.5 73.5 34.5q16 0 30 -4.5t39 -14.5q21 -9 35 -13.5t29 -4.5t23.5 8.5t11.5 28.5h70
q0 -53 -24.5 -87.5t-74.5 -34.5q-16 0 -29.5 4.5t-38.5 14.5q-21 9 -35 13.5t-29 4.5q-30 0 -35 -37h-70q0 53 24.5 87.5z" />
    <glyph glyph-name="V" unicode="V" horiz-adv-x="667" 
d="M4 686h157l129 -376l26 -80.5t19 -61.5h5l20 69t23 73l128 376h151l-248 -686h-162z" />
    <glyph glyph-name="W" unicode="W" horiz-adv-x="944" 
d="M2 686h155l99 -422q4 -19 9.5 -52t6.5 -44h5q1 11 6.5 44.5t9.5 51.5l101 422h175l100 -422q4 -17 9 -51t7 -45h5q1 10 6 42.5t10 53.5l102 422h134l-182 -686h-157l-113 437q-6 22 -11 54.5t-6 42.5h-4q-2 -11 -7.5 -45t-9.5 -52l-111 -437h-157z" />
    <glyph glyph-name="Wacute" unicode="&#x1e82;" horiz-adv-x="944" 
d="M2 0zM2 686h155l99 -422q4 -19 9.5 -52t6.5 -44h5q1 11 6.5 44.5t9.5 51.5l101 422h175l100 -422q4 -17 9 -51t7 -45h5q1 10 6 42.5t10 53.5l102 422h134l-182 -686h-157l-113 437q-6 22 -11 54.5t-6 42.5h-4q-2 -11 -7.5 -45t-9.5 -52l-111 -437h-157zM498 868h133l1 -3
l-108 -129h-105z" />
    <glyph glyph-name="Wcircumflex" unicode="&#x174;" horiz-adv-x="944" 
d="M2 0zM2 686h155l99 -422q4 -19 9.5 -52t6.5 -44h5q1 11 6.5 44.5t9.5 51.5l101 422h175l100 -422q4 -17 9 -51t7 -45h5q1 10 6 42.5t10 53.5l102 422h134l-182 -686h-157l-113 437q-6 22 -11 54.5t-6 42.5h-4q-2 -11 -7.5 -45t-9.5 -52l-111 -437h-157zM411 868h122
l105 -135h-111l-55 69l-56 -69h-111z" />
    <glyph glyph-name="Wdieresis" unicode="&#x1e84;" horiz-adv-x="944" 
d="M2 0zM2 686h155l99 -422q4 -19 9.5 -52t6.5 -44h5q1 11 6.5 44.5t9.5 51.5l101 422h175l100 -422q4 -17 9 -51t7 -45h5q1 10 6 42.5t10 53.5l102 422h134l-182 -686h-157l-113 437q-6 22 -11 54.5t-6 42.5h-4q-2 -11 -7.5 -45t-9.5 -52l-111 -437h-157zM308 868h118v-118
h-118v118zM518 868h119v-118h-119v118z" />
    <glyph glyph-name="Wgrave" unicode="&#x1e80;" horiz-adv-x="944" 
d="M2 0zM2 686h155l99 -422q4 -19 9.5 -52t6.5 -44h5q1 11 6.5 44.5t9.5 51.5l101 422h175l100 -422q4 -17 9 -51t7 -45h5q1 10 6 42.5t10 53.5l102 422h134l-182 -686h-157l-113 437q-6 22 -11 54.5t-6 42.5h-4q-2 -11 -7.5 -45t-9.5 -52l-111 -437h-157zM311 865l1 3h133
l79 -132h-105z" />
    <glyph glyph-name="X" unicode="X" horiz-adv-x="667" 
d="M237 360l-215 326h176l139 -222h5l138 222h164l-216 -324l238 -362h-175l-162 258h-5l-160 -258h-164z" />
    <glyph glyph-name="Y" unicode="Y" horiz-adv-x="667" 
d="M262 277l-262 409h165l171 -280h5l169 280h157l-260 -409v-277h-145v277z" />
    <glyph glyph-name="Yacute" unicode="&#xdd;" horiz-adv-x="667" 
d="M0 0zM262 277l-262 409h165l171 -280h5l169 280h157l-260 -409v-277h-145v277zM360 868h133l1 -3l-108 -129h-105z" />
    <glyph glyph-name="Ycircumflex" unicode="&#x176;" horiz-adv-x="667" 
d="M0 0zM262 277l-262 409h165l171 -280h5l169 280h157l-260 -409v-277h-145v277zM273 868h122l105 -135h-111l-55 69l-56 -69h-111z" />
    <glyph glyph-name="Ydieresis" unicode="&#x178;" horiz-adv-x="667" 
d="M0 0zM262 277l-262 409h165l171 -280h5l169 280h157l-260 -409v-277h-145v277zM170 868h118v-118h-118v118zM380 868h119v-118h-119v118z" />
    <glyph glyph-name="uni1EF4" unicode="&#x1ef4;" horiz-adv-x="667" 
d="M0 0zM262 277l-262 409h165l171 -280h5l169 280h157l-260 -409v-277h-145v277zM266 -43h135v-130h-135v130z" />
    <glyph glyph-name="Ygrave" unicode="&#x1ef2;" horiz-adv-x="667" 
d="M0 0zM262 277l-262 409h165l171 -280h5l169 280h157l-260 -409v-277h-145v277zM173 865l1 3h133l79 -132h-105z" />
    <glyph glyph-name="uni1EF6" unicode="&#x1ef6;" horiz-adv-x="667" 
d="M0 0zM262 277l-262 409h165l171 -280h5l169 280h157l-260 -409v-277h-145v277zM300 790h14q18 0 25 4.5t7 14.5q0 11 -8.5 15t-26.5 4h-58v44q38 8 83 8q46 0 81.5 -13.5t35.5 -47.5q0 -27 -24 -41.5t-61 -16.5v-25h-68v54z" />
    <glyph glyph-name="uni0232" unicode="&#x232;" horiz-adv-x="667" 
d="M0 0zM262 277l-262 409h165l171 -280h5l169 280h157l-260 -409v-277h-145v277zM181 844h305v-88h-305v88z" />
    <glyph glyph-name="uni1EF8" unicode="&#x1ef8;" horiz-adv-x="667" 
d="M0 0zM262 277l-262 409h165l171 -280h5l169 280h157l-260 -409v-277h-145v277zM190.5 833.5q24.5 34.5 73.5 34.5q16 0 30 -4.5t39 -14.5q21 -9 35 -13.5t29 -4.5t23.5 8.5t11.5 28.5h70q0 -53 -24.5 -87.5t-74.5 -34.5q-16 0 -29.5 4.5t-38.5 14.5q-21 9 -35 13.5
t-29 4.5q-30 0 -35 -37h-70q0 53 24.5 87.5z" />
    <glyph glyph-name="Z" unicode="Z" 
d="M17 68l347 495h-321v123h534v-69l-346 -494h355v-123h-569v68z" />
    <glyph glyph-name="Zacute" unicode="&#x179;" 
d="M17 0zM17 68l347 495h-321v123h534v-69l-346 -494h355v-123h-569v68zM332 868h133l1 -3l-108 -129h-105z" />
    <glyph glyph-name="Zcaron" unicode="&#x17d;" 
d="M17 0zM17 68l347 495h-321v123h534v-69l-346 -494h355v-123h-569v68zM139 868h111l56 -69l55 69h111l-105 -135h-122z" />
    <glyph glyph-name="Zdotaccent" unicode="&#x17b;" 
d="M17 0zM17 68l347 495h-321v123h534v-69l-346 -494h355v-123h-569v68zM238 869h135v-130h-135v130z" />
    <glyph glyph-name="uni1E92" unicode="&#x1e92;" 
d="M17 0zM17 68l347 495h-321v123h534v-69l-346 -494h355v-123h-569v68zM238 -43h135v-130h-135v130z" />
    <glyph glyph-name="Iacute_J.loclNLD" horiz-adv-x="834" 
d="M67 0zM67 686h145v-686h-145v686zM165 868h133l1 -3l-108 -129h-105zM364 40q-61 52 -61 153v43h144v-41q0 -41 23.5 -63t68.5 -22q44 0 66 22t22 63v491h146v-493q0 -101 -60 -153t-174 -52t-175 52zM726 868h133l1 -3l-108 -129h-105z" />
    <glyph glyph-name="G_tilde.loclGUA" horiz-adv-x="778" 
d="M42 0zM364 373h353v-373h-100l-13 76q-48 -46 -101 -67t-129 -21q-159 0 -245.5 87t-86.5 268q0 177 92 266t260 89q89 0 162.5 -27.5t117 -83t43.5 -135.5h-150q0 56 -49.5 89.5t-118.5 33.5q-105 0 -156.5 -56t-51.5 -161v-30q0 -110 47.5 -163.5t145.5 -53.5
q81 0 134 38.5t54 104.5h-208v119zM245.5 833.5q24.5 34.5 73.5 34.5q16 0 30 -4.5t39 -14.5q21 -9 35 -13.5t29 -4.5t23.5 8.5t11.5 28.5h70q0 -53 -24.5 -87.5t-74.5 -34.5q-16 0 -29.5 4.5t-38.5 14.5q-21 9 -35 13.5t-29 4.5q-30 0 -35 -37h-70q0 53 24.5 87.5z" />
    <glyph glyph-name="Y.loclGUA" horiz-adv-x="667" 
d="M134 32q-67 44 -67 129v7h145q0 -28 28.5 -42.5t81.5 -14.5q63 0 98 31t35 90v56h-4q-50 -80 -169 -80q-107 0 -161 61.5t-54 175.5v241h145v-244q0 -54 28 -82.5t80 -28.5q66 0 100.5 46t34.5 135v174h145v-432q0 -130 -73 -198t-205 -68q-121 0 -188 44z" />
    <glyph glyph-name="Yacute.loclGUA" horiz-adv-x="667" 
d="M67 0zM134 32q-67 44 -67 129v7h145q0 -28 28.5 -42.5t81.5 -14.5q63 0 98 31t35 90v56h-4q-50 -80 -169 -80q-107 0 -161 61.5t-54 175.5v241h145v-244q0 -54 28 -82.5t80 -28.5q66 0 100.5 46t34.5 135v174h145v-432q0 -130 -73 -198t-205 -68q-121 0 -188 44zM360 868
h133l1 -3l-108 -129h-105z" />
    <glyph glyph-name="Ycircumflex.loclGUA" horiz-adv-x="667" 
d="M67 0zM134 32q-67 44 -67 129v7h145q0 -28 28.5 -42.5t81.5 -14.5q63 0 98 31t35 90v56h-4q-50 -80 -169 -80q-107 0 -161 61.5t-54 175.5v241h145v-244q0 -54 28 -82.5t80 -28.5q66 0 100.5 46t34.5 135v174h145v-432q0 -130 -73 -198t-205 -68q-121 0 -188 44zM273 868
h122l105 -135h-111l-55 69l-56 -69h-111z" />
    <glyph glyph-name="Ydieresis.loclGUA" horiz-adv-x="667" 
d="M67 0zM134 32q-67 44 -67 129v7h145q0 -28 28.5 -42.5t81.5 -14.5q63 0 98 31t35 90v56h-4q-50 -80 -169 -80q-107 0 -161 61.5t-54 175.5v241h145v-244q0 -54 28 -82.5t80 -28.5q66 0 100.5 46t34.5 135v174h145v-432q0 -130 -73 -198t-205 -68q-121 0 -188 44zM170 868
h118v-118h-118v118zM380 868h119v-118h-119v118z" />
    <glyph glyph-name="Ygrave.loclGUA" horiz-adv-x="667" 
d="M67 0zM134 32q-67 44 -67 129v7h145q0 -28 28.5 -42.5t81.5 -14.5q63 0 98 31t35 90v56h-4q-50 -80 -169 -80q-107 0 -161 61.5t-54 175.5v241h145v-244q0 -54 28 -82.5t80 -28.5q66 0 100.5 46t34.5 135v174h145v-432q0 -130 -73 -198t-205 -68q-121 0 -188 44zM173 865
l1 3h133l79 -132h-105z" />
    <glyph glyph-name="uni0232.loclGUA" horiz-adv-x="667" 
d="M67 0zM134 32q-67 44 -67 129v7h145q0 -28 28.5 -42.5t81.5 -14.5q63 0 98 31t35 90v56h-4q-50 -80 -169 -80q-107 0 -161 61.5t-54 175.5v241h145v-244q0 -54 28 -82.5t80 -28.5q66 0 100.5 46t34.5 135v174h145v-432q0 -130 -73 -198t-205 -68q-121 0 -188 44zM181 844
h305v-88h-305v88z" />
    <glyph glyph-name="uni1EF8.loclGUA" horiz-adv-x="667" 
d="M67 0zM134 32q-67 44 -67 129v7h145q0 -28 28.5 -42.5t81.5 -14.5q63 0 98 31t35 90v56h-4q-50 -80 -169 -80q-107 0 -161 61.5t-54 175.5v241h145v-244q0 -54 28 -82.5t80 -28.5q66 0 100.5 46t34.5 135v174h145v-432q0 -130 -73 -198t-205 -68q-121 0 -188 44z
M190.5 833.5q24.5 34.5 73.5 34.5q16 0 30 -4.5t39 -14.5q21 -9 35 -13.5t29 -4.5t23.5 8.5t11.5 28.5h70q0 -53 -24.5 -87.5t-74.5 -34.5q-16 0 -29.5 4.5t-38.5 14.5q-21 9 -35 13.5t-29 4.5q-30 0 -35 -37h-70q0 53 24.5 87.5z" />
    <glyph glyph-name="Cacute.loclPLK" horiz-adv-x="722" 
d="M42 0zM42 343q0 178 87 266.5t245 88.5q87 0 156.5 -29.5t110 -90t40.5 -147.5h-149q0 67 -43 105.5t-112 38.5q-94 0 -140 -56t-46 -161v-30q0 -217 186 -217q73 0 116.5 38t43.5 105h144q0 -88 -40 -147.5t-109 -89t-158 -29.5q-332 0 -332 355zM337 867h124l-48 -131
h-105z" />
    <glyph glyph-name="Nacute.loclPLK" horiz-adv-x="722" 
d="M67 0zM67 686h141l264 -373q8 -11 22 -35t18 -32l5 3q0 8 -1.5 26t-1.5 32v379h141v-686h-141l-265 376q-12 17 -24 38.5t-15 27.5l-5 -3q0 -7 1.5 -25t1.5 -35v-379h-141v686zM337 867h124l-48 -131h-105z" />
    <glyph glyph-name="Oacute.loclPLK" horiz-adv-x="778" 
d="M42 0zM133 76.5q-91 88.5 -91 266.5t91 266.5t256 88.5q166 0 257 -88.5t91 -266.5t-91 -266.5t-257 -88.5q-165 0 -256 88.5zM537.5 167.5q50.5 56.5 50.5 160.5v30q0 104 -50.5 160.5t-148.5 56.5t-148 -56.5t-50 -160.5v-30q0 -104 50 -160.5t148 -56.5t148.5 56.5z
M365 867h124l-48 -131h-105z" />
    <glyph glyph-name="Sacute.loclPLK" horiz-adv-x="667" 
d="M42 0zM185.5 12.5q-65.5 24.5 -104.5 72.5t-39 116l1 22h147l-1 -16q0 -44 39 -70t109 -26q74 0 107 19.5t33 52.5q0 29 -21.5 48.5t-54 31t-89.5 27.5q-81 23 -131 44t-86 62.5t-36 109.5q0 94 76 143t202 49q119 0 194.5 -50.5t75.5 -151.5v-12h-144v9q0 38 -34.5 60
t-93.5 22q-63 0 -96.5 -17t-33.5 -47q0 -23 20 -39.5t50 -27t85 -25.5q82 -22 134.5 -43.5t90.5 -63.5t38 -110q0 -110 -78.5 -162t-214.5 -52q-79 0 -144.5 24.5zM310 867h124l-48 -131h-105z" />
    <glyph glyph-name="Zacute.loclPLK" 
d="M17 0zM17 68l347 495h-321v123h534v-69l-346 -494h355v-123h-569v68zM282 867h124l-48 -131h-105z" />
    <glyph glyph-name="a" unicode="a" horiz-adv-x="556" 
d="M80 20q-51 32 -51 116q0 101 83 143.5t235 42.5v37q0 35 -15.5 54t-58.5 19q-46 0 -65.5 -14t-19.5 -33v-15h-132q-1 6 -1 22q0 66 58.5 106t155.5 40q108 0 161.5 -44t53.5 -127v-232q0 -18 10 -26.5t25 -8.5h28v-96q-32 -16 -79 -16q-41 0 -68.5 18t-37.5 51h-6
q-29 -34 -66.5 -51.5t-97.5 -17.5q-61 0 -112 32zM320 128.5q27 32.5 27 86.5v16q-179 0 -179 -80q0 -25 16.5 -40t50.5 -15q58 0 85 32.5z" />
    <glyph glyph-name="aacute" unicode="&#xe1;" horiz-adv-x="556" 
d="M29 0zM80 20q-51 32 -51 116q0 101 83 143.5t235 42.5v37q0 35 -15.5 54t-58.5 19q-46 0 -65.5 -14t-19.5 -33v-15h-132q-1 6 -1 22q0 66 58.5 106t155.5 40q108 0 161.5 -44t53.5 -127v-232q0 -18 10 -26.5t25 -8.5h28v-96q-32 -16 -79 -16q-41 0 -68.5 18t-37.5 51h-6
q-29 -34 -66.5 -51.5t-97.5 -17.5q-61 0 -112 32zM320 128.5q27 32.5 27 86.5v16q-179 0 -179 -80q0 -25 16.5 -40t50.5 -15q58 0 85 32.5zM304 723h133l1 -3l-108 -129h-105z" />
    <glyph glyph-name="abreve" unicode="&#x103;" horiz-adv-x="556" 
d="M29 0zM80 20q-51 32 -51 116q0 101 83 143.5t235 42.5v37q0 35 -15.5 54t-58.5 19q-46 0 -65.5 -14t-19.5 -33v-15h-132q-1 6 -1 22q0 66 58.5 106t155.5 40q108 0 161.5 -44t53.5 -127v-232q0 -18 10 -26.5t25 -8.5h28v-96q-32 -16 -79 -16q-41 0 -68.5 18t-37.5 51h-6
q-29 -34 -66.5 -51.5t-97.5 -17.5q-61 0 -112 32zM320 128.5q27 32.5 27 86.5v16q-179 0 -179 -80q0 -25 16.5 -40t50.5 -15q58 0 85 32.5zM186 606q-36 20 -53 51.5t-17 65.5h90q3 -18 21 -33t50 -15t51 15t21 33h90q0 -34 -17 -65.5t-53.5 -51.5t-91.5 -20t-91 20z" />
    <glyph glyph-name="uni1EAF" unicode="&#x1eaf;" horiz-adv-x="556" 
d="M29 0zM80 20q-51 32 -51 116q0 101 83 143.5t235 42.5v37q0 35 -15.5 54t-58.5 19q-46 0 -65.5 -14t-19.5 -33v-15h-132q-1 6 -1 22q0 66 58.5 106t155.5 40q108 0 161.5 -44t53.5 -127v-232q0 -18 10 -26.5t25 -8.5h28v-96q-32 -16 -79 -16q-41 0 -68.5 18t-37.5 51h-6
q-29 -34 -66.5 -51.5t-97.5 -17.5q-61 0 -112 32zM320 128.5q27 32.5 27 86.5v16q-179 0 -179 -80q0 -25 16.5 -40t50.5 -15q58 0 85 32.5zM186 606q-36 20 -53 51.5t-17 65.5h90q3 -18 21 -33t50 -15t51 15t21 33h90q0 -34 -17 -65.5t-53.5 -51.5t-91.5 -20t-91 20z
M304 855h133l1 -3l-108 -129h-105z" />
    <glyph glyph-name="uni1EB7" unicode="&#x1eb7;" horiz-adv-x="556" 
d="M29 0zM80 20q-51 32 -51 116q0 101 83 143.5t235 42.5v37q0 35 -15.5 54t-58.5 19q-46 0 -65.5 -14t-19.5 -33v-15h-132q-1 6 -1 22q0 66 58.5 106t155.5 40q108 0 161.5 -44t53.5 -127v-232q0 -18 10 -26.5t25 -8.5h28v-96q-32 -16 -79 -16q-41 0 -68.5 18t-37.5 51h-6
q-29 -34 -66.5 -51.5t-97.5 -17.5q-61 0 -112 32zM320 128.5q27 32.5 27 86.5v16q-179 0 -179 -80q0 -25 16.5 -40t50.5 -15q58 0 85 32.5zM186 606q-36 20 -53 51.5t-17 65.5h90q3 -18 21 -33t50 -15t51 15t21 33h90q0 -34 -17 -65.5t-53.5 -51.5t-91.5 -20t-91 20z
M210 -43h135v-130h-135v130z" />
    <glyph glyph-name="uni1EB1" unicode="&#x1eb1;" horiz-adv-x="556" 
d="M29 0zM80 20q-51 32 -51 116q0 101 83 143.5t235 42.5v37q0 35 -15.5 54t-58.5 19q-46 0 -65.5 -14t-19.5 -33v-15h-132q-1 6 -1 22q0 66 58.5 106t155.5 40q108 0 161.5 -44t53.5 -127v-232q0 -18 10 -26.5t25 -8.5h28v-96q-32 -16 -79 -16q-41 0 -68.5 18t-37.5 51h-6
q-29 -34 -66.5 -51.5t-97.5 -17.5q-61 0 -112 32zM320 128.5q27 32.5 27 86.5v16q-179 0 -179 -80q0 -25 16.5 -40t50.5 -15q58 0 85 32.5zM186 606q-36 20 -53 51.5t-17 65.5h90q3 -18 21 -33t50 -15t51 15t21 33h90q0 -34 -17 -65.5t-53.5 -51.5t-91.5 -20t-91 20z
M119 852l1 3h133l79 -132h-105z" />
    <glyph glyph-name="uni1EB3" unicode="&#x1eb3;" horiz-adv-x="556" 
d="M29 0zM80 20q-51 32 -51 116q0 101 83 143.5t235 42.5v37q0 35 -15.5 54t-58.5 19q-46 0 -65.5 -14t-19.5 -33v-15h-132q-1 6 -1 22q0 66 58.5 106t155.5 40q108 0 161.5 -44t53.5 -127v-232q0 -18 10 -26.5t25 -8.5h28v-96q-32 -16 -79 -16q-41 0 -68.5 18t-37.5 51h-6
q-29 -34 -66.5 -51.5t-97.5 -17.5q-61 0 -112 32zM320 128.5q27 32.5 27 86.5v16q-179 0 -179 -80q0 -25 16.5 -40t50.5 -15q58 0 85 32.5zM186 606q-36 20 -53 51.5t-17 65.5h90q3 -18 21 -33t50 -15t51 15t21 33h90q0 -34 -17 -65.5t-53.5 -51.5t-91.5 -20t-91 20z
M244 777h14q18 0 25 4.5t7 14.5q0 11 -8.5 15t-26.5 4h-58v44q38 8 83 8q46 0 81.5 -13.5t35.5 -47.5q0 -27 -24 -41.5t-61 -16.5v-25h-68v54z" />
    <glyph glyph-name="uni1EB5" unicode="&#x1eb5;" horiz-adv-x="556" 
d="M29 0zM80 20q-51 32 -51 116q0 101 83 143.5t235 42.5v37q0 35 -15.5 54t-58.5 19q-46 0 -65.5 -14t-19.5 -33v-15h-132q-1 6 -1 22q0 66 58.5 106t155.5 40q108 0 161.5 -44t53.5 -127v-232q0 -18 10 -26.5t25 -8.5h28v-96q-32 -16 -79 -16q-41 0 -68.5 18t-37.5 51h-6
q-29 -34 -66.5 -51.5t-97.5 -17.5q-61 0 -112 32zM320 128.5q27 32.5 27 86.5v16q-179 0 -179 -80q0 -25 16.5 -40t50.5 -15q58 0 85 32.5zM186 606q-36 20 -53 51.5t-17 65.5h90q3 -18 21 -33t50 -15t51 15t21 33h90q0 -34 -17 -65.5t-53.5 -51.5t-91.5 -20t-91 20z
M136.5 848.5q24.5 34.5 73.5 34.5q16 0 30 -4.5t39 -14.5q21 -9 35 -13.5t29 -4.5t23.5 8.5t11.5 28.5h70q0 -53 -24.5 -87.5t-74.5 -34.5q-16 0 -29.5 4.5t-38.5 14.5q-21 9 -35 13.5t-29 4.5q-30 0 -35 -37h-70q0 53 24.5 87.5z" />
    <glyph glyph-name="uni01CE" unicode="&#x1ce;" horiz-adv-x="556" 
d="M29 0zM80 20q-51 32 -51 116q0 101 83 143.5t235 42.5v37q0 35 -15.5 54t-58.5 19q-46 0 -65.5 -14t-19.5 -33v-15h-132q-1 6 -1 22q0 66 58.5 106t155.5 40q108 0 161.5 -44t53.5 -127v-232q0 -18 10 -26.5t25 -8.5h28v-96q-32 -16 -79 -16q-41 0 -68.5 18t-37.5 51h-6
q-29 -34 -66.5 -51.5t-97.5 -17.5q-61 0 -112 32zM320 128.5q27 32.5 27 86.5v16q-179 0 -179 -80q0 -25 16.5 -40t50.5 -15q58 0 85 32.5zM111 723h111l56 -69l55 69h111l-105 -135h-122z" />
    <glyph glyph-name="acircumflex" unicode="&#xe2;" horiz-adv-x="556" 
d="M29 0zM80 20q-51 32 -51 116q0 101 83 143.5t235 42.5v37q0 35 -15.5 54t-58.5 19q-46 0 -65.5 -14t-19.5 -33v-15h-132q-1 6 -1 22q0 66 58.5 106t155.5 40q108 0 161.5 -44t53.5 -127v-232q0 -18 10 -26.5t25 -8.5h28v-96q-32 -16 -79 -16q-41 0 -68.5 18t-37.5 51h-6
q-29 -34 -66.5 -51.5t-97.5 -17.5q-61 0 -112 32zM320 128.5q27 32.5 27 86.5v16q-179 0 -179 -80q0 -25 16.5 -40t50.5 -15q58 0 85 32.5zM217 723h122l105 -135h-111l-55 69l-56 -69h-111z" />
    <glyph glyph-name="uni1EA5" unicode="&#x1ea5;" horiz-adv-x="556" 
d="M29 0zM80 20q-51 32 -51 116q0 101 83 143.5t235 42.5v37q0 35 -15.5 54t-58.5 19q-46 0 -65.5 -14t-19.5 -33v-15h-132q-1 6 -1 22q0 66 58.5 106t155.5 40q108 0 161.5 -44t53.5 -127v-232q0 -18 10 -26.5t25 -8.5h28v-96q-32 -16 -79 -16q-41 0 -68.5 18t-37.5 51h-6
q-29 -34 -66.5 -51.5t-97.5 -17.5q-61 0 -112 32zM320 128.5q27 32.5 27 86.5v16q-179 0 -179 -80q0 -25 16.5 -40t50.5 -15q58 0 85 32.5zM217 723h122l105 -135h-111l-55 69l-56 -69h-111zM451 818h133l1 -3l-108 -129h-105z" />
    <glyph glyph-name="uni1EAD" unicode="&#x1ead;" horiz-adv-x="556" 
d="M29 0zM80 20q-51 32 -51 116q0 101 83 143.5t235 42.5v37q0 35 -15.5 54t-58.5 19q-46 0 -65.5 -14t-19.5 -33v-15h-132q-1 6 -1 22q0 66 58.5 106t155.5 40q108 0 161.5 -44t53.5 -127v-232q0 -18 10 -26.5t25 -8.5h28v-96q-32 -16 -79 -16q-41 0 -68.5 18t-37.5 51h-6
q-29 -34 -66.5 -51.5t-97.5 -17.5q-61 0 -112 32zM320 128.5q27 32.5 27 86.5v16q-179 0 -179 -80q0 -25 16.5 -40t50.5 -15q58 0 85 32.5zM217 723h122l105 -135h-111l-55 69l-56 -69h-111zM210 -43h135v-130h-135v130z" />
    <glyph glyph-name="uni1EA7" unicode="&#x1ea7;" horiz-adv-x="556" 
d="M29 0zM80 20q-51 32 -51 116q0 101 83 143.5t235 42.5v37q0 35 -15.5 54t-58.5 19q-46 0 -65.5 -14t-19.5 -33v-15h-132q-1 6 -1 22q0 66 58.5 106t155.5 40q108 0 161.5 -44t53.5 -127v-232q0 -18 10 -26.5t25 -8.5h28v-96q-32 -16 -79 -16q-41 0 -68.5 18t-37.5 51h-6
q-29 -34 -66.5 -51.5t-97.5 -17.5q-61 0 -112 32zM320 128.5q27 32.5 27 86.5v16q-179 0 -179 -80q0 -25 16.5 -40t50.5 -15q58 0 85 32.5zM217 723h122l105 -135h-111l-55 69l-56 -69h-111zM304 815l1 3h133l79 -132h-105z" />
    <glyph glyph-name="uni1EA9" unicode="&#x1ea9;" horiz-adv-x="556" 
d="M29 0zM80 20q-51 32 -51 116q0 101 83 143.5t235 42.5v37q0 35 -15.5 54t-58.5 19q-46 0 -65.5 -14t-19.5 -33v-15h-132q-1 6 -1 22q0 66 58.5 106t155.5 40q108 0 161.5 -44t53.5 -127v-232q0 -18 10 -26.5t25 -8.5h28v-96q-32 -16 -79 -16q-41 0 -68.5 18t-37.5 51h-6
q-29 -34 -66.5 -51.5t-97.5 -17.5q-61 0 -112 32zM320 128.5q27 32.5 27 86.5v16q-179 0 -179 -80q0 -25 16.5 -40t50.5 -15q58 0 85 32.5zM217 723h122l105 -135h-111l-55 69l-56 -69h-111zM391 740h14q18 0 25 4.5t7 14.5q0 11 -8.5 15t-26.5 4h-58v44q38 8 83 8
q46 0 81.5 -13.5t35.5 -47.5q0 -27 -24 -41.5t-61 -16.5v-25h-68v54z" />
    <glyph glyph-name="uni1EAB" unicode="&#x1eab;" horiz-adv-x="556" 
d="M29 0zM80 20q-51 32 -51 116q0 101 83 143.5t235 42.5v37q0 35 -15.5 54t-58.5 19q-46 0 -65.5 -14t-19.5 -33v-15h-132q-1 6 -1 22q0 66 58.5 106t155.5 40q108 0 161.5 -44t53.5 -127v-232q0 -18 10 -26.5t25 -8.5h28v-96q-32 -16 -79 -16q-41 0 -68.5 18t-37.5 51h-6
q-29 -34 -66.5 -51.5t-97.5 -17.5q-61 0 -112 32zM320 128.5q27 32.5 27 86.5v16q-179 0 -179 -80q0 -25 16.5 -40t50.5 -15q58 0 85 32.5zM217 723h122l105 -135h-111l-55 69l-56 -69h-111zM136.5 848.5q24.5 34.5 73.5 34.5q16 0 30 -4.5t39 -14.5q21 -9 35 -13.5t29 -4.5
t23.5 8.5t11.5 28.5h70q0 -53 -24.5 -87.5t-74.5 -34.5q-16 0 -29.5 4.5t-38.5 14.5q-21 9 -35 13.5t-29 4.5q-30 0 -35 -37h-70q0 53 24.5 87.5z" />
    <glyph glyph-name="uni0201" unicode="&#x201;" horiz-adv-x="556" 
d="M29 0zM80 20q-51 32 -51 116q0 101 83 143.5t235 42.5v37q0 35 -15.5 54t-58.5 19q-46 0 -65.5 -14t-19.5 -33v-15h-132q-1 6 -1 22q0 66 58.5 106t155.5 40q108 0 161.5 -44t53.5 -127v-232q0 -18 10 -26.5t25 -8.5h28v-96q-32 -16 -79 -16q-41 0 -68.5 18t-37.5 51h-6
q-29 -34 -66.5 -51.5t-97.5 -17.5q-61 0 -112 32zM320 128.5q27 32.5 27 86.5v16q-179 0 -179 -80q0 -25 16.5 -40t50.5 -15q58 0 85 32.5zM50 720l1 3h133l79 -132h-105zM225 720l1 3h133l79 -132h-105z" />
    <glyph glyph-name="adieresis" unicode="&#xe4;" horiz-adv-x="556" 
d="M29 0zM80 20q-51 32 -51 116q0 101 83 143.5t235 42.5v37q0 35 -15.5 54t-58.5 19q-46 0 -65.5 -14t-19.5 -33v-15h-132q-1 6 -1 22q0 66 58.5 106t155.5 40q108 0 161.5 -44t53.5 -127v-232q0 -18 10 -26.5t25 -8.5h28v-96q-32 -16 -79 -16q-41 0 -68.5 18t-37.5 51h-6
q-29 -34 -66.5 -51.5t-97.5 -17.5q-61 0 -112 32zM320 128.5q27 32.5 27 86.5v16q-179 0 -179 -80q0 -25 16.5 -40t50.5 -15q58 0 85 32.5zM114 723h118v-118h-118v118zM324 723h119v-118h-119v118z" />
    <glyph glyph-name="uni1EA1" unicode="&#x1ea1;" horiz-adv-x="556" 
d="M29 0zM80 20q-51 32 -51 116q0 101 83 143.5t235 42.5v37q0 35 -15.5 54t-58.5 19q-46 0 -65.5 -14t-19.5 -33v-15h-132q-1 6 -1 22q0 66 58.5 106t155.5 40q108 0 161.5 -44t53.5 -127v-232q0 -18 10 -26.5t25 -8.5h28v-96q-32 -16 -79 -16q-41 0 -68.5 18t-37.5 51h-6
q-29 -34 -66.5 -51.5t-97.5 -17.5q-61 0 -112 32zM320 128.5q27 32.5 27 86.5v16q-179 0 -179 -80q0 -25 16.5 -40t50.5 -15q58 0 85 32.5zM210 -43h135v-130h-135v130z" />
    <glyph glyph-name="agrave" unicode="&#xe0;" horiz-adv-x="556" 
d="M29 0zM80 20q-51 32 -51 116q0 101 83 143.5t235 42.5v37q0 35 -15.5 54t-58.5 19q-46 0 -65.5 -14t-19.5 -33v-15h-132q-1 6 -1 22q0 66 58.5 106t155.5 40q108 0 161.5 -44t53.5 -127v-232q0 -18 10 -26.5t25 -8.5h28v-96q-32 -16 -79 -16q-41 0 -68.5 18t-37.5 51h-6
q-29 -34 -66.5 -51.5t-97.5 -17.5q-61 0 -112 32zM320 128.5q27 32.5 27 86.5v16q-179 0 -179 -80q0 -25 16.5 -40t50.5 -15q58 0 85 32.5zM117 720l1 3h133l79 -132h-105z" />
    <glyph glyph-name="uni1EA3" unicode="&#x1ea3;" horiz-adv-x="556" 
d="M29 0zM80 20q-51 32 -51 116q0 101 83 143.5t235 42.5v37q0 35 -15.5 54t-58.5 19q-46 0 -65.5 -14t-19.5 -33v-15h-132q-1 6 -1 22q0 66 58.5 106t155.5 40q108 0 161.5 -44t53.5 -127v-232q0 -18 10 -26.5t25 -8.5h28v-96q-32 -16 -79 -16q-41 0 -68.5 18t-37.5 51h-6
q-29 -34 -66.5 -51.5t-97.5 -17.5q-61 0 -112 32zM320 128.5q27 32.5 27 86.5v16q-179 0 -179 -80q0 -25 16.5 -40t50.5 -15q58 0 85 32.5zM244 645h14q18 0 25 4.5t7 14.5q0 11 -8.5 15t-26.5 4h-58v44q38 8 83 8q46 0 81.5 -13.5t35.5 -47.5q0 -27 -24 -41.5t-61 -16.5
v-25h-68v54z" />
    <glyph glyph-name="uni0203" unicode="&#x203;" horiz-adv-x="556" 
d="M29 0zM80 20q-51 32 -51 116q0 101 83 143.5t235 42.5v37q0 35 -15.5 54t-58.5 19q-46 0 -65.5 -14t-19.5 -33v-15h-132q-1 6 -1 22q0 66 58.5 106t155.5 40q108 0 161.5 -44t53.5 -127v-232q0 -18 10 -26.5t25 -8.5h28v-96q-32 -16 -79 -16q-41 0 -68.5 18t-37.5 51h-6
q-29 -34 -66.5 -51.5t-97.5 -17.5q-61 0 -112 32zM320 128.5q27 32.5 27 86.5v16q-179 0 -179 -80q0 -25 16.5 -40t50.5 -15q58 0 85 32.5zM133 651.5q17 31.5 53 51.5t91 20t91.5 -20t53.5 -51.5t17 -65.5h-90q-2 18 -21 33t-51 15t-50 -15t-21 -33h-90q0 34 17 65.5z" />
    <glyph glyph-name="amacron" unicode="&#x101;" horiz-adv-x="556" 
d="M29 0zM80 20q-51 32 -51 116q0 101 83 143.5t235 42.5v37q0 35 -15.5 54t-58.5 19q-46 0 -65.5 -14t-19.5 -33v-15h-132q-1 6 -1 22q0 66 58.5 106t155.5 40q108 0 161.5 -44t53.5 -127v-232q0 -18 10 -26.5t25 -8.5h28v-96q-32 -16 -79 -16q-41 0 -68.5 18t-37.5 51h-6
q-29 -34 -66.5 -51.5t-97.5 -17.5q-61 0 -112 32zM320 128.5q27 32.5 27 86.5v16q-179 0 -179 -80q0 -25 16.5 -40t50.5 -15q58 0 85 32.5zM125 699h305v-88h-305v88z" />
    <glyph glyph-name="aogonek" unicode="&#x105;" horiz-adv-x="556" 
d="M399.5 -163.5q-29.5 18.5 -29.5 59.5q0 54 61 97q-26 6 -43.5 22.5t-25.5 41.5h-6q-29 -34 -66.5 -51.5t-97.5 -17.5q-61 0 -112 32t-51 116q0 101 83 143.5t235 42.5v37q0 35 -15.5 54t-58.5 19q-46 0 -65.5 -14t-19.5 -33v-15h-132q-1 6 -1 22q0 66 58.5 106t155.5 40
q108 0 161.5 -44t53.5 -127v-232q0 -18 10 -26.5t25 -8.5h28v-96q-72 -40 -72 -76q0 -41 48 -41h24v-55q0 -1 -24.5 -7.5t-46.5 -6.5q-47 0 -76.5 18.5zM320 128.5q27 32.5 27 86.5v16q-179 0 -179 -80q0 -25 16.5 -40t50.5 -15q58 0 85 32.5z" />
    <glyph glyph-name="aring" unicode="&#xe5;" horiz-adv-x="556" 
d="M29 0zM80 20q-51 32 -51 116q0 101 83 143.5t235 42.5v37q0 35 -15.5 54t-58.5 19q-46 0 -65.5 -14t-19.5 -33v-15h-132q-1 6 -1 22q0 66 58.5 106t155.5 40q108 0 161.5 -44t53.5 -127v-232q0 -18 10 -26.5t25 -8.5h28v-96q-32 -16 -79 -16q-41 0 -68.5 18t-37.5 51h-6
q-29 -34 -66.5 -51.5t-97.5 -17.5q-61 0 -112 32zM320 128.5q27 32.5 27 86.5v16q-179 0 -179 -80q0 -25 16.5 -40t50.5 -15q58 0 85 32.5zM204.5 585q-27.5 29 -27.5 72t27.5 72t73.5 29t73.5 -29t27.5 -72t-27.5 -72t-73.5 -29t-73.5 29zM309.5 625.5q12.5 12.5 12.5 31.5
t-12.5 31.5t-31.5 12.5q-20 0 -32 -12.5t-12 -31.5t12 -31.5t32 -12.5q19 0 31.5 12.5z" />
    <glyph glyph-name="aringacute" unicode="&#x1fb;" horiz-adv-x="556" 
d="M29 0zM80 20q-51 32 -51 116q0 101 83 143.5t235 42.5v37q0 35 -15.5 54t-58.5 19q-46 0 -65.5 -14t-19.5 -33v-15h-132q-1 6 -1 22q0 66 58.5 106t155.5 40q108 0 161.5 -44t53.5 -127v-232q0 -18 10 -26.5t25 -8.5h28v-96q-32 -16 -79 -16q-41 0 -68.5 18t-37.5 51h-6
q-29 -34 -66.5 -51.5t-97.5 -17.5q-61 0 -112 32zM320 128.5q27 32.5 27 86.5v16q-179 0 -179 -80q0 -25 16.5 -40t50.5 -15q58 0 85 32.5zM204.5 585q-27.5 29 -27.5 72t27.5 72t73.5 29t73.5 -29t27.5 -72t-27.5 -72t-73.5 -29t-73.5 29zM309.5 625.5q12.5 12.5 12.5 31.5
t-12.5 31.5t-31.5 12.5q-20 0 -32 -12.5t-12 -31.5t12 -31.5t32 -12.5q19 0 31.5 12.5zM304 909h133l1 -3l-108 -129h-105z" />
    <glyph glyph-name="atilde" unicode="&#xe3;" horiz-adv-x="556" 
d="M29 0zM80 20q-51 32 -51 116q0 101 83 143.5t235 42.5v37q0 35 -15.5 54t-58.5 19q-46 0 -65.5 -14t-19.5 -33v-15h-132q-1 6 -1 22q0 66 58.5 106t155.5 40q108 0 161.5 -44t53.5 -127v-232q0 -18 10 -26.5t25 -8.5h28v-96q-32 -16 -79 -16q-41 0 -68.5 18t-37.5 51h-6
q-29 -34 -66.5 -51.5t-97.5 -17.5q-61 0 -112 32zM320 128.5q27 32.5 27 86.5v16q-179 0 -179 -80q0 -25 16.5 -40t50.5 -15q58 0 85 32.5zM134.5 688.5q24.5 34.5 73.5 34.5q16 0 30 -4.5t39 -14.5q21 -9 35 -13.5t29 -4.5t23.5 8.5t11.5 28.5h70q0 -53 -24.5 -87.5
t-74.5 -34.5q-16 0 -29.5 4.5t-38.5 14.5q-21 9 -35 13.5t-29 4.5q-30 0 -35 -37h-70q0 53 24.5 87.5z" />
    <glyph glyph-name="ae" unicode="&#xe6;" horiz-adv-x="889" 
d="M93 20q-64 32 -64 116q0 101 88.5 143.5t253.5 42.5v37q0 35 -18 54t-70 19q-51 0 -73 -14t-22 -33v-15h-132q-1 6 -1 22q0 66 61.5 106t162.5 40q116 0 175 -51q62 51 167 51q117 0 175 -67.5t58 -207.5v-32h-346q2 -70 28 -103.5t87 -33.5q43 0 69.5 24t26.5 68h135
q0 -99 -64 -148.5t-169 -49.5q-129 0 -191 68q-35 -33 -82 -50.5t-116 -17.5q-75 0 -139 32zM712 322q0 109 -91 109q-52 0 -78.5 -27t-32.5 -82h202zM340.5 128.5q30.5 32.5 30.5 86.5v16q-203 0 -203 -80q0 -25 19 -40t58 -15q65 0 95.5 32.5z" />
    <glyph glyph-name="aeacute" unicode="&#x1fd;" horiz-adv-x="889" 
d="M29 0zM93 20q-64 32 -64 116q0 101 88.5 143.5t253.5 42.5v37q0 35 -18 54t-70 19q-51 0 -73 -14t-22 -33v-15h-132q-1 6 -1 22q0 66 61.5 106t162.5 40q116 0 175 -51q62 51 167 51q117 0 175 -67.5t58 -207.5v-32h-346q2 -70 28 -103.5t87 -33.5q43 0 69.5 24t26.5 68
h135q0 -99 -64 -148.5t-169 -49.5q-129 0 -191 68q-35 -33 -82 -50.5t-116 -17.5q-75 0 -139 32zM712 322q0 109 -91 109q-52 0 -78.5 -27t-32.5 -82h202zM340.5 128.5q30.5 32.5 30.5 86.5v16q-203 0 -203 -80q0 -25 19 -40t58 -15q65 0 95.5 32.5zM471 723h133l1 -3
l-108 -129h-105z" />
    <glyph glyph-name="b" unicode="b" 
d="M271 8.5q-42 20.5 -67 60.5h-7l-9 -69h-117v723h137v-258h6q23 35 63.5 54t93.5 19q92 0 147.5 -69t55.5 -205q0 -139 -55 -207.5t-155 -68.5q-51 0 -93 20.5zM407 143.5q26 36.5 26 110.5v18q0 74 -26 110.5t-87 36.5q-112 0 -112 -149v-16q0 -147 112 -147
q61 0 87 36.5z" />
    <glyph glyph-name="c" unicode="c" horiz-adv-x="556" 
d="M100.5 55q-62.5 67 -62.5 208q0 140 62.5 207.5t188.5 67.5q105 0 167.5 -53.5t62.5 -156.5h-138q0 48 -25 74t-70 26q-56 0 -82.5 -39.5t-26.5 -117.5v-16q0 -78 27.5 -117.5t88.5 -39.5q43 0 68.5 26.5t25.5 73.5h132q0 -103 -62 -156.5t-168 -53.5q-126 0 -188.5 67z
" />
    <glyph glyph-name="cacute" unicode="&#x107;" horiz-adv-x="556" 
d="M38 0zM100.5 55q-62.5 67 -62.5 208q0 140 62.5 207.5t188.5 67.5q105 0 167.5 -53.5t62.5 -156.5h-138q0 48 -25 74t-70 26q-56 0 -82.5 -39.5t-26.5 -117.5v-16q0 -78 27.5 -117.5t88.5 -39.5q43 0 68.5 26.5t25.5 73.5h132q0 -103 -62 -156.5t-168 -53.5
q-126 0 -188.5 67zM304 723h133l1 -3l-108 -129h-105z" />
    <glyph glyph-name="ccaron" unicode="&#x10d;" horiz-adv-x="556" 
d="M38 0zM100.5 55q-62.5 67 -62.5 208q0 140 62.5 207.5t188.5 67.5q105 0 167.5 -53.5t62.5 -156.5h-138q0 48 -25 74t-70 26q-56 0 -82.5 -39.5t-26.5 -117.5v-16q0 -78 27.5 -117.5t88.5 -39.5q43 0 68.5 26.5t25.5 73.5h132q0 -103 -62 -156.5t-168 -53.5
q-126 0 -188.5 67zM111 723h111l56 -69l55 69h111l-105 -135h-122z" />
    <glyph glyph-name="ccedilla" unicode="&#xe7;" horiz-adv-x="556" 
d="M361.5 124.5q25.5 26.5 25.5 73.5h132q0 -96 -54 -149t-148 -60l-3 -22q44 -2 71 -19t27 -49q0 -45 -41.5 -63t-94.5 -18q-56 0 -104 8v49h88q23 0 34 5t11 19q0 12 -9.5 18t-32.5 6h-41l10 69q-97 14 -145.5 80.5t-48.5 190.5q0 140 62.5 207.5t188.5 67.5
q105 0 167.5 -53.5t62.5 -156.5h-138q0 48 -25 74t-70 26q-56 0 -82.5 -39.5t-26.5 -117.5v-16q0 -78 27.5 -117.5t88.5 -39.5q43 0 68.5 26.5z" />
    <glyph glyph-name="ccircumflex" unicode="&#x109;" horiz-adv-x="556" 
d="M38 0zM100.5 55q-62.5 67 -62.5 208q0 140 62.5 207.5t188.5 67.5q105 0 167.5 -53.5t62.5 -156.5h-138q0 48 -25 74t-70 26q-56 0 -82.5 -39.5t-26.5 -117.5v-16q0 -78 27.5 -117.5t88.5 -39.5q43 0 68.5 26.5t25.5 73.5h132q0 -103 -62 -156.5t-168 -53.5
q-126 0 -188.5 67zM217 723h122l105 -135h-111l-55 69l-56 -69h-111z" />
    <glyph glyph-name="cdotaccent" unicode="&#x10b;" horiz-adv-x="556" 
d="M38 0zM100.5 55q-62.5 67 -62.5 208q0 140 62.5 207.5t188.5 67.5q105 0 167.5 -53.5t62.5 -156.5h-138q0 48 -25 74t-70 26q-56 0 -82.5 -39.5t-26.5 -117.5v-16q0 -78 27.5 -117.5t88.5 -39.5q43 0 68.5 26.5t25.5 73.5h132q0 -103 -62 -156.5t-168 -53.5
q-126 0 -188.5 67zM210 724h135v-130h-135v130z" />
    <glyph glyph-name="d" unicode="d" 
d="M92 56.5q-55 68.5 -55 207.5q0 136 55.5 205t147.5 69q53 0 93.5 -19t63.5 -54h6v258h137v-723h-117l-9 69h-7q-25 -40 -67 -60.5t-93 -20.5q-100 0 -155 68.5zM403 254v16q0 149 -112 149q-61 0 -87 -36.5t-26 -110.5v-18q0 -74 26 -110.5t87 -36.5q112 0 112 147z" />
    <glyph glyph-name="eth" unicode="&#xf0;" 
d="M104.5 54.5q-66.5 66.5 -66.5 204.5q0 126 56 197.5t161 71.5q47 0 90 -19l5 4q-27 41 -61 82l-166 -12v73l101 7q-20 19 -64 55l4 5h161q35 -26 60 -49l159 12v-73l-92 -7q62 -74 91.5 -159.5t29.5 -187.5q0 -139 -66.5 -205t-201.5 -66q-134 0 -200.5 66.5zM402 137.5
q30 37.5 30 113.5v16q0 75 -30 112t-97 37t-96.5 -37t-29.5 -112v-16q0 -76 29.5 -113.5t96.5 -37.5t97 37.5z" />
    <glyph glyph-name="dcaron" unicode="&#x10f;" horiz-adv-x="719" 
d="M92 56.5q-55 68.5 -55 207.5q0 136 55.5 205t147.5 69q53 0 93.5 -19t63.5 -54h6v258h137v-723h-117l-9 69h-7q-25 -40 -67 -60.5t-93 -20.5q-100 0 -155 68.5zM648 559h-55v127h138v-115l-66 -129h-72zM403 254v16q0 149 -112 149q-61 0 -87 -36.5t-26 -110.5v-18
q0 -74 26 -110.5t87 -36.5q112 0 112 147z" />
    <glyph glyph-name="dcroat" unicode="&#x111;" 
d="M598 587h-58v-587h-117l-9 69h-7q-25 -40 -67 -60.5t-93 -20.5q-100 0 -155 68.5t-55 207.5q0 136 55.5 205t147.5 69q53 0 93.5 -19t63.5 -54h6v122h-154v71h154v65h137v-65h58v-71zM403 270q0 149 -112 149q-61 0 -87 -36.5t-26 -110.5v-18q0 -74 26 -110.5t87 -36.5
q112 0 112 147v16z" />
    <glyph glyph-name="uni1E0D" unicode="&#x1e0d;" 
d="M37 0zM92 56.5q-55 68.5 -55 207.5q0 136 55.5 205t147.5 69q53 0 93.5 -19t63.5 -54h6v258h137v-723h-117l-9 69h-7q-25 -40 -67 -60.5t-93 -20.5q-100 0 -155 68.5zM403 254v16q0 149 -112 149q-61 0 -87 -36.5t-26 -110.5v-18q0 -74 26 -110.5t87 -36.5q112 0 112 147
zM238 -43h135v-130h-135v130z" />
    <glyph glyph-name="uni01F3" unicode="&#x1f3;" horiz-adv-x="1111" 
d="M37 0zM92 56.5q-55 68.5 -55 207.5q0 136 55.5 205t147.5 69q53 0 93.5 -19t63.5 -54h6v258h137v-723h-117l-9 69h-7q-25 -40 -67 -60.5t-93 -20.5q-100 0 -155 68.5zM403 254v16q0 149 -112 149q-61 0 -87 -36.5t-26 -110.5v-18q0 -74 26 -110.5t87 -36.5q112 0 112 147
zM632 61l249 353h-234v112h433v-60l-250 -354h259v-112h-457v61z" />
    <glyph glyph-name="uni01C6" unicode="&#x1c6;" horiz-adv-x="1111" 
d="M37 0zM92 56.5q-55 68.5 -55 207.5q0 136 55.5 205t147.5 69q53 0 93.5 -19t63.5 -54h6v258h137v-723h-117l-9 69h-7q-25 -40 -67 -60.5t-93 -20.5q-100 0 -155 68.5zM403 254v16q0 149 -112 149q-61 0 -87 -36.5t-26 -110.5v-18q0 -74 26 -110.5t87 -36.5q112 0 112 147
zM632 61l249 353h-234v112h433v-60l-250 -354h259v-112h-457v61zM694 723h111l56 -69l55 69h111l-105 -135h-122z" />
    <glyph glyph-name="e" unicode="e" horiz-adv-x="556" 
d="M98.5 55q-62.5 67 -62.5 208t62.5 208t189.5 67q117 0 175 -67.5t58 -207.5v-32h-346q2 -70 28 -103.5t87 -33.5q43 0 69.5 24t26.5 68h135q0 -99 -64 -148.5t-169 -49.5q-127 0 -189.5 67zM379 322q0 109 -91 109q-52 0 -78.5 -27t-32.5 -82h202z" />
    <glyph glyph-name="eacute" unicode="&#xe9;" horiz-adv-x="556" 
d="M36 0zM98.5 55q-62.5 67 -62.5 208t62.5 208t189.5 67q117 0 175 -67.5t58 -207.5v-32h-346q2 -70 28 -103.5t87 -33.5q43 0 69.5 24t26.5 68h135q0 -99 -64 -148.5t-169 -49.5q-127 0 -189.5 67zM379 322q0 109 -91 109q-52 0 -78.5 -27t-32.5 -82h202zM304 723h133
l1 -3l-108 -129h-105z" />
    <glyph glyph-name="ebreve" unicode="&#x115;" horiz-adv-x="556" 
d="M36 0zM98.5 55q-62.5 67 -62.5 208t62.5 208t189.5 67q117 0 175 -67.5t58 -207.5v-32h-346q2 -70 28 -103.5t87 -33.5q43 0 69.5 24t26.5 68h135q0 -99 -64 -148.5t-169 -49.5q-127 0 -189.5 67zM379 322q0 109 -91 109q-52 0 -78.5 -27t-32.5 -82h202zM186 606
q-36 20 -53 51.5t-17 65.5h90q3 -18 21 -33t50 -15t51 15t21 33h90q0 -34 -17 -65.5t-53.5 -51.5t-91.5 -20t-91 20z" />
    <glyph glyph-name="ecaron" unicode="&#x11b;" horiz-adv-x="556" 
d="M36 0zM98.5 55q-62.5 67 -62.5 208t62.5 208t189.5 67q117 0 175 -67.5t58 -207.5v-32h-346q2 -70 28 -103.5t87 -33.5q43 0 69.5 24t26.5 68h135q0 -99 -64 -148.5t-169 -49.5q-127 0 -189.5 67zM379 322q0 109 -91 109q-52 0 -78.5 -27t-32.5 -82h202zM111 723h111
l56 -69l55 69h111l-105 -135h-122z" />
    <glyph glyph-name="ecircumflex" unicode="&#xea;" horiz-adv-x="556" 
d="M36 0zM98.5 55q-62.5 67 -62.5 208t62.5 208t189.5 67q117 0 175 -67.5t58 -207.5v-32h-346q2 -70 28 -103.5t87 -33.5q43 0 69.5 24t26.5 68h135q0 -99 -64 -148.5t-169 -49.5q-127 0 -189.5 67zM379 322q0 109 -91 109q-52 0 -78.5 -27t-32.5 -82h202zM217 723h122
l105 -135h-111l-55 69l-56 -69h-111z" />
    <glyph glyph-name="uni1EBF" unicode="&#x1ebf;" horiz-adv-x="556" 
d="M36 0zM98.5 55q-62.5 67 -62.5 208t62.5 208t189.5 67q117 0 175 -67.5t58 -207.5v-32h-346q2 -70 28 -103.5t87 -33.5q43 0 69.5 24t26.5 68h135q0 -99 -64 -148.5t-169 -49.5q-127 0 -189.5 67zM379 322q0 109 -91 109q-52 0 -78.5 -27t-32.5 -82h202zM217 723h122
l105 -135h-111l-55 69l-56 -69h-111zM451 818h133l1 -3l-108 -129h-105z" />
    <glyph glyph-name="uni1EC7" unicode="&#x1ec7;" horiz-adv-x="556" 
d="M36 0zM98.5 55q-62.5 67 -62.5 208t62.5 208t189.5 67q117 0 175 -67.5t58 -207.5v-32h-346q2 -70 28 -103.5t87 -33.5q43 0 69.5 24t26.5 68h135q0 -99 -64 -148.5t-169 -49.5q-127 0 -189.5 67zM379 322q0 109 -91 109q-52 0 -78.5 -27t-32.5 -82h202zM217 723h122
l105 -135h-111l-55 69l-56 -69h-111zM210 -43h135v-130h-135v130z" />
    <glyph glyph-name="uni1EC1" unicode="&#x1ec1;" horiz-adv-x="556" 
d="M36 0zM98.5 55q-62.5 67 -62.5 208t62.5 208t189.5 67q117 0 175 -67.5t58 -207.5v-32h-346q2 -70 28 -103.5t87 -33.5q43 0 69.5 24t26.5 68h135q0 -99 -64 -148.5t-169 -49.5q-127 0 -189.5 67zM379 322q0 109 -91 109q-52 0 -78.5 -27t-32.5 -82h202zM217 723h122
l105 -135h-111l-55 69l-56 -69h-111zM304 815l1 3h133l79 -132h-105z" />
    <glyph glyph-name="uni1EC3" unicode="&#x1ec3;" horiz-adv-x="556" 
d="M36 0zM98.5 55q-62.5 67 -62.5 208t62.5 208t189.5 67q117 0 175 -67.5t58 -207.5v-32h-346q2 -70 28 -103.5t87 -33.5q43 0 69.5 24t26.5 68h135q0 -99 -64 -148.5t-169 -49.5q-127 0 -189.5 67zM379 322q0 109 -91 109q-52 0 -78.5 -27t-32.5 -82h202zM217 723h122
l105 -135h-111l-55 69l-56 -69h-111zM391 740h14q18 0 25 4.5t7 14.5q0 11 -8.5 15t-26.5 4h-58v44q38 8 83 8q46 0 81.5 -13.5t35.5 -47.5q0 -27 -24 -41.5t-61 -16.5v-25h-68v54z" />
    <glyph glyph-name="uni1EC5" unicode="&#x1ec5;" horiz-adv-x="556" 
d="M36 0zM98.5 55q-62.5 67 -62.5 208t62.5 208t189.5 67q117 0 175 -67.5t58 -207.5v-32h-346q2 -70 28 -103.5t87 -33.5q43 0 69.5 24t26.5 68h135q0 -99 -64 -148.5t-169 -49.5q-127 0 -189.5 67zM379 322q0 109 -91 109q-52 0 -78.5 -27t-32.5 -82h202zM217 723h122
l105 -135h-111l-55 69l-56 -69h-111zM136.5 848.5q24.5 34.5 73.5 34.5q16 0 30 -4.5t39 -14.5q21 -9 35 -13.5t29 -4.5t23.5 8.5t11.5 28.5h70q0 -53 -24.5 -87.5t-74.5 -34.5q-16 0 -29.5 4.5t-38.5 14.5q-21 9 -35 13.5t-29 4.5q-30 0 -35 -37h-70q0 53 24.5 87.5z" />
    <glyph glyph-name="uni0205" unicode="&#x205;" horiz-adv-x="556" 
d="M36 0zM98.5 55q-62.5 67 -62.5 208t62.5 208t189.5 67q117 0 175 -67.5t58 -207.5v-32h-346q2 -70 28 -103.5t87 -33.5q43 0 69.5 24t26.5 68h135q0 -99 -64 -148.5t-169 -49.5q-127 0 -189.5 67zM379 322q0 109 -91 109q-52 0 -78.5 -27t-32.5 -82h202zM50 720l1 3h133
l79 -132h-105zM225 720l1 3h133l79 -132h-105z" />
    <glyph glyph-name="edieresis" unicode="&#xeb;" horiz-adv-x="556" 
d="M36 0zM98.5 55q-62.5 67 -62.5 208t62.5 208t189.5 67q117 0 175 -67.5t58 -207.5v-32h-346q2 -70 28 -103.5t87 -33.5q43 0 69.5 24t26.5 68h135q0 -99 -64 -148.5t-169 -49.5q-127 0 -189.5 67zM379 322q0 109 -91 109q-52 0 -78.5 -27t-32.5 -82h202zM114 723h118
v-118h-118v118zM324 723h119v-118h-119v118z" />
    <glyph glyph-name="edotaccent" unicode="&#x117;" horiz-adv-x="556" 
d="M36 0zM98.5 55q-62.5 67 -62.5 208t62.5 208t189.5 67q117 0 175 -67.5t58 -207.5v-32h-346q2 -70 28 -103.5t87 -33.5q43 0 69.5 24t26.5 68h135q0 -99 -64 -148.5t-169 -49.5q-127 0 -189.5 67zM379 322q0 109 -91 109q-52 0 -78.5 -27t-32.5 -82h202zM210 724h135
v-130h-135v130z" />
    <glyph glyph-name="uni1EB9" unicode="&#x1eb9;" horiz-adv-x="556" 
d="M36 0zM98.5 55q-62.5 67 -62.5 208t62.5 208t189.5 67q117 0 175 -67.5t58 -207.5v-32h-346q2 -70 28 -103.5t87 -33.5q43 0 69.5 24t26.5 68h135q0 -99 -64 -148.5t-169 -49.5q-127 0 -189.5 67zM379 322q0 109 -91 109q-52 0 -78.5 -27t-32.5 -82h202zM210 -43h135
v-130h-135v130z" />
    <glyph glyph-name="egrave" unicode="&#xe8;" horiz-adv-x="556" 
d="M36 0zM98.5 55q-62.5 67 -62.5 208t62.5 208t189.5 67q117 0 175 -67.5t58 -207.5v-32h-346q2 -70 28 -103.5t87 -33.5q43 0 69.5 24t26.5 68h135q0 -99 -64 -148.5t-169 -49.5q-127 0 -189.5 67zM379 322q0 109 -91 109q-52 0 -78.5 -27t-32.5 -82h202zM117 720l1 3h133
l79 -132h-105z" />
    <glyph glyph-name="uni1EBB" unicode="&#x1ebb;" horiz-adv-x="556" 
d="M36 0zM98.5 55q-62.5 67 -62.5 208t62.5 208t189.5 67q117 0 175 -67.5t58 -207.5v-32h-346q2 -70 28 -103.5t87 -33.5q43 0 69.5 24t26.5 68h135q0 -99 -64 -148.5t-169 -49.5q-127 0 -189.5 67zM379 322q0 109 -91 109q-52 0 -78.5 -27t-32.5 -82h202zM244 645h14
q18 0 25 4.5t7 14.5q0 11 -8.5 15t-26.5 4h-58v44q38 8 83 8q46 0 81.5 -13.5t35.5 -47.5q0 -27 -24 -41.5t-61 -16.5v-25h-68v54z" />
    <glyph glyph-name="uni0207" unicode="&#x207;" horiz-adv-x="556" 
d="M36 0zM98.5 55q-62.5 67 -62.5 208t62.5 208t189.5 67q117 0 175 -67.5t58 -207.5v-32h-346q2 -70 28 -103.5t87 -33.5q43 0 69.5 24t26.5 68h135q0 -99 -64 -148.5t-169 -49.5q-127 0 -189.5 67zM379 322q0 109 -91 109q-52 0 -78.5 -27t-32.5 -82h202zM133 651.5
q17 31.5 53 51.5t91 20t91.5 -20t53.5 -51.5t17 -65.5h-90q-2 18 -21 33t-51 15t-50 -15t-21 -33h-90q0 34 17 65.5z" />
    <glyph glyph-name="emacron" unicode="&#x113;" horiz-adv-x="556" 
d="M36 0zM98.5 55q-62.5 67 -62.5 208t62.5 208t189.5 67q117 0 175 -67.5t58 -207.5v-32h-346q2 -70 28 -103.5t87 -33.5q43 0 69.5 24t26.5 68h135q0 -99 -64 -148.5t-169 -49.5q-127 0 -189.5 67zM379 322q0 109 -91 109q-52 0 -78.5 -27t-32.5 -82h202zM125 699h305v-88
h-305v88z" />
    <glyph glyph-name="eogonek" unicode="&#x119;" horiz-adv-x="556" 
d="M369.5 -158.5q-31.5 23.5 -31.5 75.5q0 44 17 81q-33 -10 -72 -10q-125 0 -186 67t-61 208t62.5 208t189.5 67q117 0 175 -67.5t58 -207.5v-32h-346q2 -70 28 -103.5t87 -33.5q43 0 69.5 24t26.5 68h135q0 -86 -53 -139q-11 -12 -18 -33t-7 -49q0 -78 61 -78h16v-55
q-39 -14 -71 -14q-48 0 -79.5 23.5zM379 322q0 109 -91 109q-52 0 -78.5 -27t-32.5 -82h202z" />
    <glyph glyph-name="uni1EBD" unicode="&#x1ebd;" horiz-adv-x="556" 
d="M36 0zM98.5 55q-62.5 67 -62.5 208t62.5 208t189.5 67q117 0 175 -67.5t58 -207.5v-32h-346q2 -70 28 -103.5t87 -33.5q43 0 69.5 24t26.5 68h135q0 -99 -64 -148.5t-169 -49.5q-127 0 -189.5 67zM379 322q0 109 -91 109q-52 0 -78.5 -27t-32.5 -82h202zM134.5 688.5
q24.5 34.5 73.5 34.5q16 0 30 -4.5t39 -14.5q21 -9 35 -13.5t29 -4.5t23.5 8.5t11.5 28.5h70q0 -53 -24.5 -87.5t-74.5 -34.5q-16 0 -29.5 4.5t-38.5 14.5q-21 9 -35 13.5t-29 4.5q-30 0 -35 -37h-70q0 53 24.5 87.5z" />
    <glyph glyph-name="uni0259" unicode="&#x259;" horiz-adv-x="556" 
d="M94.5 54.5q-58.5 66.5 -58.5 208.5v32h346q-1 68 -27.5 102.5t-83.5 34.5q-47 0 -73.5 -23.5t-26.5 -68.5h-135q0 99 64 148.5t172 49.5q125 0 187 -68t62 -207t-62 -207t-185 -68q-121 0 -179.5 66.5zM380 204h-202q0 -58 24 -83.5t70 -25.5q97 0 108 109z" />
    <glyph glyph-name="f" unicode="f" horiz-adv-x="333" 
d="M84 414h-75v112h75v60q0 62 33 103.5t109 41.5q21 0 46 -5t42 -11v-96h-50q-43 0 -43 -43v-50h93v-112h-93v-414h-137v414z" />
    <glyph glyph-name="g" unicode="g" 
d="M62 -148q-38 34 -38 87q0 70 81 107q-51 26 -51 79q0 33 26 57.5t67 34.5q-77 47 -77 142q0 83 60.5 131t172.5 48q61 0 106 -15q30 19 43.5 45.5t13.5 45.5h134q0 -55 -29.5 -88.5t-83.5 -45.5q50 -47 50 -121q0 -83 -58.5 -131t-167.5 -48h-80q-18 0 -28.5 -8
t-10.5 -22q0 -12 9 -20.5t24 -8.5h239q58 0 97 -39t39 -102q0 -48 -26 -85t-71 -57t-99 -20h-249q-55 0 -93 34zM376 295.5q25 22.5 25 63.5t-25 63.5t-73 22.5t-72.5 -22.5t-24.5 -63.5t24.5 -63.5t72.5 -22.5t73 22.5zM402 -87q26 0 43 13t17 34q0 22 -15.5 34t-38.5 12
h-193q-22 0 -37.5 -13t-15.5 -33q0 -21 15 -34t38 -13h187z" />
    <glyph glyph-name="uni01F5" unicode="&#x1f5;" 
d="M24 0zM62 -148q-38 34 -38 87q0 70 81 107q-51 26 -51 79q0 33 26 57.5t67 34.5q-77 47 -77 142q0 83 60.5 131t172.5 48q61 0 106 -15q30 19 43.5 45.5t13.5 45.5h134q0 -55 -29.5 -88.5t-83.5 -45.5q50 -47 50 -121q0 -83 -58.5 -131t-167.5 -48h-80q-18 0 -28.5 -8
t-10.5 -22q0 -12 9 -20.5t24 -8.5h239q58 0 97 -39t39 -102q0 -48 -26 -85t-71 -57t-99 -20h-249q-55 0 -93 34zM376 295.5q25 22.5 25 63.5t-25 63.5t-73 22.5t-72.5 -22.5t-24.5 -63.5t24.5 -63.5t72.5 -22.5t73 22.5zM402 -87q26 0 43 13t17 34q0 22 -15.5 34t-38.5 12
h-193q-22 0 -37.5 -13t-15.5 -33q0 -21 15 -34t38 -13h187zM332 723h133l1 -3l-108 -129h-105z" />
    <glyph glyph-name="gbreve" unicode="&#x11f;" 
d="M24 0zM62 -148q-38 34 -38 87q0 70 81 107q-51 26 -51 79q0 33 26 57.5t67 34.5q-77 47 -77 142q0 83 60.5 131t172.5 48q61 0 106 -15q30 19 43.5 45.5t13.5 45.5h134q0 -55 -29.5 -88.5t-83.5 -45.5q50 -47 50 -121q0 -83 -58.5 -131t-167.5 -48h-80q-18 0 -28.5 -8
t-10.5 -22q0 -12 9 -20.5t24 -8.5h239q58 0 97 -39t39 -102q0 -48 -26 -85t-71 -57t-99 -20h-249q-55 0 -93 34zM376 295.5q25 22.5 25 63.5t-25 63.5t-73 22.5t-72.5 -22.5t-24.5 -63.5t24.5 -63.5t72.5 -22.5t73 22.5zM402 -87q26 0 43 13t17 34q0 22 -15.5 34t-38.5 12
h-193q-22 0 -37.5 -13t-15.5 -33q0 -21 15 -34t38 -13h187zM214 606q-36 20 -53 51.5t-17 65.5h90q3 -18 21 -33t50 -15t51 15t21 33h90q0 -34 -17 -65.5t-53.5 -51.5t-91.5 -20t-91 20z" />
    <glyph glyph-name="gcaron" unicode="&#x1e7;" 
d="M24 0zM62 -148q-38 34 -38 87q0 70 81 107q-51 26 -51 79q0 33 26 57.5t67 34.5q-77 47 -77 142q0 83 60.5 131t172.5 48q61 0 106 -15q30 19 43.5 45.5t13.5 45.5h134q0 -55 -29.5 -88.5t-83.5 -45.5q50 -47 50 -121q0 -83 -58.5 -131t-167.5 -48h-80q-18 0 -28.5 -8
t-10.5 -22q0 -12 9 -20.5t24 -8.5h239q58 0 97 -39t39 -102q0 -48 -26 -85t-71 -57t-99 -20h-249q-55 0 -93 34zM376 295.5q25 22.5 25 63.5t-25 63.5t-73 22.5t-72.5 -22.5t-24.5 -63.5t24.5 -63.5t72.5 -22.5t73 22.5zM402 -87q26 0 43 13t17 34q0 22 -15.5 34t-38.5 12
h-193q-22 0 -37.5 -13t-15.5 -33q0 -21 15 -34t38 -13h187zM139 723h111l56 -69l55 69h111l-105 -135h-122z" />
    <glyph glyph-name="gcircumflex" unicode="&#x11d;" 
d="M247 723h122l101 -135h-111l-51 69l-52 -69h-111zM62 -148q-38 34 -38 87q0 70 81 107q-51 26 -51 79q0 33 26 57.5t67 34.5q-77 47 -77 142q0 83 60.5 131t172.5 48q61 0 106 -15q31 7 50.5 24t28 36t8.5 31h104q0 -55 -29.5 -88.5t-83.5 -45.5q50 -47 50 -121
q0 -83 -58.5 -131t-167.5 -48h-80q-18 0 -28.5 -8t-10.5 -22q0 -12 9 -20.5t24 -8.5h239q58 0 97 -39t39 -102q0 -48 -26 -85t-71 -57t-99 -20h-249q-55 0 -93 34zM376 295.5q25 22.5 25 63.5t-25 63.5t-73 22.5t-72.5 -22.5t-24.5 -63.5t24.5 -63.5t72.5 -22.5t73 22.5z
M402 -87q26 0 43 13t17 34q0 22 -15.5 34t-38.5 12h-193q-22 0 -37.5 -13t-15.5 -33q0 -21 15 -34t38 -13h187z" />
    <glyph glyph-name="gcommaaccent" unicode="&#x123;" 
d="M237 671l66 109h72l-55 -97h55v-98h-138v86zM62 -148q-38 34 -38 87q0 70 81 107q-51 26 -51 79q0 33 26 57.5t67 34.5q-77 47 -77 142q0 83 60.5 131t172.5 48q61 0 106 -15q30 19 43.5 45.5t13.5 45.5h134q0 -55 -29.5 -88.5t-83.5 -45.5q50 -47 50 -121
q0 -83 -58.5 -131t-167.5 -48h-80q-18 0 -28.5 -8t-10.5 -22q0 -12 9 -20.5t24 -8.5h239q58 0 97 -39t39 -102q0 -48 -26 -85t-71 -57t-99 -20h-249q-55 0 -93 34zM376 295.5q25 22.5 25 63.5t-25 63.5t-73 22.5t-72.5 -22.5t-24.5 -63.5t24.5 -63.5t72.5 -22.5t73 22.5z
M402 -87q26 0 43 13t17 34q0 22 -15.5 34t-38.5 12h-193q-22 0 -37.5 -13t-15.5 -33q0 -21 15 -34t38 -13h187z" />
    <glyph glyph-name="gdotaccent" unicode="&#x121;" 
d="M24 0zM62 -148q-38 34 -38 87q0 70 81 107q-51 26 -51 79q0 33 26 57.5t67 34.5q-77 47 -77 142q0 83 60.5 131t172.5 48q61 0 106 -15q30 19 43.5 45.5t13.5 45.5h134q0 -55 -29.5 -88.5t-83.5 -45.5q50 -47 50 -121q0 -83 -58.5 -131t-167.5 -48h-80q-18 0 -28.5 -8
t-10.5 -22q0 -12 9 -20.5t24 -8.5h239q58 0 97 -39t39 -102q0 -48 -26 -85t-71 -57t-99 -20h-249q-55 0 -93 34zM376 295.5q25 22.5 25 63.5t-25 63.5t-73 22.5t-72.5 -22.5t-24.5 -63.5t24.5 -63.5t72.5 -22.5t73 22.5zM402 -87q26 0 43 13t17 34q0 22 -15.5 34t-38.5 12
h-193q-22 0 -37.5 -13t-15.5 -33q0 -21 15 -34t38 -13h187zM238 724h135v-130h-135v130z" />
    <glyph glyph-name="h" unicode="h" 
d="M71 723h137v-258h7q60 73 154 73q81 0 127.5 -44t46.5 -141v-353h-137v324q0 49 -23 71t-68 22q-46 0 -76.5 -32.5t-30.5 -80.5v-304h-137v723z" />
    <glyph glyph-name="hbar" unicode="&#x127;" 
d="M71 587h-58v71h58v65h137v-65h154v-71h-154v-122h7q60 73 154 73q81 0 127.5 -44t46.5 -141v-353h-137v324q0 49 -23 71t-68 22q-46 0 -76.5 -32.5t-30.5 -80.5v-304h-137v587z" />
    <glyph glyph-name="hcircumflex" unicode="&#x125;" 
d="M0 0zM71 723h137v-258h7q60 73 154 73q81 0 127.5 -44t46.5 -141v-353h-137v324q0 49 -23 71t-68 22q-46 0 -76.5 -32.5t-30.5 -80.5v-304h-137v723zM79 883h122l105 -135h-111l-55 69l-56 -69h-111z" />
    <glyph glyph-name="uni1E25" unicode="&#x1e25;" 
d="M71 0zM71 723h137v-258h7q60 73 154 73q81 0 127.5 -44t46.5 -141v-353h-137v324q0 49 -23 71t-68 22q-46 0 -76.5 -32.5t-30.5 -80.5v-304h-137v723zM238 -43h135v-130h-135v130z" />
    <glyph glyph-name="i" unicode="i" horiz-adv-x="278" 
d="M71 723h137v-124h-137v124zM71 526h137v-526h-137v526z" />
    <glyph glyph-name="dotlessi" unicode="&#x131;" horiz-adv-x="278" 
d="M71 526h137v-526h-137v526z" />
    <glyph glyph-name="iacute" unicode="&#xed;" horiz-adv-x="278" 
d="M150 723h133l1 -3l-108 -129h-105zM71 526h137v-526h-137v526z" />
    <glyph glyph-name="ibreve" unicode="&#x12d;" horiz-adv-x="278" 
d="M50 606q-36 20 -53 51.5t-17 65.5h90q3 -18 21 -33t50 -15t51 15t21 33h90q0 -34 -17 -65.5t-53.5 -51.5t-91.5 -20t-91 20zM71 526h137v-526h-137v526z" />
    <glyph glyph-name="uni01D0" unicode="&#x1d0;" horiz-adv-x="278" 
d="M0 0zM71 526h137v-526h-137v526zM-28 723h111l56 -69l55 69h111l-105 -135h-122z" />
    <glyph glyph-name="icircumflex" unicode="&#xee;" horiz-adv-x="278" 
d="M79 723h122l105 -135h-111l-55 69l-56 -69h-111zM71 526h137v-526h-137v526z" />
    <glyph glyph-name="uni0209" unicode="&#x209;" horiz-adv-x="278" 
d="M0 0zM71 526h137v-526h-137v526zM-89 720l1 3h133l79 -132h-105zM86 720l1 3h133l79 -132h-105z" />
    <glyph glyph-name="idieresis" unicode="&#xef;" horiz-adv-x="278" 
d="M-25 723h118v-118h-118v118zM185 723h119v-118h-119v118zM71 526h137v-526h-137v526z" />
    <glyph glyph-name="i.loclTRK" horiz-adv-x="278" 
d="M71 0zM71 526h137v-526h-137v526zM71 724h135v-130h-135v130z" />
    <glyph glyph-name="uni1ECB" unicode="&#x1ecb;" horiz-adv-x="278" 
d="M71 0zM71 723h137v-124h-137v124zM71 526h137v-526h-137v526zM72 -43h135v-130h-135v130z" />
    <glyph glyph-name="igrave" unicode="&#xec;" horiz-adv-x="278" 
d="M-1 720l1 3h133l79 -132h-105zM71 526h137v-526h-137v526z" />
    <glyph glyph-name="uni1EC9" unicode="&#x1ec9;" horiz-adv-x="278" 
d="M58 0zM71 526h137v-526h-137v526zM105 645h14q18 0 25 4.5t7 14.5q0 11 -8.5 15t-26.5 4h-58v44q38 8 83 8q46 0 81.5 -13.5t35.5 -47.5q0 -27 -24 -41.5t-61 -16.5v-25h-68v54z" />
    <glyph glyph-name="uni020B" unicode="&#x20b;" horiz-adv-x="278" 
d="M0 0zM71 526h137v-526h-137v526zM-6 651.5q17 31.5 53 51.5t91 20t91.5 -20t53.5 -51.5t17 -65.5h-90q-2 18 -21 33t-51 15t-50 -15t-21 -33h-90q0 34 17 65.5z" />
    <glyph glyph-name="ij" unicode="&#x133;" horiz-adv-x="556" 
d="M71 0zM71 723h137v-124h-137v124zM71 526h137v-526h-137v526zM349 723h137v-124h-137v124zM298.5 -177q-27.5 5 -44.5 11v96h52q43 0 43 43v553h137v-567q0 -61 -32 -101t-106 -40q-22 0 -49.5 5z" />
    <glyph glyph-name="imacron" unicode="&#x12b;" horiz-adv-x="278" 
d="M-13 727h305v-88h-305v88zM71 526h137v-526h-137v526z" />
    <glyph glyph-name="iogonek" unicode="&#x12f;" horiz-adv-x="278" 
d="M206 594h-135v130h135v-130zM158 0q-12 -13 -22 -32t-10 -38q0 -22 12 -36.5t36 -14.5h24v-55q-39 -14 -71 -14q-44 0 -75 21t-31 67q0 33 13 57t37 48v523h137v-526h-50z" />
    <glyph glyph-name="itilde" unicode="&#x129;" horiz-adv-x="278" 
d="M-4.5 688.5q24.5 34.5 73.5 34.5q16 0 30 -4.5t39 -14.5q21 -9 35 -13.5t29 -4.5t23.5 8.5t11.5 28.5h70q0 -53 -24.5 -87.5t-74.5 -34.5q-16 0 -29.5 4.5t-38.5 14.5q-21 9 -35 13.5t-29 4.5q-30 0 -35 -37h-70q0 53 24.5 87.5zM71 526h137v-526h-137v526z" />
    <glyph glyph-name="j" unicode="j" horiz-adv-x="278" 
d="M71 723h137v-124h-137v124zM20.5 -177q-27.5 5 -44.5 11v96h52q43 0 43 43v553h137v-567q0 -61 -32 -101t-106 -40q-22 0 -49.5 5z" />
    <glyph glyph-name="uni0237" unicode="&#x237;" horiz-adv-x="278" 
d="M20.5 -177q-27.5 5 -44.5 11v96h52q43 0 43 43v553h137v-567q0 -61 -32 -101t-106 -40q-22 0 -49.5 5z" />
    <glyph glyph-name="jcircumflex" unicode="&#x135;" horiz-adv-x="278" 
d="M79 723h122l105 -135h-111l-55 69l-56 -69h-111zM20.5 -177q-27.5 5 -44.5 11v96h52q43 0 43 43v553h137v-567q0 -61 -32 -101t-106 -40q-22 0 -49.5 5z" />
    <glyph glyph-name="k" unicode="k" horiz-adv-x="556" 
d="M71 723h137v-406l174 209h158l-174 -202l184 -324h-157l-115 223l-70 -68v-155h-137v723z" />
    <glyph glyph-name="kcommaaccent" unicode="&#x137;" horiz-adv-x="556" 
d="M71 0zM71 723h137v-406l174 209h158l-174 -202l184 -324h-157l-115 223l-70 -68v-155h-137v723zM287 -138h-55v98h138v-86l-63 -104h-72z" />
    <glyph glyph-name="kgreenlandic" unicode="&#x138;" horiz-adv-x="556" 
d="M71 526h137v-209l174 209h158l-174 -202l184 -324h-157l-115 223l-70 -68v-155h-137v526z" />
    <glyph glyph-name="l" unicode="l" horiz-adv-x="278" 
d="M71 723h137v-723h-137v723z" />
    <glyph glyph-name="lacute" unicode="&#x13a;" horiz-adv-x="278" 
d="M71 0zM71 723h137v-723h-137v723zM165 883h133l1 -3l-108 -129h-105z" />
    <glyph glyph-name="lcaron" unicode="&#x13e;" horiz-adv-x="385" 
d="M71 723h137v-723h-137v723zM316 559h-55v127h138v-115l-66 -129h-72z" />
    <glyph glyph-name="lcommaaccent" unicode="&#x13c;" horiz-adv-x="278" 
d="M70 0zM71 723h137v-723h-137v723zM125 -138h-55v98h138v-86l-63 -104h-72z" />
    <glyph glyph-name="ldot" unicode="&#x140;" horiz-adv-x="368" 
d="M71 0zM71 723h137v-723h-137v723zM257 426h138v-137h-138v137z" />
    <glyph glyph-name="uni01C9" unicode="&#x1c9;" horiz-adv-x="556" 
d="M71 0zM71 723h137v-723h-137v723zM349 723h137v-124h-137v124zM298.5 -177q-27.5 5 -44.5 11v96h52q43 0 43 43v553h137v-567q0 -61 -32 -101t-106 -40q-22 0 -49.5 5z" />
    <glyph glyph-name="lslash" unicode="&#x142;" horiz-adv-x="278" 
d="M71 250l-71 -48v102l71 48v371h137v-277l70 48v-102l-70 -48v-344h-137v250z" />
    <glyph glyph-name="m" unicode="m" horiz-adv-x="889" 
d="M71 526h117l10 -69h7q58 81 150 81q100 0 138 -81h8q60 81 156 81q75 0 119.5 -44t44.5 -141v-353h-137v324q0 93 -77 93q-40 0 -66 -32.5t-26 -80.5v-304h-137v324q0 93 -77 93q-40 0 -66.5 -32.5t-26.5 -80.5v-304h-137v526z" />
    <glyph glyph-name="n" unicode="n" 
d="M71 526h117l10 -69h7q64 81 164 81q81 0 127.5 -44t46.5 -141v-353h-137v324q0 49 -23 71t-68 22q-46 0 -76.5 -32.5t-30.5 -80.5v-304h-137v526z" />
    <glyph glyph-name="nacute" unicode="&#x144;" 
d="M71 0zM71 526h117l10 -69h7q64 81 164 81q81 0 127.5 -44t46.5 -141v-353h-137v324q0 49 -23 71t-68 22q-46 0 -76.5 -32.5t-30.5 -80.5v-304h-137v526zM332 723h133l1 -3l-108 -129h-105z" />
    <glyph glyph-name="napostrophe" unicode="&#x149;" horiz-adv-x="708" 
d="M52 559h-55v127h138v-115l-66 -129h-72zM168 526h117l10 -69h7q64 81 164 81q81 0 127.5 -44t46.5 -141v-353h-137v324q0 49 -23 71t-68 22q-46 0 -76.5 -32.5t-30.5 -80.5v-304h-137v526z" />
    <glyph glyph-name="ncaron" unicode="&#x148;" 
d="M71 0zM71 526h117l10 -69h7q64 81 164 81q81 0 127.5 -44t46.5 -141v-353h-137v324q0 49 -23 71t-68 22q-46 0 -76.5 -32.5t-30.5 -80.5v-304h-137v526zM139 723h111l56 -69l55 69h111l-105 -135h-122z" />
    <glyph glyph-name="ncommaaccent" unicode="&#x146;" 
d="M71 0zM71 526h117l10 -69h7q64 81 164 81q81 0 127.5 -44t46.5 -141v-353h-137v324q0 49 -23 71t-68 22q-46 0 -76.5 -32.5t-30.5 -80.5v-304h-137v526zM292 -138h-55v98h138v-86l-63 -104h-72z" />
    <glyph glyph-name="uni1E45" unicode="&#x1e45;" 
d="M71 0zM71 526h117l10 -69h7q64 81 164 81q81 0 127.5 -44t46.5 -141v-353h-137v324q0 49 -23 71t-68 22q-46 0 -76.5 -32.5t-30.5 -80.5v-304h-137v526zM238 724h135v-130h-135v130z" />
    <glyph glyph-name="eng" unicode="&#x14b;" 
d="M355.5 -177q-27.5 5 -44.5 11v96h52q43 0 43 43v351q0 49 -23 71t-68 22q-46 0 -76.5 -32.5t-30.5 -80.5v-304h-137v526h117l10 -69h7q64 81 164 81q81 0 127.5 -44t46.5 -141v-394q0 -61 -32 -101t-106 -40q-22 0 -49.5 5z" />
    <glyph glyph-name="uni0272" unicode="&#x272;" 
d="M20.5 -177q-27.5 5 -44.5 11v96h52q43 0 43 43v553h117l10 -69h7q64 81 164 81q81 0 127.5 -44t46.5 -141v-353h-137v324q0 49 -23 71t-68 22q-46 0 -76.5 -32.5t-30.5 -80.5v-345q0 -61 -32 -101t-106 -40q-22 0 -49.5 5z" />
    <glyph glyph-name="uni01CC" unicode="&#x1cc;" horiz-adv-x="889" 
d="M71 0zM71 526h117l10 -69h7q64 81 164 81q81 0 127.5 -44t46.5 -141v-353h-137v324q0 49 -23 71t-68 22q-46 0 -76.5 -32.5t-30.5 -80.5v-304h-137v526zM682 723h137v-124h-137v124zM631.5 -177q-27.5 5 -44.5 11v96h52q43 0 43 43v553h137v-567q0 -61 -32 -101t-106 -40
q-22 0 -49.5 5z" />
    <glyph glyph-name="ntilde" unicode="&#xf1;" 
d="M71 0zM71 526h117l10 -69h7q64 81 164 81q81 0 127.5 -44t46.5 -141v-353h-137v324q0 49 -23 71t-68 22q-46 0 -76.5 -32.5t-30.5 -80.5v-304h-137v526zM162.5 688.5q24.5 34.5 73.5 34.5q16 0 30 -4.5t39 -14.5q21 -9 35 -13.5t29 -4.5t23.5 8.5t11.5 28.5h70
q0 -53 -24.5 -87.5t-74.5 -34.5q-16 0 -29.5 4.5t-38.5 14.5q-21 9 -35 13.5t-29 4.5q-30 0 -35 -37h-70q0 53 24.5 87.5z" />
    <glyph glyph-name="o" unicode="o" 
d="M104 55q-66 67 -66 208t66 208t201 67t201.5 -67t66.5 -208t-66.5 -208t-201.5 -67t-201 67zM402 138.5q30 38.5 30 116.5v16q0 78 -30 116.5t-97 38.5t-96.5 -38.5t-29.5 -116.5v-16q0 -78 29.5 -116.5t96.5 -38.5t97 38.5z" />
    <glyph glyph-name="oacute" unicode="&#xf3;" 
d="M38 0zM104 55q-66 67 -66 208t66 208t201 67t201.5 -67t66.5 -208t-66.5 -208t-201.5 -67t-201 67zM402 138.5q30 38.5 30 116.5v16q0 78 -30 116.5t-97 38.5t-96.5 -38.5t-29.5 -116.5v-16q0 -78 29.5 -116.5t96.5 -38.5t97 38.5zM332 723h133l1 -3l-108 -129h-105z" />
    <glyph glyph-name="obreve" unicode="&#x14f;" 
d="M38 0zM104 55q-66 67 -66 208t66 208t201 67t201.5 -67t66.5 -208t-66.5 -208t-201.5 -67t-201 67zM402 138.5q30 38.5 30 116.5v16q0 78 -30 116.5t-97 38.5t-96.5 -38.5t-29.5 -116.5v-16q0 -78 29.5 -116.5t96.5 -38.5t97 38.5zM214 606q-36 20 -53 51.5t-17 65.5h90
q3 -18 21 -33t50 -15t51 15t21 33h90q0 -34 -17 -65.5t-53.5 -51.5t-91.5 -20t-91 20z" />
    <glyph glyph-name="uni01D2" unicode="&#x1d2;" 
d="M38 0zM104 55q-66 67 -66 208t66 208t201 67t201.5 -67t66.5 -208t-66.5 -208t-201.5 -67t-201 67zM402 138.5q30 38.5 30 116.5v16q0 78 -30 116.5t-97 38.5t-96.5 -38.5t-29.5 -116.5v-16q0 -78 29.5 -116.5t96.5 -38.5t97 38.5zM139 723h111l56 -69l55 69h111
l-105 -135h-122z" />
    <glyph glyph-name="ocircumflex" unicode="&#xf4;" 
d="M38 0zM104 55q-66 67 -66 208t66 208t201 67t201.5 -67t66.5 -208t-66.5 -208t-201.5 -67t-201 67zM402 138.5q30 38.5 30 116.5v16q0 78 -30 116.5t-97 38.5t-96.5 -38.5t-29.5 -116.5v-16q0 -78 29.5 -116.5t96.5 -38.5t97 38.5zM245 723h122l105 -135h-111l-55 69
l-56 -69h-111z" />
    <glyph glyph-name="uni1ED1" unicode="&#x1ed1;" 
d="M38 0zM104 55q-66 67 -66 208t66 208t201 67t201.5 -67t66.5 -208t-66.5 -208t-201.5 -67t-201 67zM402 138.5q30 38.5 30 116.5v16q0 78 -30 116.5t-97 38.5t-96.5 -38.5t-29.5 -116.5v-16q0 -78 29.5 -116.5t96.5 -38.5t97 38.5zM245 723h122l105 -135h-111l-55 69
l-56 -69h-111zM479 818h133l1 -3l-108 -129h-105z" />
    <glyph glyph-name="uni1ED9" unicode="&#x1ed9;" 
d="M38 0zM104 55q-66 67 -66 208t66 208t201 67t201.5 -67t66.5 -208t-66.5 -208t-201.5 -67t-201 67zM402 138.5q30 38.5 30 116.5v16q0 78 -30 116.5t-97 38.5t-96.5 -38.5t-29.5 -116.5v-16q0 -78 29.5 -116.5t96.5 -38.5t97 38.5zM245 723h122l105 -135h-111l-55 69
l-56 -69h-111zM238 -43h135v-130h-135v130z" />
    <glyph glyph-name="uni1ED3" unicode="&#x1ed3;" 
d="M38 0zM104 55q-66 67 -66 208t66 208t201 67t201.5 -67t66.5 -208t-66.5 -208t-201.5 -67t-201 67zM402 138.5q30 38.5 30 116.5v16q0 78 -30 116.5t-97 38.5t-96.5 -38.5t-29.5 -116.5v-16q0 -78 29.5 -116.5t96.5 -38.5t97 38.5zM245 723h122l105 -135h-111l-55 69
l-56 -69h-111zM332 815l1 3h133l79 -132h-105z" />
    <glyph glyph-name="uni1ED5" unicode="&#x1ed5;" 
d="M38 0zM104 55q-66 67 -66 208t66 208t201 67t201.5 -67t66.5 -208t-66.5 -208t-201.5 -67t-201 67zM402 138.5q30 38.5 30 116.5v16q0 78 -30 116.5t-97 38.5t-96.5 -38.5t-29.5 -116.5v-16q0 -78 29.5 -116.5t96.5 -38.5t97 38.5zM245 723h122l105 -135h-111l-55 69
l-56 -69h-111zM419 740h14q18 0 25 4.5t7 14.5q0 11 -8.5 15t-26.5 4h-58v44q38 8 83 8q46 0 81.5 -13.5t35.5 -47.5q0 -27 -24 -41.5t-61 -16.5v-25h-68v54z" />
    <glyph glyph-name="uni1ED7" unicode="&#x1ed7;" 
d="M38 0zM104 55q-66 67 -66 208t66 208t201 67t201.5 -67t66.5 -208t-66.5 -208t-201.5 -67t-201 67zM402 138.5q30 38.5 30 116.5v16q0 78 -30 116.5t-97 38.5t-96.5 -38.5t-29.5 -116.5v-16q0 -78 29.5 -116.5t96.5 -38.5t97 38.5zM245 723h122l105 -135h-111l-55 69
l-56 -69h-111zM164.5 848.5q24.5 34.5 73.5 34.5q16 0 30 -4.5t39 -14.5q21 -9 35 -13.5t29 -4.5t23.5 8.5t11.5 28.5h70q0 -53 -24.5 -87.5t-74.5 -34.5q-16 0 -29.5 4.5t-38.5 14.5q-21 9 -35 13.5t-29 4.5q-30 0 -35 -37h-70q0 53 24.5 87.5z" />
    <glyph glyph-name="uni020D" unicode="&#x20d;" 
d="M38 0zM104 55q-66 67 -66 208t66 208t201 67t201.5 -67t66.5 -208t-66.5 -208t-201.5 -67t-201 67zM402 138.5q30 38.5 30 116.5v16q0 78 -30 116.5t-97 38.5t-96.5 -38.5t-29.5 -116.5v-16q0 -78 29.5 -116.5t96.5 -38.5t97 38.5zM78 720l1 3h133l79 -132h-105zM253 720
l1 3h133l79 -132h-105z" />
    <glyph glyph-name="odieresis" unicode="&#xf6;" 
d="M38 0zM104 55q-66 67 -66 208t66 208t201 67t201.5 -67t66.5 -208t-66.5 -208t-201.5 -67t-201 67zM402 138.5q30 38.5 30 116.5v16q0 78 -30 116.5t-97 38.5t-96.5 -38.5t-29.5 -116.5v-16q0 -78 29.5 -116.5t96.5 -38.5t97 38.5zM142 723h118v-118h-118v118zM352 723
h119v-118h-119v118z" />
    <glyph glyph-name="uni1ECD" unicode="&#x1ecd;" 
d="M38 0zM104 55q-66 67 -66 208t66 208t201 67t201.5 -67t66.5 -208t-66.5 -208t-201.5 -67t-201 67zM402 138.5q30 38.5 30 116.5v16q0 78 -30 116.5t-97 38.5t-96.5 -38.5t-29.5 -116.5v-16q0 -78 29.5 -116.5t96.5 -38.5t97 38.5zM238 -43h135v-130h-135v130z" />
    <glyph glyph-name="ograve" unicode="&#xf2;" 
d="M38 0zM104 55q-66 67 -66 208t66 208t201 67t201.5 -67t66.5 -208t-66.5 -208t-201.5 -67t-201 67zM402 138.5q30 38.5 30 116.5v16q0 78 -30 116.5t-97 38.5t-96.5 -38.5t-29.5 -116.5v-16q0 -78 29.5 -116.5t96.5 -38.5t97 38.5zM145 720l1 3h133l79 -132h-105z" />
    <glyph glyph-name="uni1ECF" unicode="&#x1ecf;" 
d="M38 0zM104 55q-66 67 -66 208t66 208t201 67t201.5 -67t66.5 -208t-66.5 -208t-201.5 -67t-201 67zM402 138.5q30 38.5 30 116.5v16q0 78 -30 116.5t-97 38.5t-96.5 -38.5t-29.5 -116.5v-16q0 -78 29.5 -116.5t96.5 -38.5t97 38.5zM272 645h14q18 0 25 4.5t7 14.5
q0 11 -8.5 15t-26.5 4h-58v44q38 8 83 8q46 0 81.5 -13.5t35.5 -47.5q0 -27 -24 -41.5t-61 -16.5v-25h-68v54z" />
    <glyph glyph-name="ohorn" unicode="&#x1a1;" 
d="M670 686v-54q0 -84 -31.5 -133.5t-98.5 -72.5q33 -63 33 -163q0 -141 -66.5 -208t-201.5 -67t-201 67t-66 208t66 208t201 67q124 0 190 -56q67 18 86 67h-69v137h158zM432 271q0 78 -30 116.5t-97 38.5t-96.5 -38.5t-29.5 -116.5v-16q0 -78 29.5 -116.5t96.5 -38.5
t97 38.5t30 116.5v16z" />
    <glyph glyph-name="uni1EDB" unicode="&#x1edb;" 
d="M38 0zM670 686v-54q0 -84 -31.5 -133.5t-98.5 -72.5q33 -63 33 -163q0 -141 -66.5 -208t-201.5 -67t-201 67t-66 208t66 208t201 67q124 0 190 -56q67 18 86 67h-69v137h158zM432 271q0 78 -30 116.5t-97 38.5t-96.5 -38.5t-29.5 -116.5v-16q0 -78 29.5 -116.5
t96.5 -38.5t97 38.5t30 116.5v16zM332 723h133l1 -3l-108 -129h-105z" />
    <glyph glyph-name="uni1EE3" unicode="&#x1ee3;" 
d="M38 0zM670 686v-54q0 -84 -31.5 -133.5t-98.5 -72.5q33 -63 33 -163q0 -141 -66.5 -208t-201.5 -67t-201 67t-66 208t66 208t201 67q124 0 190 -56q67 18 86 67h-69v137h158zM432 271q0 78 -30 116.5t-97 38.5t-96.5 -38.5t-29.5 -116.5v-16q0 -78 29.5 -116.5
t96.5 -38.5t97 38.5t30 116.5v16zM238 -43h135v-130h-135v130z" />
    <glyph glyph-name="uni1EDD" unicode="&#x1edd;" 
d="M38 0zM670 686v-54q0 -84 -31.5 -133.5t-98.5 -72.5q33 -63 33 -163q0 -141 -66.5 -208t-201.5 -67t-201 67t-66 208t66 208t201 67q124 0 190 -56q67 18 86 67h-69v137h158zM432 271q0 78 -30 116.5t-97 38.5t-96.5 -38.5t-29.5 -116.5v-16q0 -78 29.5 -116.5
t96.5 -38.5t97 38.5t30 116.5v16zM145 720l1 3h133l79 -132h-105z" />
    <glyph glyph-name="uni1EDF" unicode="&#x1edf;" 
d="M38 0zM670 686v-54q0 -84 -31.5 -133.5t-98.5 -72.5q33 -63 33 -163q0 -141 -66.5 -208t-201.5 -67t-201 67t-66 208t66 208t201 67q124 0 190 -56q67 18 86 67h-69v137h158zM432 271q0 78 -30 116.5t-97 38.5t-96.5 -38.5t-29.5 -116.5v-16q0 -78 29.5 -116.5
t96.5 -38.5t97 38.5t30 116.5v16zM272 645h14q18 0 25 4.5t7 14.5q0 11 -8.5 15t-26.5 4h-58v44q38 8 83 8q46 0 81.5 -13.5t35.5 -47.5q0 -27 -24 -41.5t-61 -16.5v-25h-68v54z" />
    <glyph glyph-name="uni1EE1" unicode="&#x1ee1;" 
d="M38 0zM670 686v-54q0 -84 -31.5 -133.5t-98.5 -72.5q33 -63 33 -163q0 -141 -66.5 -208t-201.5 -67t-201 67t-66 208t66 208t201 67q124 0 190 -56q67 18 86 67h-69v137h158zM432 271q0 78 -30 116.5t-97 38.5t-96.5 -38.5t-29.5 -116.5v-16q0 -78 29.5 -116.5
t96.5 -38.5t97 38.5t30 116.5v16zM162.5 688.5q24.5 34.5 73.5 34.5q16 0 30 -4.5t39 -14.5q21 -9 35 -13.5t29 -4.5t23.5 8.5t11.5 28.5h70q0 -53 -24.5 -87.5t-74.5 -34.5q-16 0 -29.5 4.5t-38.5 14.5q-21 9 -35 13.5t-29 4.5q-30 0 -35 -37h-70q0 53 24.5 87.5z" />
    <glyph glyph-name="ohungarumlaut" unicode="&#x151;" 
d="M38 0zM104 55q-66 67 -66 208t66 208t201 67t201.5 -67t66.5 -208t-66.5 -208t-201.5 -67t-201 67zM402 138.5q30 38.5 30 116.5v16q0 78 -30 116.5t-97 38.5t-96.5 -38.5t-29.5 -116.5v-16q0 -78 29.5 -116.5t96.5 -38.5t97 38.5zM245 723h133l1 -3l-108 -129h-105z
M420 723h133l1 -3l-108 -129h-105z" />
    <glyph glyph-name="uni020F" unicode="&#x20f;" 
d="M38 0zM104 55q-66 67 -66 208t66 208t201 67t201.5 -67t66.5 -208t-66.5 -208t-201.5 -67t-201 67zM402 138.5q30 38.5 30 116.5v16q0 78 -30 116.5t-97 38.5t-96.5 -38.5t-29.5 -116.5v-16q0 -78 29.5 -116.5t96.5 -38.5t97 38.5zM161 651.5q17 31.5 53 51.5t91 20
t91.5 -20t53.5 -51.5t17 -65.5h-90q-2 18 -21 33t-51 15t-50 -15t-21 -33h-90q0 34 17 65.5z" />
    <glyph glyph-name="omacron" unicode="&#x14d;" 
d="M38 0zM104 55q-66 67 -66 208t66 208t201 67t201.5 -67t66.5 -208t-66.5 -208t-201.5 -67t-201 67zM402 138.5q30 38.5 30 116.5v16q0 78 -30 116.5t-97 38.5t-96.5 -38.5t-29.5 -116.5v-16q0 -78 29.5 -116.5t96.5 -38.5t97 38.5zM153 699h305v-88h-305v88z" />
    <glyph glyph-name="uni01EB" unicode="&#x1eb;" 
d="M537 96q-36 -63 -108 -89q-12 -14 -21.5 -32.5t-9.5 -36.5q0 -22 12 -36.5t36 -14.5h24v-55q-39 -14 -71 -14q-44 0 -75 21t-31 67q0 44 29 82h-17q-135 0 -201 67t-66 208t66 208t201 67t201.5 -67t66.5 -208q0 -104 -36 -167zM208.5 138.5q29.5 -38.5 96.5 -38.5
t97 38.5t30 116.5v16q0 78 -30 116.5t-97 38.5t-96.5 -38.5t-29.5 -116.5v-16q0 -78 29.5 -116.5z" />
    <glyph glyph-name="oslash" unicode="&#xf8;" 
d="M112 47q-74 68 -74 216q0 141 66 208t201 67q78 0 135 -23l42 60h84l-68 -97q75 -67 75 -215q0 -141 -66.5 -208t-201.5 -67q-76 0 -134 22l-41 -59h-85zM369 413q-28 13 -64 13q-67 0 -96.5 -38.5t-29.5 -116.5v-16q0 -55 15 -91zM402 138.5q30 38.5 30 116.5v16
q0 55 -15 91l-175 -250q26 -12 63 -12q67 0 97 38.5z" />
    <glyph glyph-name="oslashacute" unicode="&#x1ff;" 
d="M38 0zM112 47q-74 68 -74 216q0 141 66 208t201 67q78 0 135 -23l42 60h84l-68 -97q75 -67 75 -215q0 -141 -66.5 -208t-201.5 -67q-76 0 -134 22l-41 -59h-85zM369 413q-28 13 -64 13q-67 0 -96.5 -38.5t-29.5 -116.5v-16q0 -55 15 -91zM402 138.5q30 38.5 30 116.5v16
q0 55 -15 91l-175 -250q26 -12 63 -12q67 0 97 38.5zM332 723h133l1 -3l-108 -129h-105z" />
    <glyph glyph-name="otilde" unicode="&#xf5;" 
d="M38 0zM104 55q-66 67 -66 208t66 208t201 67t201.5 -67t66.5 -208t-66.5 -208t-201.5 -67t-201 67zM402 138.5q30 38.5 30 116.5v16q0 78 -30 116.5t-97 38.5t-96.5 -38.5t-29.5 -116.5v-16q0 -78 29.5 -116.5t96.5 -38.5t97 38.5zM162.5 688.5q24.5 34.5 73.5 34.5
q16 0 30 -4.5t39 -14.5q21 -9 35 -13.5t29 -4.5t23.5 8.5t11.5 28.5h70q0 -53 -24.5 -87.5t-74.5 -34.5q-16 0 -29.5 4.5t-38.5 14.5q-21 9 -35 13.5t-29 4.5q-30 0 -35 -37h-70q0 53 24.5 87.5z" />
    <glyph glyph-name="oe" unicode="&#x153;" horiz-adv-x="944" 
d="M103.5 55q-65.5 67 -65.5 208t65.5 208t197.5 67q126 0 192 -70q63 70 183 70q117 0 175 -67.5t58 -207.5v-32h-346q2 -70 28 -103.5t87 -33.5q43 0 69.5 24t26.5 68h135q0 -99 -64 -148.5t-169 -49.5q-120 0 -183 69q-66 -69 -192 -69q-132 0 -197.5 67zM767 322
q0 109 -91 109q-52 0 -78.5 -27t-32.5 -82h202zM395 138.5q29 38.5 29 116.5v16q0 78 -29 116.5t-94 38.5q-64 0 -93 -38.5t-29 -116.5v-16q0 -78 29 -116.5t93 -38.5q65 0 94 38.5z" />
    <glyph glyph-name="p" unicode="p" 
d="M71 526h117l9 -69h7q25 40 67 60.5t93 20.5q100 0 155 -68.5t55 -207.5q0 -136 -55.5 -205t-147.5 -69q-53 0 -93.5 19t-63.5 54h-6v-234h-137v699zM407 143.5q26 36.5 26 110.5v18q0 74 -26 110.5t-87 36.5q-112 0 -112 -147v-16q0 -149 112 -149q61 0 87 36.5z" />
    <glyph glyph-name="thorn" unicode="&#xfe;" 
d="M71 737h137v-272h6q23 35 63.5 54t93.5 19q94 0 148.5 -68.5t54.5 -207.5q0 -136 -55.5 -205t-147.5 -69q-53 0 -93.5 19t-63.5 54h-6v-234h-137v910zM407 143.5q26 36.5 26 110.5v18q0 74 -26 110.5t-87 36.5q-112 0 -112 -147v-16q0 -149 112 -149q61 0 87 36.5z" />
    <glyph glyph-name="q" unicode="q" 
d="M403 61h-6q-23 -35 -63.5 -54t-93.5 -19q-92 0 -147.5 69t-55.5 205q0 139 55 207.5t155 68.5q51 0 93 -20.5t67 -60.5h7l9 69h117v-699h-137v234zM403 256v16q0 147 -112 147q-61 0 -87 -36.5t-26 -110.5v-18q0 -74 26 -110.5t87 -36.5q112 0 112 149z" />
    <glyph glyph-name="r" unicode="r" horiz-adv-x="389" 
d="M71 526h117l11 -85h7q17 45 44 71t71 26q19 0 33.5 -3.5t18.5 -5.5v-128h-38q-67 0 -97 -36.5t-30 -110.5v-254h-137v526z" />
    <glyph glyph-name="racute" unicode="&#x155;" horiz-adv-x="389" 
d="M71 0zM71 526h117l11 -85h7q17 45 44 71t71 26q19 0 33.5 -3.5t18.5 -5.5v-128h-38q-67 0 -97 -36.5t-30 -110.5v-254h-137v526zM221 723h133l1 -3l-108 -129h-105z" />
    <glyph glyph-name="rcaron" unicode="&#x159;" horiz-adv-x="389" 
d="M28 0zM71 526h117l11 -85h7q17 45 44 71t71 26q19 0 33.5 -3.5t18.5 -5.5v-128h-38q-67 0 -97 -36.5t-30 -110.5v-254h-137v526zM28 723h111l56 -69l55 69h111l-105 -135h-122z" />
    <glyph glyph-name="rcommaaccent" unicode="&#x157;" horiz-adv-x="389" 
d="M71 0zM71 526h117l11 -85h7q17 45 44 71t71 26q19 0 33.5 -3.5t18.5 -5.5v-128h-38q-67 0 -97 -36.5t-30 -110.5v-254h-137v526zM126 -138h-55v98h138v-86l-63 -104h-72z" />
    <glyph glyph-name="uni0211" unicode="&#x211;" horiz-adv-x="389" 
d="M0 0zM71 526h117l11 -85h7q17 45 44 71t71 26q19 0 33.5 -3.5t18.5 -5.5v-128h-38q-67 0 -97 -36.5t-30 -110.5v-254h-137v526zM-33 720l1 3h133l79 -132h-105zM142 720l1 3h133l79 -132h-105z" />
    <glyph glyph-name="uni1E5B" unicode="&#x1e5b;" horiz-adv-x="389" 
d="M71 0zM71 526h117l11 -85h7q17 45 44 71t71 26q19 0 33.5 -3.5t18.5 -5.5v-128h-38q-67 0 -97 -36.5t-30 -110.5v-254h-137v526zM72 -43h135v-130h-135v130z" />
    <glyph glyph-name="uni0213" unicode="&#x213;" horiz-adv-x="389" 
d="M33 0zM71 526h117l11 -85h7q17 45 44 71t71 26q19 0 33.5 -3.5t18.5 -5.5v-128h-38q-67 0 -97 -36.5t-30 -110.5v-254h-137v526zM50 651.5q17 31.5 53 51.5t91 20t91.5 -20t53.5 -51.5t17 -65.5h-90q-2 18 -21 33t-51 15t-50 -15t-21 -33h-90q0 34 17 65.5z" />
    <glyph glyph-name="s" unicode="s" horiz-adv-x="556" 
d="M108.5 33.5q-62.5 45.5 -62.5 121.5l1 12h133v-7q1 -35 31.5 -50.5t74.5 -15.5q41 0 70 11t29 36q0 28 -29.5 42t-92.5 28q-65 15 -106 30.5t-71 48.5t-30 88q0 77 64.5 118.5t166.5 41.5q95 0 157 -38.5t62 -104.5l-1 -23h-133v2q-1 29 -25 43.5t-65 14.5t-65 -11
t-24 -31q0 -25 27.5 -37t88.5 -24q67 -15 109 -30t73 -49t31 -92q0 -170 -241 -170q-110 0 -172.5 45.5z" />
    <glyph glyph-name="sacute" unicode="&#x15b;" horiz-adv-x="556" 
d="M46 0zM108.5 33.5q-62.5 45.5 -62.5 121.5l1 12h133v-7q1 -35 31.5 -50.5t74.5 -15.5q41 0 70 11t29 36q0 28 -29.5 42t-92.5 28q-65 15 -106 30.5t-71 48.5t-30 88q0 77 64.5 118.5t166.5 41.5q95 0 157 -38.5t62 -104.5l-1 -23h-133v2q-1 29 -25 43.5t-65 14.5t-65 -11
t-24 -31q0 -25 27.5 -37t88.5 -24q67 -15 109 -30t73 -49t31 -92q0 -170 -241 -170q-110 0 -172.5 45.5zM304 723h133l1 -3l-108 -129h-105z" />
    <glyph glyph-name="uniA78C" unicode="&#xa78c;" horiz-adv-x="198" 
d="M49 723h129v-122l-43 -314h-86v436z" />
    <glyph glyph-name="scaron" unicode="&#x161;" horiz-adv-x="556" 
d="M46 0zM108.5 33.5q-62.5 45.5 -62.5 121.5l1 12h133v-7q1 -35 31.5 -50.5t74.5 -15.5q41 0 70 11t29 36q0 28 -29.5 42t-92.5 28q-65 15 -106 30.5t-71 48.5t-30 88q0 77 64.5 118.5t166.5 41.5q95 0 157 -38.5t62 -104.5l-1 -23h-133v2q-1 29 -25 43.5t-65 14.5t-65 -11
t-24 -31q0 -25 27.5 -37t88.5 -24q67 -15 109 -30t73 -49t31 -92q0 -170 -241 -170q-110 0 -172.5 45.5zM111 723h111l56 -69l55 69h111l-105 -135h-122z" />
    <glyph glyph-name="scedilla" unicode="&#x15f;" horiz-adv-x="556" 
d="M317 -11l-3 -22q44 -2 71 -19t27 -49q0 -45 -41.5 -63t-94.5 -18q-56 0 -104 8v49h88q23 0 34 5t11 19q0 12 -9.5 18t-32.5 6h-41l10 68q-88 10 -137 53.5t-49 110.5l1 12h133v-7q1 -35 31.5 -50.5t74.5 -15.5q41 0 70 11t29 36q0 28 -29.5 42t-92.5 28q-65 15 -106 30.5
t-71 48.5t-30 88q0 77 64.5 118.5t166.5 41.5q95 0 157 -38.5t62 -104.5l-1 -23h-133v2q-1 29 -25 43.5t-65 14.5t-65 -11t-24 -31q0 -25 27.5 -37t88.5 -24q67 -15 109 -30t73 -49t31 -92q0 -157 -205 -169z" />
    <glyph glyph-name="scircumflex" unicode="&#x15d;" horiz-adv-x="556" 
d="M46 0zM108.5 33.5q-62.5 45.5 -62.5 121.5l1 12h133v-7q1 -35 31.5 -50.5t74.5 -15.5q41 0 70 11t29 36q0 28 -29.5 42t-92.5 28q-65 15 -106 30.5t-71 48.5t-30 88q0 77 64.5 118.5t166.5 41.5q95 0 157 -38.5t62 -104.5l-1 -23h-133v2q-1 29 -25 43.5t-65 14.5t-65 -11
t-24 -31q0 -25 27.5 -37t88.5 -24q67 -15 109 -30t73 -49t31 -92q0 -170 -241 -170q-110 0 -172.5 45.5zM217 723h122l105 -135h-111l-55 69l-56 -69h-111z" />
    <glyph glyph-name="scommaaccent" unicode="&#x219;" horiz-adv-x="556" 
d="M46 0zM108.5 33.5q-62.5 45.5 -62.5 121.5l1 12h133v-7q1 -35 31.5 -50.5t74.5 -15.5q41 0 70 11t29 36q0 28 -29.5 42t-92.5 28q-65 15 -106 30.5t-71 48.5t-30 88q0 77 64.5 118.5t166.5 41.5q95 0 157 -38.5t62 -104.5l-1 -23h-133v2q-1 29 -25 43.5t-65 14.5t-65 -11
t-24 -31q0 -25 27.5 -37t88.5 -24q67 -15 109 -30t73 -49t31 -92q0 -170 -241 -170q-110 0 -172.5 45.5zM264 -138h-55v98h138v-86l-63 -104h-72z" />
    <glyph glyph-name="uni1E63" unicode="&#x1e63;" horiz-adv-x="556" 
d="M46 0zM108.5 33.5q-62.5 45.5 -62.5 121.5l1 12h133v-7q1 -35 31.5 -50.5t74.5 -15.5q41 0 70 11t29 36q0 28 -29.5 42t-92.5 28q-65 15 -106 30.5t-71 48.5t-30 88q0 77 64.5 118.5t166.5 41.5q95 0 157 -38.5t62 -104.5l-1 -23h-133v2q-1 29 -25 43.5t-65 14.5t-65 -11
t-24 -31q0 -25 27.5 -37t88.5 -24q67 -15 109 -30t73 -49t31 -92q0 -170 -241 -170q-110 0 -172.5 45.5zM210 -43h135v-130h-135v130z" />
    <glyph glyph-name="germandbls" unicode="&#xdf;" 
d="M65 511q0 114 69 169t181 55q110 0 171 -49t61 -130q0 -58 -31 -100t-80 -60v-4q66 -17 100.5 -67t34.5 -118q0 -59 -27 -106t-77.5 -74t-118.5 -27h-87v111h74q46 0 72 30t26 75t-26 75t-72 30h-74v121h71q35 0 55.5 25.5t20.5 64.5q0 42 -24.5 67.5t-72.5 25.5
q-50 0 -79.5 -28t-29.5 -78v-519h-137v511z" />
    <glyph glyph-name="longs" unicode="&#x17f;" horiz-adv-x="278" 
d="M84 414h-75v112h75v60q0 62 33 103.5t109 41.5q21 0 46 -5t42 -11v-96h-50q-43 0 -43 -43v-576h-137v414z" />
    <glyph glyph-name="t" unicode="t" horiz-adv-x="333" 
d="M106 28q-32 40 -32 101v285h-63v112h66l23 148h111v-148h91v-112h-91v-271q0 -43 43 -43h48v-96q-17 -6 -42.5 -11t-47.5 -5q-74 0 -106 40z" />
    <glyph glyph-name="tbar" unicode="&#x167;" horiz-adv-x="333" 
d="M106 28q-32 40 -32 101v125h-63v71h63v89h-63v112h66l23 148h111v-148h91v-112h-91v-89h91v-71h-91v-111q0 -43 43 -43h48v-96q-17 -6 -42.5 -11t-47.5 -5q-74 0 -106 40z" />
    <glyph glyph-name="tcaron" unicode="&#x165;" horiz-adv-x="479" 
d="M404 559h-55v127h138v-115l-66 -129h-72zM106 28q-32 40 -32 101v285h-63v112h66l23 148h111v-148h91v-112h-91v-271q0 -43 43 -43h48v-96q-17 -6 -42.5 -11t-47.5 -5q-74 0 -106 40z" />
    <glyph glyph-name="uni0163" unicode="&#x163;" horiz-adv-x="333" 
d="M284 -52q27 -17 27 -49q0 -45 -41.5 -63t-94.5 -18q-56 0 -104 8v49h88q23 0 34 5t11 19q0 12 -9.5 18t-32.5 6h-41l12 83q-31 18 -45 50.5t-14 72.5v285h-63v112h66l23 148h111v-148h91v-112h-91v-271q0 -43 43 -43h48v-96q-15 -6 -39.5 -10.5t-46.5 -5.5l-3 -21
q44 -2 71 -19z" />
    <glyph glyph-name="uni021B" unicode="&#x21b;" horiz-adv-x="333" 
d="M11 0zM106 28q-32 40 -32 101v285h-63v112h66l23 148h111v-148h91v-112h-91v-271q0 -43 43 -43h48v-96q-17 -6 -42.5 -11t-47.5 -5q-74 0 -106 40zM163 -138h-55v98h138v-86l-63 -104h-72z" />
    <glyph glyph-name="uni1E6D" unicode="&#x1e6d;" horiz-adv-x="333" 
d="M11 0zM106 28q-32 40 -32 101v285h-63v112h66l23 148h111v-148h91v-112h-91v-271q0 -43 43 -43h48v-96q-17 -6 -42.5 -11t-47.5 -5q-74 0 -106 40zM109 -43h135v-130h-135v130z" />
    <glyph glyph-name="u" unicode="u" 
d="M114.5 32q-46.5 44 -46.5 141v353h137v-324q0 -49 23 -71t68 -22q46 0 76.5 32.5t30.5 80.5v304h137v-526h-117l-10 69h-7q-64 -81 -164 -81q-81 0 -127.5 44z" />
    <glyph glyph-name="uacute" unicode="&#xfa;" 
d="M68 0zM114.5 32q-46.5 44 -46.5 141v353h137v-324q0 -49 23 -71t68 -22q46 0 76.5 32.5t30.5 80.5v304h137v-526h-117l-10 69h-7q-64 -81 -164 -81q-81 0 -127.5 44zM330 723h133l1 -3l-108 -129h-105z" />
    <glyph glyph-name="ubreve" unicode="&#x16d;" 
d="M68 0zM114.5 32q-46.5 44 -46.5 141v353h137v-324q0 -49 23 -71t68 -22q46 0 76.5 32.5t30.5 80.5v304h137v-526h-117l-10 69h-7q-64 -81 -164 -81q-81 0 -127.5 44zM212 606q-36 20 -53 51.5t-17 65.5h90q3 -18 21 -33t50 -15t51 15t21 33h90q0 -34 -17 -65.5
t-53.5 -51.5t-91.5 -20t-91 20z" />
    <glyph glyph-name="uni01D4" unicode="&#x1d4;" 
d="M68 0zM114.5 32q-46.5 44 -46.5 141v353h137v-324q0 -49 23 -71t68 -22q46 0 76.5 32.5t30.5 80.5v304h137v-526h-117l-10 69h-7q-64 -81 -164 -81q-81 0 -127.5 44zM137 723h111l56 -69l55 69h111l-105 -135h-122z" />
    <glyph glyph-name="ucircumflex" unicode="&#xfb;" 
d="M68 0zM114.5 32q-46.5 44 -46.5 141v353h137v-324q0 -49 23 -71t68 -22q46 0 76.5 32.5t30.5 80.5v304h137v-526h-117l-10 69h-7q-64 -81 -164 -81q-81 0 -127.5 44zM243 723h122l105 -135h-111l-55 69l-56 -69h-111z" />
    <glyph glyph-name="uni0215" unicode="&#x215;" 
d="M68 0zM114.5 32q-46.5 44 -46.5 141v353h137v-324q0 -49 23 -71t68 -22q46 0 76.5 32.5t30.5 80.5v304h137v-526h-117l-10 69h-7q-64 -81 -164 -81q-81 0 -127.5 44zM76 720l1 3h133l79 -132h-105zM251 720l1 3h133l79 -132h-105z" />
    <glyph glyph-name="udieresis" unicode="&#xfc;" 
d="M68 0zM114.5 32q-46.5 44 -46.5 141v353h137v-324q0 -49 23 -71t68 -22q46 0 76.5 32.5t30.5 80.5v304h137v-526h-117l-10 69h-7q-64 -81 -164 -81q-81 0 -127.5 44zM140 723h118v-118h-118v118zM350 723h119v-118h-119v118z" />
    <glyph glyph-name="uni01D8" unicode="&#x1d8;" 
d="M68 0zM114.5 32q-46.5 44 -46.5 141v353h137v-324q0 -49 23 -71t68 -22q46 0 76.5 32.5t30.5 80.5v304h137v-526h-117l-10 69h-7q-64 -81 -164 -81q-81 0 -127.5 44zM140 723h118v-118h-118v118zM350 723h119v-118h-119v118zM330 890h133l1 -3l-108 -129h-105z" />
    <glyph glyph-name="uni01DA" unicode="&#x1da;" 
d="M68 0zM114.5 32q-46.5 44 -46.5 141v353h137v-324q0 -49 23 -71t68 -22q46 0 76.5 32.5t30.5 80.5v304h137v-526h-117l-10 69h-7q-64 -81 -164 -81q-81 0 -127.5 44zM140 723h118v-118h-118v118zM350 723h119v-118h-119v118zM137 890h111l56 -69l55 69h111l-105 -135
h-122z" />
    <glyph glyph-name="uni01DC" unicode="&#x1dc;" 
d="M68 0zM114.5 32q-46.5 44 -46.5 141v353h137v-324q0 -49 23 -71t68 -22q46 0 76.5 32.5t30.5 80.5v304h137v-526h-117l-10 69h-7q-64 -81 -164 -81q-81 0 -127.5 44zM140 723h118v-118h-118v118zM350 723h119v-118h-119v118zM143 887l1 3h133l79 -132h-105z" />
    <glyph glyph-name="uni01D6" unicode="&#x1d6;" 
d="M68 0zM114.5 32q-46.5 44 -46.5 141v353h137v-324q0 -49 23 -71t68 -22q46 0 76.5 32.5t30.5 80.5v304h137v-526h-117l-10 69h-7q-64 -81 -164 -81q-81 0 -127.5 44zM140 723h118v-118h-118v118zM350 723h119v-118h-119v118zM151 866h305v-88h-305v88z" />
    <glyph glyph-name="uni1EE5" unicode="&#x1ee5;" 
d="M68 0zM114.5 32q-46.5 44 -46.5 141v353h137v-324q0 -49 23 -71t68 -22q46 0 76.5 32.5t30.5 80.5v304h137v-526h-117l-10 69h-7q-64 -81 -164 -81q-81 0 -127.5 44zM238 -43h135v-130h-135v130z" />
    <glyph glyph-name="ugrave" unicode="&#xf9;" 
d="M68 0zM114.5 32q-46.5 44 -46.5 141v353h137v-324q0 -49 23 -71t68 -22q46 0 76.5 32.5t30.5 80.5v304h137v-526h-117l-10 69h-7q-64 -81 -164 -81q-81 0 -127.5 44zM143 720l1 3h133l79 -132h-105z" />
    <glyph glyph-name="uni1EE7" unicode="&#x1ee7;" 
d="M68 0zM114.5 32q-46.5 44 -46.5 141v353h137v-324q0 -49 23 -71t68 -22q46 0 76.5 32.5t30.5 80.5v304h137v-526h-117l-10 69h-7q-64 -81 -164 -81q-81 0 -127.5 44zM270 645h14q18 0 25 4.5t7 14.5q0 11 -8.5 15t-26.5 4h-58v44q38 8 83 8q46 0 81.5 -13.5t35.5 -47.5
q0 -27 -24 -41.5t-61 -16.5v-25h-68v54z" />
    <glyph glyph-name="uhorn" unicode="&#x1b0;" 
d="M660 723v-54q0 -81 -29 -129.5t-91 -72.5v-467h-117l-10 69h-7q-64 -81 -164 -81q-81 0 -127.5 44t-46.5 141v353h137v-324q0 -49 23 -71t68 -22q46 0 76.5 32.5t30.5 80.5v304h104q48 20 64 60h-69v137h158z" />
    <glyph glyph-name="uni1EE9" unicode="&#x1ee9;" 
d="M68 0zM660 723v-54q0 -81 -29 -129.5t-91 -72.5v-467h-117l-10 69h-7q-64 -81 -164 -81q-81 0 -127.5 44t-46.5 141v353h137v-324q0 -49 23 -71t68 -22q46 0 76.5 32.5t30.5 80.5v304h104q48 20 64 60h-69v137h158zM330 723h133l1 -3l-108 -129h-105z" />
    <glyph glyph-name="uni1EF1" unicode="&#x1ef1;" 
d="M68 0zM660 723v-54q0 -81 -29 -129.5t-91 -72.5v-467h-117l-10 69h-7q-64 -81 -164 -81q-81 0 -127.5 44t-46.5 141v353h137v-324q0 -49 23 -71t68 -22q46 0 76.5 32.5t30.5 80.5v304h104q48 20 64 60h-69v137h158zM238 -43h135v-130h-135v130z" />
    <glyph glyph-name="uni1EEB" unicode="&#x1eeb;" 
d="M68 0zM660 723v-54q0 -81 -29 -129.5t-91 -72.5v-467h-117l-10 69h-7q-64 -81 -164 -81q-81 0 -127.5 44t-46.5 141v353h137v-324q0 -49 23 -71t68 -22q46 0 76.5 32.5t30.5 80.5v304h104q48 20 64 60h-69v137h158zM143 720l1 3h133l79 -132h-105z" />
    <glyph glyph-name="uni1EED" unicode="&#x1eed;" 
d="M68 0zM660 723v-54q0 -81 -29 -129.5t-91 -72.5v-467h-117l-10 69h-7q-64 -81 -164 -81q-81 0 -127.5 44t-46.5 141v353h137v-324q0 -49 23 -71t68 -22q46 0 76.5 32.5t30.5 80.5v304h104q48 20 64 60h-69v137h158zM270 645h14q18 0 25 4.5t7 14.5q0 11 -8.5 15t-26.5 4
h-58v44q38 8 83 8q46 0 81.5 -13.5t35.5 -47.5q0 -27 -24 -41.5t-61 -16.5v-25h-68v54z" />
    <glyph glyph-name="uni1EEF" unicode="&#x1eef;" 
d="M68 0zM660 723v-54q0 -81 -29 -129.5t-91 -72.5v-467h-117l-10 69h-7q-64 -81 -164 -81q-81 0 -127.5 44t-46.5 141v353h137v-324q0 -49 23 -71t68 -22q46 0 76.5 32.5t30.5 80.5v304h104q48 20 64 60h-69v137h158zM160.5 688.5q24.5 34.5 73.5 34.5q16 0 30 -4.5
t39 -14.5q21 -9 35 -13.5t29 -4.5t23.5 8.5t11.5 28.5h70q0 -53 -24.5 -87.5t-74.5 -34.5q-16 0 -29.5 4.5t-38.5 14.5q-21 9 -35 13.5t-29 4.5q-30 0 -35 -37h-70q0 53 24.5 87.5z" />
    <glyph glyph-name="uhungarumlaut" unicode="&#x171;" 
d="M68 0zM114.5 32q-46.5 44 -46.5 141v353h137v-324q0 -49 23 -71t68 -22q46 0 76.5 32.5t30.5 80.5v304h137v-526h-117l-10 69h-7q-64 -81 -164 -81q-81 0 -127.5 44zM243 723h133l1 -3l-108 -129h-105zM418 723h133l1 -3l-108 -129h-105z" />
    <glyph glyph-name="uni0217" unicode="&#x217;" 
d="M68 0zM114.5 32q-46.5 44 -46.5 141v353h137v-324q0 -49 23 -71t68 -22q46 0 76.5 32.5t30.5 80.5v304h137v-526h-117l-10 69h-7q-64 -81 -164 -81q-81 0 -127.5 44zM159 651.5q17 31.5 53 51.5t91 20t91.5 -20t53.5 -51.5t17 -65.5h-90q-2 18 -21 33t-51 15t-50 -15
t-21 -33h-90q0 34 17 65.5z" />
    <glyph glyph-name="umacron" unicode="&#x16b;" 
d="M68 0zM114.5 32q-46.5 44 -46.5 141v353h137v-324q0 -49 23 -71t68 -22q46 0 76.5 32.5t30.5 80.5v304h137v-526h-117l-10 69h-7q-64 -81 -164 -81q-81 0 -127.5 44zM151 699h305v-88h-305v88z" />
    <glyph glyph-name="uogonek" unicode="&#x173;" 
d="M394 -161q-31 21 -31 67q0 30 15.5 52.5t44.5 41.5l-10 69h-7q-64 -81 -164 -81q-81 0 -127.5 44t-46.5 141v353h137v-324q0 -49 23 -71t68 -22q46 0 76.5 32.5t30.5 80.5v304h137v-526q-72 -18 -72 -67q0 -19 12.5 -32.5t35.5 -13.5h24v-55q-39 -14 -71 -14
q-44 0 -75 21z" />
    <glyph glyph-name="uring" unicode="&#x16f;" 
d="M68 0zM114.5 32q-46.5 44 -46.5 141v353h137v-324q0 -49 23 -71t68 -22q46 0 76.5 32.5t30.5 80.5v304h137v-526h-117l-10 69h-7q-64 -81 -164 -81q-81 0 -127.5 44zM230.5 585q-27.5 29 -27.5 72t27.5 72t73.5 29t73.5 -29t27.5 -72t-27.5 -72t-73.5 -29t-73.5 29z
M335.5 625.5q12.5 12.5 12.5 31.5t-12.5 31.5t-31.5 12.5q-20 0 -32 -12.5t-12 -31.5t12 -31.5t32 -12.5q19 0 31.5 12.5z" />
    <glyph glyph-name="utilde" unicode="&#x169;" 
d="M68 0zM114.5 32q-46.5 44 -46.5 141v353h137v-324q0 -49 23 -71t68 -22q46 0 76.5 32.5t30.5 80.5v304h137v-526h-117l-10 69h-7q-64 -81 -164 -81q-81 0 -127.5 44zM160.5 688.5q24.5 34.5 73.5 34.5q16 0 30 -4.5t39 -14.5q21 -9 35 -13.5t29 -4.5t23.5 8.5t11.5 28.5
h70q0 -53 -24.5 -87.5t-74.5 -34.5q-16 0 -29.5 4.5t-38.5 14.5q-21 9 -35 13.5t-29 4.5q-30 0 -35 -37h-70q0 53 24.5 87.5z" />
    <glyph glyph-name="v" unicode="v" horiz-adv-x="556" 
d="M9 526h143l82 -226q9 -25 24 -82l20 -76h5q4 18 18.5 73.5t25.5 84.5l81 226h139l-197 -526h-145z" />
    <glyph glyph-name="w" unicode="w" horiz-adv-x="778" 
d="M4 526h141l57 -216q6 -23 17 -78t14 -73h4q3 17 12.5 62.5t19.5 87.5l54 217h141l57 -218q8 -30 19 -81t14 -68h4l13 64.5t19 84.5l54 218h130l-156 -526h-142l-60 251q-8 31 -15 68l-9 48h-5q-1 -11 -7 -47t-14 -68l-63 -252h-142z" />
    <glyph glyph-name="wacute" unicode="&#x1e83;" horiz-adv-x="778" 
d="M4 0zM4 526h141l57 -216q6 -23 17 -78t14 -73h4q3 17 12.5 62.5t19.5 87.5l54 217h141l57 -218q8 -30 19 -81t14 -68h4l13 64.5t19 84.5l54 218h130l-156 -526h-142l-60 251q-8 31 -15 68l-9 48h-5q-1 -11 -7 -47t-14 -68l-63 -252h-142zM415 723h133l1 -3l-108 -129
h-105z" />
    <glyph glyph-name="wcircumflex" unicode="&#x175;" horiz-adv-x="778" 
d="M4 0zM4 526h141l57 -216q6 -23 17 -78t14 -73h4q3 17 12.5 62.5t19.5 87.5l54 217h141l57 -218q8 -30 19 -81t14 -68h4l13 64.5t19 84.5l54 218h130l-156 -526h-142l-60 251q-8 31 -15 68l-9 48h-5q-1 -11 -7 -47t-14 -68l-63 -252h-142zM328 723h122l105 -135h-111
l-55 69l-56 -69h-111z" />
    <glyph glyph-name="wdieresis" unicode="&#x1e85;" horiz-adv-x="778" 
d="M4 0zM4 526h141l57 -216q6 -23 17 -78t14 -73h4q3 17 12.5 62.5t19.5 87.5l54 217h141l57 -218q8 -30 19 -81t14 -68h4l13 64.5t19 84.5l54 218h130l-156 -526h-142l-60 251q-8 31 -15 68l-9 48h-5q-1 -11 -7 -47t-14 -68l-63 -252h-142zM225 723h118v-118h-118v118z
M435 723h119v-118h-119v118z" />
    <glyph glyph-name="wgrave" unicode="&#x1e81;" horiz-adv-x="778" 
d="M4 0zM4 526h141l57 -216q6 -23 17 -78t14 -73h4q3 17 12.5 62.5t19.5 87.5l54 217h141l57 -218q8 -30 19 -81t14 -68h4l13 64.5t19 84.5l54 218h130l-156 -526h-142l-60 251q-8 31 -15 68l-9 48h-5q-1 -11 -7 -47t-14 -68l-63 -252h-142zM228 720l1 3h133l79 -132h-105z
" />
    <glyph glyph-name="x" unicode="x" horiz-adv-x="556" 
d="M191 272l-170 254h165l95 -153h6l97 153h155l-173 -251l183 -275h-164l-109 174h-6l-110 -174h-154z" />
    <glyph glyph-name="y" unicode="y" horiz-adv-x="556" 
d="M104 -179q-21 3 -32.5 6t-14.5 4v96h65q35 0 57 17t36 56l-206 526h143l99 -247q10 -26 22 -73.5t15 -63.5h5l14.5 55t22.5 81l78 248h139l-177 -499q-24 -66 -50 -110.5t-67.5 -71.5t-101.5 -27q-26 0 -47 3z" />
    <glyph glyph-name="yacute" unicode="&#xfd;" horiz-adv-x="556" 
d="M9 0zM104 -179q-21 3 -32.5 6t-14.5 4v96h65q35 0 57 17t36 56l-206 526h143l99 -247q10 -26 22 -73.5t15 -63.5h5l14.5 55t22.5 81l78 248h139l-177 -499q-24 -66 -50 -110.5t-67.5 -71.5t-101.5 -27q-26 0 -47 3zM304 723h133l1 -3l-108 -129h-105z" />
    <glyph glyph-name="ycircumflex" unicode="&#x177;" horiz-adv-x="556" 
d="M9 0zM104 -179q-21 3 -32.5 6t-14.5 4v96h65q35 0 57 17t36 56l-206 526h143l99 -247q10 -26 22 -73.5t15 -63.5h5l14.5 55t22.5 81l78 248h139l-177 -499q-24 -66 -50 -110.5t-67.5 -71.5t-101.5 -27q-26 0 -47 3zM217 723h122l105 -135h-111l-55 69l-56 -69h-111z" />
    <glyph glyph-name="ydieresis" unicode="&#xff;" horiz-adv-x="556" 
d="M9 0zM104 -179q-21 3 -32.5 6t-14.5 4v96h65q35 0 57 17t36 56l-206 526h143l99 -247q10 -26 22 -73.5t15 -63.5h5l14.5 55t22.5 81l78 248h139l-177 -499q-24 -66 -50 -110.5t-67.5 -71.5t-101.5 -27q-26 0 -47 3zM114 723h118v-118h-118v118zM324 723h119v-118h-119
v118z" />
    <glyph glyph-name="uni1EF5" unicode="&#x1ef5;" horiz-adv-x="556" 
d="M9 0zM104 -179q-21 3 -32.5 6t-14.5 4v96h65q35 0 57 17t36 56l-206 526h143l99 -247q10 -26 22 -73.5t15 -63.5h5l14.5 55t22.5 81l78 248h139l-177 -499q-24 -66 -50 -110.5t-67.5 -71.5t-101.5 -27q-26 0 -47 3zM380 -43h135v-130h-135v130z" />
    <glyph glyph-name="ygrave" unicode="&#x1ef3;" horiz-adv-x="556" 
d="M9 0zM104 -179q-21 3 -32.5 6t-14.5 4v96h65q35 0 57 17t36 56l-206 526h143l99 -247q10 -26 22 -73.5t15 -63.5h5l14.5 55t22.5 81l78 248h139l-177 -499q-24 -66 -50 -110.5t-67.5 -71.5t-101.5 -27q-26 0 -47 3zM117 720l1 3h133l79 -132h-105z" />
    <glyph glyph-name="uni1EF7" unicode="&#x1ef7;" horiz-adv-x="556" 
d="M9 0zM104 -179q-21 3 -32.5 6t-14.5 4v96h65q35 0 57 17t36 56l-206 526h143l99 -247q10 -26 22 -73.5t15 -63.5h5l14.5 55t22.5 81l78 248h139l-177 -499q-24 -66 -50 -110.5t-67.5 -71.5t-101.5 -27q-26 0 -47 3zM244 645h14q18 0 25 4.5t7 14.5q0 11 -8.5 15t-26.5 4
h-58v44q38 8 83 8q46 0 81.5 -13.5t35.5 -47.5q0 -27 -24 -41.5t-61 -16.5v-25h-68v54z" />
    <glyph glyph-name="uni0233" unicode="&#x233;" horiz-adv-x="556" 
d="M9 0zM104 -179q-21 3 -32.5 6t-14.5 4v96h65q35 0 57 17t36 56l-206 526h143l99 -247q10 -26 22 -73.5t15 -63.5h5l14.5 55t22.5 81l78 248h139l-177 -499q-24 -66 -50 -110.5t-67.5 -71.5t-101.5 -27q-26 0 -47 3zM125 699h305v-88h-305v88z" />
    <glyph glyph-name="uni1EF9" unicode="&#x1ef9;" horiz-adv-x="556" 
d="M9 0zM104 -179q-21 3 -32.5 6t-14.5 4v96h65q35 0 57 17t36 56l-206 526h143l99 -247q10 -26 22 -73.5t15 -63.5h5l14.5 55t22.5 81l78 248h139l-177 -499q-24 -66 -50 -110.5t-67.5 -71.5t-101.5 -27q-26 0 -47 3zM134.5 688.5q24.5 34.5 73.5 34.5q16 0 30 -4.5
t39 -14.5q21 -9 35 -13.5t29 -4.5t23.5 8.5t11.5 28.5h70q0 -53 -24.5 -87.5t-74.5 -34.5q-16 0 -29.5 4.5t-38.5 14.5q-21 9 -35 13.5t-29 4.5q-30 0 -35 -37h-70q0 53 24.5 87.5z" />
    <glyph glyph-name="z" unicode="z" horiz-adv-x="500" 
d="M21 61l249 353h-234v112h433v-60l-250 -354h259v-112h-457v61z" />
    <glyph glyph-name="zacute" unicode="&#x17a;" horiz-adv-x="500" 
d="M21 0zM21 61l249 353h-234v112h433v-60l-250 -354h259v-112h-457v61zM276 723h133l1 -3l-108 -129h-105z" />
    <glyph glyph-name="zcaron" unicode="&#x17e;" horiz-adv-x="500" 
d="M21 0zM21 61l249 353h-234v112h433v-60l-250 -354h259v-112h-457v61zM83 723h111l56 -69l55 69h111l-105 -135h-122z" />
    <glyph glyph-name="zdotaccent" unicode="&#x17c;" horiz-adv-x="500" 
d="M21 0zM21 61l249 353h-234v112h433v-60l-250 -354h259v-112h-457v61zM182 724h135v-130h-135v130z" />
    <glyph glyph-name="uni1E93" unicode="&#x1e93;" horiz-adv-x="500" 
d="M21 0zM21 61l249 353h-234v112h433v-60l-250 -354h259v-112h-457v61zM182 -43h135v-130h-135v130z" />
    <glyph glyph-name="iacute_j.loclNLD" horiz-adv-x="556" 
d="M71 0zM150 723h133l1 -3l-108 -129h-105zM71 526h137v-526h-137v526zM298.5 -177q-27.5 5 -44.5 11v96h52q43 0 43 43v553h137v-567q0 -61 -32 -101t-106 -40q-22 0 -49.5 5zM443 723h133l1 -3l-108 -129h-105z" />
    <glyph glyph-name="g_tilde.loclGUA" 
d="M24 0zM62 -148q-38 34 -38 87q0 70 81 107q-51 26 -51 79q0 33 26 57.5t67 34.5q-77 47 -77 142q0 83 60.5 131t172.5 48q61 0 106 -15q30 19 43.5 45.5t13.5 45.5h134q0 -55 -29.5 -88.5t-83.5 -45.5q50 -47 50 -121q0 -83 -58.5 -131t-167.5 -48h-80q-18 0 -28.5 -8
t-10.5 -22q0 -12 9 -20.5t24 -8.5h239q58 0 97 -39t39 -102q0 -48 -26 -85t-71 -57t-99 -20h-249q-55 0 -93 34zM376 295.5q25 22.5 25 63.5t-25 63.5t-73 22.5t-72.5 -22.5t-24.5 -63.5t24.5 -63.5t72.5 -22.5t73 22.5zM402 -87q26 0 43 13t17 34q0 22 -15.5 34t-38.5 12
h-193q-22 0 -37.5 -13t-15.5 -33q0 -21 15 -34t38 -13h187zM162.5 688.5q24.5 34.5 73.5 34.5q16 0 30 -4.5t39 -14.5q21 -9 35 -13.5t29 -4.5t23.5 8.5t11.5 28.5h70q0 -53 -24.5 -87.5t-74.5 -34.5q-16 0 -29.5 4.5t-38.5 14.5q-21 9 -35 13.5t-29 4.5q-30 0 -35 -37h-70
q0 53 24.5 87.5z" />
    <glyph glyph-name="y.loclGUA" 
d="M127 -145q-58 37 -58 110v10h133q0 -45 81 -45q65 0 95 31.5t31 97.5l1 40h-4q-64 -81 -164 -81q-81 0 -127.5 44t-46.5 141v323h137v-294q0 -49 23 -71t68 -22q46 0 76.5 32.5t30.5 80.5v274h137v-463q0 -122 -65 -183.5t-191 -61.5q-99 0 -157 37z" />
    <glyph glyph-name="yacute.loclGUA" 
d="M68 0zM127 -145q-58 37 -58 110v10h133q0 -45 81 -45q65 0 95 31.5t31 97.5l1 40h-4q-64 -81 -164 -81q-81 0 -127.5 44t-46.5 141v323h137v-294q0 -49 23 -71t68 -22q46 0 76.5 32.5t30.5 80.5v274h137v-463q0 -122 -65 -183.5t-191 -61.5q-99 0 -157 37zM332 723h133
l1 -3l-108 -129h-105z" />
    <glyph glyph-name="ycircumflex.loclGUA" 
d="M68 0zM127 -145q-58 37 -58 110v10h133q0 -45 81 -45q65 0 95 31.5t31 97.5l1 40h-4q-64 -81 -164 -81q-81 0 -127.5 44t-46.5 141v323h137v-294q0 -49 23 -71t68 -22q46 0 76.5 32.5t30.5 80.5v274h137v-463q0 -122 -65 -183.5t-191 -61.5q-99 0 -157 37zM245 723h122
l105 -135h-111l-55 69l-56 -69h-111z" />
    <glyph glyph-name="ydieresis.loclGUA" 
d="M68 0zM127 -145q-58 37 -58 110v10h133q0 -45 81 -45q65 0 95 31.5t31 97.5l1 40h-4q-64 -81 -164 -81q-81 0 -127.5 44t-46.5 141v323h137v-294q0 -49 23 -71t68 -22q46 0 76.5 32.5t30.5 80.5v274h137v-463q0 -122 -65 -183.5t-191 -61.5q-99 0 -157 37zM142 723h118
v-118h-118v118zM352 723h119v-118h-119v118z" />
    <glyph glyph-name="ygrave.loclGUA" 
d="M68 0zM127 -145q-58 37 -58 110v10h133q0 -45 81 -45q65 0 95 31.5t31 97.5l1 40h-4q-64 -81 -164 -81q-81 0 -127.5 44t-46.5 141v323h137v-294q0 -49 23 -71t68 -22q46 0 76.5 32.5t30.5 80.5v274h137v-463q0 -122 -65 -183.5t-191 -61.5q-99 0 -157 37zM145 720l1 3
h133l79 -132h-105z" />
    <glyph glyph-name="uni0233.loclGUA" 
d="M68 0zM127 -145q-58 37 -58 110v10h133q0 -45 81 -45q65 0 95 31.5t31 97.5l1 40h-4q-64 -81 -164 -81q-81 0 -127.5 44t-46.5 141v323h137v-294q0 -49 23 -71t68 -22q46 0 76.5 32.5t30.5 80.5v274h137v-463q0 -122 -65 -183.5t-191 -61.5q-99 0 -157 37zM153 699h305
v-88h-305v88z" />
    <glyph glyph-name="uni1EF9.loclGUA" 
d="M68 0zM127 -145q-58 37 -58 110v10h133q0 -45 81 -45q65 0 95 31.5t31 97.5l1 40h-4q-64 -81 -164 -81q-81 0 -127.5 44t-46.5 141v323h137v-294q0 -49 23 -71t68 -22q46 0 76.5 32.5t30.5 80.5v274h137v-463q0 -122 -65 -183.5t-191 -61.5q-99 0 -157 37zM162.5 688.5
q24.5 34.5 73.5 34.5q16 0 30 -4.5t39 -14.5q21 -9 35 -13.5t29 -4.5t23.5 8.5t11.5 28.5h70q0 -53 -24.5 -87.5t-74.5 -34.5q-16 0 -29.5 4.5t-38.5 14.5q-21 9 -35 13.5t-29 4.5q-30 0 -35 -37h-70q0 53 24.5 87.5z" />
    <glyph glyph-name="cacute.loclPLK" horiz-adv-x="556" 
d="M38 0zM100.5 55q-62.5 67 -62.5 208q0 140 62.5 207.5t188.5 67.5q105 0 167.5 -53.5t62.5 -156.5h-138q0 48 -25 74t-70 26q-56 0 -82.5 -39.5t-26.5 -117.5v-16q0 -78 27.5 -117.5t88.5 -39.5q43 0 68.5 26.5t25.5 73.5h132q0 -103 -62 -156.5t-168 -53.5
q-126 0 -188.5 67zM254 722h124l-48 -131h-105z" />
    <glyph glyph-name="nacute.loclPLK" 
d="M71 0zM71 526h117l10 -69h7q64 81 164 81q81 0 127.5 -44t46.5 -141v-353h-137v324q0 49 -23 71t-68 22q-46 0 -76.5 -32.5t-30.5 -80.5v-304h-137v526zM282 722h124l-48 -131h-105z" />
    <glyph glyph-name="oacute.loclPLK" 
d="M38 0zM104 55q-66 67 -66 208t66 208t201 67t201.5 -67t66.5 -208t-66.5 -208t-201.5 -67t-201 67zM402 138.5q30 38.5 30 116.5v16q0 78 -30 116.5t-97 38.5t-96.5 -38.5t-29.5 -116.5v-16q0 -78 29.5 -116.5t96.5 -38.5t97 38.5zM282 722h124l-48 -131h-105z" />
    <glyph glyph-name="sacute.loclPLK" horiz-adv-x="556" 
d="M46 0zM108.5 33.5q-62.5 45.5 -62.5 121.5l1 12h133v-7q1 -35 31.5 -50.5t74.5 -15.5q41 0 70 11t29 36q0 28 -29.5 42t-92.5 28q-65 15 -106 30.5t-71 48.5t-30 88q0 77 64.5 118.5t166.5 41.5q95 0 157 -38.5t62 -104.5l-1 -23h-133v2q-1 29 -25 43.5t-65 14.5t-65 -11
t-24 -31q0 -25 27.5 -37t88.5 -24q67 -15 109 -30t73 -49t31 -92q0 -170 -241 -170q-110 0 -172.5 45.5zM254 722h124l-48 -131h-105z" />
    <glyph glyph-name="zacute.loclPLK" horiz-adv-x="500" 
d="M21 0zM21 61l249 353h-234v112h433v-60l-250 -354h259v-112h-457v61zM226 722h124l-48 -131h-105z" />
    <glyph glyph-name="ordfeminine" unicode="&#xaa;" horiz-adv-x="370" 
d="M345 471v-58q-18 -9 -48 -9q-24 0 -41.5 11t-23.5 30h-4q-18 -20 -40.5 -30.5t-58.5 -10.5q-37 0 -68 19.5t-31 70.5q0 61 51 87t143 26v22q0 21 -10 32.5t-36 11.5q-27 0 -39 -8.5t-12 -19.5v-10h-80q-1 4 -1 13q0 40 35.5 64.5t94.5 24.5q66 0 98 -27t32 -77v-140
q0 -11 6.5 -16.5t15.5 -5.5h17zM224 551q-50 0 -79.5 -10.5t-29.5 -38.5q0 -14 10 -23.5t30 -9.5q35 0 52 20t17 53v9z" />
    <glyph glyph-name="ordmasculine" unicode="&#xba;" horiz-adv-x="365" 
d="M61 444.5q-40 40.5 -40 126.5q0 85 40 125.5t122 40.5t122.5 -40.5t40.5 -125.5q0 -86 -40.5 -126.5t-122.5 -40.5t-122 40.5zM242 495.5q18 23.5 18 70.5v9q0 47 -18 70.5t-59 23.5q-40 0 -58.5 -23.5t-18.5 -70.5v-9q0 -47 18.5 -70.5t58.5 -23.5q41 0 59 23.5z" />
    <glyph glyph-name="uni207F" unicode="&#x207f;" horiz-adv-x="396" 
d="M59 730h71l6 -42h4q16 22 40.5 35.5t57.5 13.5q104 0 104 -111v-212h-82v195q0 30 -14 42.5t-41 12.5q-28 0 -46 -19t-18 -48v-183h-82v316z" />
    <glyph glyph-name="uni0394" unicode="&#x394;" horiz-adv-x="719" 
d="M269 686h182l268 -686h-718zM520 123q-4 8 -17 37.5t-24 59.5l-78 206q-8 21 -23 70l-20 65h-5l-20 -65t-23 -70l-76 -206q-12 -31 -25 -60t-17 -37h328z" />
    <glyph glyph-name="uni03A9" unicode="&#x3a9;" horiz-adv-x="802" 
d="M33 123h51q7 0 45 -6q31 -5 55 -8q-62 41 -96.5 105t-34.5 149q0 105 42 180.5t120 115t186 39.5t186 -39.5t120 -115t42 -180.5q0 -85 -35 -148.5t-97 -105.5q25 3 58 8q34 6 43 6h51v-123h-332v110q80 14 121.5 67.5t41.5 138.5v32q0 227 -199 227t-199 -227v-32
q0 -84 41.5 -137t121.5 -68v-111h-332v123z" />
    <glyph glyph-name="uni03BC" unicode="&#x3bc;" horiz-adv-x="576" 
d="M52 526h137v-324q0 -49 23 -71t68 -22q46 0 76.5 32.5t30.5 80.5v304h137v-526h-117l-10 69h-7q-19 -39 -51 -60t-75 -21q-55 0 -83 31q8 -67 8 -95v-97h-137v699z" />
    <glyph glyph-name="pi" unicode="&#x3c0;" horiz-adv-x="766" 
d="M157 196.5q24 125.5 27 217.5q-56 0 -84.5 -3t-51.5 -10l-15 95q52 30 201 30h503l-10 -112h-104v-258q0 -108 16 -156h-134q-9 12 -14 50.5t-5 96.5v267h-166q-8 -104 -31 -231.5t-50 -182.5h-136q30 71 54 196.5z" />
    <glyph glyph-name="zero" unicode="0" horiz-adv-x="556" 
d="M148.5 19.5q-51.5 31.5 -79 109.5t-27.5 214t27.5 214t79 109.5t129.5 31.5t129.5 -32t79 -109.5t27.5 -213.5t-27.5 -213.5t-79 -109.5t-129.5 -32t-129.5 31.5zM337.5 121.5q20.5 21.5 28 65.5t7.5 121v70q0 77 -7.5 121t-28 65.5t-59.5 21.5t-59.5 -21.5t-28 -65.5
t-7.5 -121v-70q0 -77 7.5 -121t28 -65.5t59.5 -21.5t59.5 21.5z" />
    <glyph glyph-name="one" unicode="1" horiz-adv-x="556" 
d="M85 112h161v408h-162v85q45 5 110.5 28t117.5 53h71v-574h147v-112h-445v112z" />
    <glyph glyph-name="two" unicode="2" horiz-adv-x="556" 
d="M43 36q0 57 25 102.5t61.5 79.5t95.5 77q51 39 80.5 65t49.5 57q25 39 25 88q0 32 -23.5 56.5t-67.5 24.5q-99 0 -99 -95v-41h-136q-1 3 -2.5 14t-1.5 26q0 104 69.5 156t175.5 52q93 0 143 -36t65.5 -81t15.5 -84q0 -69 -31 -122.5t-73.5 -90t-105.5 -79.5
q-48 -33 -72 -54q-17 -15 -25 -29h311v-122h-480v36z" />
    <glyph glyph-name="three" unicode="3" horiz-adv-x="556" 
d="M98 43.5q-64 55.5 -64 150.5v18h139v-21q0 -44 27 -67.5t78 -23.5q46 0 73 23.5t27 70.5q0 55 -30 77t-80 22h-51v112h54q41 0 67 24.5t26 71.5q0 43 -22.5 64t-63.5 21q-43 0 -67 -21.5t-24 -63.5v-19h-139v28q0 56 29 98.5t80.5 66t117.5 23.5q105 0 167.5 -49
t62.5 -139q0 -57 -28.5 -93.5t-79.5 -60.5v-4q56 -17 89 -60t33 -108q0 -60 -30.5 -104.5t-84.5 -68t-124 -23.5q-118 0 -182 55.5z" />
    <glyph glyph-name="four" unicode="4" horiz-adv-x="556" 
d="M314 146h-294v112q123 197 184 440h141q-19 -81 -58.5 -171.5t-81 -163.5t-66.5 -105h175v151q21 38 41.5 91t32.5 96h63v-338h82v-112h-82v-146h-137v146z" />
    <glyph glyph-name="five" unicode="5" horiz-adv-x="556" 
d="M101.5 48.5q-65.5 60.5 -65.5 164.5h141q0 -53 26.5 -83t73.5 -30q46 0 72.5 31.5t26.5 92.5q0 56 -27 85t-71 29q-30 0 -51 -13t-38 -35l-130 16l27 380h397v-122h-276l-9 -152q24 15 52 24.5t68 9.5q88 0 143.5 -56.5t55.5 -165.5q0 -112 -64 -174t-176 -62
q-110 0 -175.5 60.5z" />
    <glyph glyph-name="six" unicode="6" horiz-adv-x="556" 
d="M106 64.5q-64 76.5 -64 258.5q0 139 29 222t83 118t135 35q108 0 161.5 -59t53.5 -156h-139q0 51 -19 77.5t-62 26.5t-64.5 -23.5t-28.5 -65.5t-8 -113q0 2 19.5 16t50.5 26t70 12q102 0 152.5 -61t50.5 -164q0 -68 -30 -119.5t-82.5 -79t-118.5 -27.5q-125 0 -189 76.5z
M361 131.5q24 31.5 24 82.5q0 54 -24 85t-72 31t-73 -31t-25 -85q0 -51 25 -82.5t73 -31.5t72 31.5z" />
    <glyph glyph-name="seven" unicode="7" horiz-adv-x="556" 
d="M201.5 300.5q67.5 146.5 170.5 263.5h-337v122h493v-91q-106 -132 -176.5 -267.5t-70.5 -276.5q0 -27 1 -51h-148q0 154 67.5 300.5z" />
    <glyph glyph-name="eight" unicode="8" horiz-adv-x="556" 
d="M93.5 43.5q-60.5 55.5 -60.5 144.5q0 57 27 99t82 65q-45 24 -68.5 64.5t-23.5 90.5q0 54 26 97t77.5 68.5t124.5 25.5t124.5 -25.5t77.5 -68.5t26 -97q0 -50 -23.5 -90.5t-69.5 -64.5q110 -44 110 -164q0 -89 -60.5 -144.5t-184.5 -55.5t-184.5 55.5zM344.5 428.5
q23.5 23.5 23.5 67.5t-23.5 68t-66.5 24t-66 -24t-23 -68t23 -67.5t66 -23.5t66.5 23.5zM355 124q27 26 27 73t-27 73t-77 26t-77 -26t-27 -73t27 -73t77 -26t77 26z" />
    <glyph glyph-name="nine" unicode="9" horiz-adv-x="556" 
d="M105.5 47q-53.5 59 -53.5 156h139q0 -51 19 -77.5t62 -26.5t64.5 23.5t28.5 65.5t8 113q0 -2 -19.5 -16t-50.5 -26t-70 -12q-102 0 -152.5 61t-50.5 164q0 68 30 119.5t82.5 79t118.5 27.5q125 0 189 -76.5t64 -258.5q0 -139 -29 -222t-83 -118t-135 -35
q-108 0 -161.5 59zM340 387q25 31 25 85q0 51 -25 82.5t-73 31.5t-72 -31.5t-24 -82.5q0 -54 24 -85t72 -31t73 31z" />
    <glyph glyph-name="uni00B9" unicode="&#xb9;" horiz-adv-x="333" 
d="M55 405h82v185h-82v55q25 2 60.5 14t61.5 27h43v-281h74v-75h-239v75z" />
    <glyph glyph-name="uni00B2" unicode="&#xb2;" horiz-adv-x="333" 
d="M41 354q0 43 23.5 72t70.5 66q26 19 41 32t25 27q12 16 12 42q0 14 -10.5 25t-30.5 11q-22 0 -33.5 -10t-11.5 -33v-18h-80q-1 2 -2 9.5t-1 18.5q0 51 37 76.5t94 25.5q71 0 95.5 -35.5t24.5 -73.5q0 -52 -30 -85.5t-81 -67.5q-29 -20 -41 -32h154v-75h-256v25z" />
    <glyph glyph-name="uni00B3" unicode="&#xb3;" horiz-adv-x="333" 
d="M71 354.5q-34 29.5 -34 80.5v7h83v-8q0 -20 12.5 -30.5t34.5 -10.5q21 0 33 10.5t12 31.5q0 45 -50 45h-32v69h34q19 0 30 10.5t11 32.5q0 38 -38 38q-18 0 -29 -10t-11 -28v-8h-83v12q0 46 34.5 74t87.5 28q56 0 89.5 -26.5t33.5 -75.5q0 -27 -13.5 -45t-40.5 -32v-4
q29 -11 45 -32.5t16 -52.5q0 -49 -35.5 -77t-92.5 -28q-63 0 -97 29.5z" />
    <glyph glyph-name="fraction" unicode="&#x2044;" horiz-adv-x="167" 
d="M312 698h88l-546 -710h-88z" />
    <glyph glyph-name="onehalf" unicode="&#xbd;" horiz-adv-x="834" 
d="M646 698h88l-546 -710h-88zM46 404h82v186h-82v55q25 2 60.5 14t61.5 27h43v-282h74v-75h-239v75zM527 25q0 43 23.5 72t70.5 66q26 19 41 32t25 27q12 16 12 42q0 14 -10.5 25t-30.5 11q-22 0 -33.5 -10t-11.5 -33v-18h-80q-3 14 -3 28q0 51 37 76.5t94 25.5
q71 0 95.5 -35.5t24.5 -73.5q0 -52 -30 -85.5t-81 -67.5q-29 -20 -41 -32h154v-75h-256v25z" />
    <glyph glyph-name="uni2153" unicode="&#x2153;" horiz-adv-x="834" 
d="M658 698h88l-546 -710h-88zM46 404h82v186h-82v55q25 2 60.5 14t61.5 27h43v-282h74v-75h-239v75zM566 17.5q-34 29.5 -34 80.5v7h83v-8q0 -20 12.5 -30.5t34.5 -10.5q21 0 33 10.5t12 31.5q0 45 -50 45h-32v69h34q19 0 30 10.5t11 32.5q0 38 -38 38q-18 0 -29 -10
t-11 -28v-8h-83v12q0 46 34.5 74t87.5 28q56 0 89.5 -26.5t33.5 -75.5q0 -27 -13.5 -45t-40.5 -32v-4q29 -11 45 -32.5t16 -52.5q0 -49 -35.5 -77t-92.5 -28q-63 0 -97 29.5z" />
    <glyph glyph-name="uni2154" unicode="&#x2154;" horiz-adv-x="834" 
d="M35 354q0 43 23.5 72t70.5 66q26 19 41 32t25 27q12 16 12 42q0 14 -10.5 25t-30.5 11q-22 0 -33.5 -10t-11.5 -33v-18h-80q-1 2 -2 9.5t-1 18.5q0 51 37 76.5t94 25.5q71 0 95.5 -35.5t24.5 -73.5q0 -52 -30 -85.5t-81 -67.5q-29 -20 -41 -32h154v-75h-256v25zM666 698
h88l-546 -710h-88zM566 17.5q-34 29.5 -34 80.5v7h83v-8q0 -20 12.5 -30.5t34.5 -10.5q21 0 33 10.5t12 31.5q0 45 -50 45h-32v69h34q19 0 30 10.5t11 32.5q0 38 -38 38q-18 0 -29 -10t-11 -28v-8h-83v12q0 46 34.5 74t87.5 28q56 0 89.5 -26.5t33.5 -75.5q0 -27 -13.5 -45
t-40.5 -32v-4q29 -11 45 -32.5t16 -52.5q0 -49 -35.5 -77t-92.5 -28q-63 0 -97 29.5z" />
    <glyph glyph-name="onequarter" unicode="&#xbc;" horiz-adv-x="834" 
d="M646 698h88l-546 -710h-88zM46 404h82v186h-82v55q25 2 60.5 14t61.5 27h43v-282h74v-75h-239v75zM660 71h-150v64q49 80 90 234h89q-14 -60 -45.5 -127.5t-55.5 -101.5h72v48q23 44 39 100h44v-148h40v-69h-40v-70h-83v70z" />
    <glyph glyph-name="threequarters" unicode="&#xbe;" horiz-adv-x="834" 
d="M72 354.5q-34 29.5 -34 80.5v7h83v-8q0 -20 12.5 -30.5t34.5 -10.5q21 0 33 10.5t12 31.5q0 45 -50 45h-32v69h34q19 0 30 10.5t11 32.5q0 38 -38 38q-18 0 -29 -10t-11 -28v-8h-83v12q0 46 34.5 74t87.5 28q56 0 89.5 -26.5t33.5 -75.5q0 -27 -13.5 -45t-40.5 -32v-4
q29 -11 45 -32.5t16 -52.5q0 -49 -35.5 -77t-92.5 -28q-63 0 -97 29.5zM646 698h88l-546 -710h-88zM660 71h-150v64q49 80 90 234h89q-14 -60 -45.5 -127.5t-55.5 -101.5h72v48q23 44 39 100h44v-148h40v-69h-40v-70h-83v70z" />
    <glyph glyph-name="oneeighth" unicode="&#x215b;" horiz-adv-x="834" 
d="M656 698h88l-546 -710h-88zM46 404h82v186h-82v55q25 2 60.5 14t61.5 27h43v-282h74v-75h-239v75zM563.5 18q-32.5 30 -32.5 78q0 60 54 85q-22 14 -33.5 34t-11.5 44q0 44 32 73.5t90 29.5t90 -29.5t32 -73.5q0 -50 -46 -78q55 -26 55 -85q0 -48 -32.5 -78t-98.5 -30
t-98.5 30zM691.5 223q10.5 11 10.5 30q0 20 -10.5 30.5t-29.5 10.5q-39 0 -39 -41t39 -41q19 0 29.5 11zM696.5 68q12.5 12 12.5 33t-12.5 32.5t-34.5 11.5q-23 0 -35 -11.5t-12 -32.5t12 -33t35 -12q22 0 34.5 12z" />
    <glyph glyph-name="threeeighths" unicode="&#x215c;" horiz-adv-x="834" 
d="M71 354.5q-34 29.5 -34 80.5v7h83v-8q0 -20 12.5 -30.5t34.5 -10.5q21 0 33 10.5t12 31.5q0 45 -50 45h-32v69h34q19 0 30 10.5t11 32.5q0 38 -38 38q-18 0 -29 -10t-11 -28v-8h-83v12q0 46 34.5 74t87.5 28q56 0 89.5 -26.5t33.5 -75.5q0 -27 -13.5 -45t-40.5 -32v-4
q29 -11 45 -32.5t16 -52.5q0 -49 -35.5 -77t-92.5 -28q-63 0 -97 29.5zM646 698h88l-546 -710h-88zM563.5 18q-32.5 30 -32.5 78q0 60 54 85q-22 14 -33.5 34t-11.5 44q0 44 32 73.5t90 29.5t90 -29.5t32 -73.5q0 -50 -46 -78q55 -26 55 -85q0 -48 -32.5 -78t-98.5 -30
t-98.5 30zM691.5 223q10.5 11 10.5 30q0 20 -10.5 30.5t-29.5 10.5q-39 0 -39 -41t39 -41q19 0 29.5 11zM696.5 68q12.5 12 12.5 33t-12.5 32.5t-34.5 11.5q-23 0 -35 -11.5t-12 -32.5t12 -33t35 -12q22 0 34.5 12z" />
    <glyph glyph-name="fiveeighths" unicode="&#x215d;" horiz-adv-x="834" 
d="M646 698h88l-546 -710h-88zM76 350q-35 31 -35 85h84q0 -23 11.5 -35.5t33.5 -12.5q20 0 32 15t12 43q0 26 -12 39t-32 13q-24 0 -42 -25l-76 10l14 204h214v-74h-143l-4 -62q24 14 57 14q48 0 78 -30.5t30 -88.5q0 -60 -34 -93t-94 -33q-59 0 -94 31zM563.5 18
q-32.5 30 -32.5 78q0 60 54 85q-22 14 -33.5 34t-11.5 44q0 44 32 73.5t90 29.5t90 -29.5t32 -73.5q0 -50 -46 -78q55 -26 55 -85q0 -48 -32.5 -78t-98.5 -30t-98.5 30zM691.5 223q10.5 11 10.5 30q0 20 -10.5 30.5t-29.5 10.5q-39 0 -39 -41t39 -41q19 0 29.5 11zM696.5 68
q12.5 12 12.5 33t-12.5 32.5t-34.5 11.5q-23 0 -35 -11.5t-12 -32.5t12 -33t35 -12q22 0 34.5 12z" />
    <glyph glyph-name="seveneighths" unicode="&#x215e;" horiz-adv-x="834" 
d="M629 698h88l-546 -710h-88zM142 473.5q29 73.5 85 138.5h-165v74h263v-56q-126 -153 -126 -273q0 -20 1 -33h-87q0 76 29 149.5zM546.5 18q-32.5 30 -32.5 78q0 60 54 85q-22 14 -33.5 34t-11.5 44q0 44 32 73.5t90 29.5t90 -29.5t32 -73.5q0 -50 -46 -78q55 -26 55 -85
q0 -48 -32.5 -78t-98.5 -30t-98.5 30zM674.5 223q10.5 11 10.5 30q0 20 -10.5 30.5t-29.5 10.5q-39 0 -39 -41t39 -41q19 0 29.5 11zM679.5 68q12.5 12 12.5 33t-12.5 32.5t-34.5 11.5q-23 0 -35 -11.5t-12 -32.5t12 -33t35 -12q22 0 34.5 12z" />
    <glyph glyph-name="asterisk" unicode="*" horiz-adv-x="389" 
d="M168 481l-96 -74l-41 71l112 46l-112 47l41 70l96 -74l-17 119h83l-17 -118l96 73l41 -70l-112 -47l112 -46l-41 -71l-96 74l17 -119h-83z" />
    <glyph glyph-name="backslash" unicode="\" horiz-adv-x="278" 
d="M1 735h95l181 -784h-96z" />
    <glyph glyph-name="periodcentered" unicode="&#xb7;" horiz-adv-x="333" 
d="M96 426h138v-137h-138v137z" />
    <glyph glyph-name="bullet" unicode="&#x2022;" horiz-adv-x="350" 
d="M107 226q-31 18 -49 49t-18 68t18 68t49 49.5t68 18.5t68 -18.5t49.5 -49.5t18.5 -68t-18.5 -68t-49.5 -49t-68 -18t-68 18z" />
    <glyph glyph-name="colon" unicode=":" horiz-adv-x="333" 
d="M97 526h138v-137h-138v137zM97 137h138v-137h-138v137z" />
    <glyph glyph-name="comma" unicode="," horiz-adv-x="278" 
d="M125 0h-55v137h138v-125l-66 -168h-72z" />
    <glyph glyph-name="ellipsis" unicode="&#x2026;" horiz-adv-x="1000" 
d="M98 137h138v-137h-138v137zM431 137h138v-137h-138v137zM764 137h138v-137h-138v137z" />
    <glyph glyph-name="exclam" unicode="!" horiz-adv-x="333" 
d="M90 686h153l-36 -489h-82zM98 137h138v-137h-138v137z" />
    <glyph glyph-name="exclamdbl" unicode="&#x203c;" horiz-adv-x="604" 
d="M90 0zM361 686h153l-36 -489h-82zM369 137h138v-137h-138v137zM90 686h153l-36 -489h-82zM98 137h138v-137h-138v137z" />
    <glyph glyph-name="exclamdown" unicode="&#xa1;" horiz-adv-x="333" 
d="M98 525h138v-137h-138v137zM125 328h82l36 -489h-153z" />
    <glyph glyph-name="numbersign" unicode="#" horiz-adv-x="556" 
d="M72 163h-63v108h85l25 123h-64v108h86l41 196h104l-41 -196h120l41 196h104l-41 -196h75v-108h-97l-25 -123h76v-108h-98l-35 -175h-104l35 175h-120l-35 -175h-104zM318 271l25 123h-120l-25 -123h120z" />
    <glyph glyph-name="uni203E" unicode="&#x203e;" horiz-adv-x="333" 
d="M-15 888h364v-98h-364v98z" />
    <glyph glyph-name="period" unicode="." horiz-adv-x="278" 
d="M70 137h138v-137h-138v137z" />
    <glyph glyph-name="question" unicode="?" 
d="M235 240q0 46 14 78.5t33 52t50 42.5q32 23 47.5 42t15.5 47q0 75 -97 75q-57 0 -78 -28.5t-21 -62.5q0 -11 0.5 -18t0.5 -9h-139q-1 3 -2.5 13t-1.5 22q0 57 28.5 103.5t85 73.5t137.5 27q111 0 173.5 -45.5t62.5 -132.5q0 -45 -14.5 -77.5t-35 -53t-54.5 -46.5
q-41 -33 -60.5 -57t-19.5 -61v-28h-125v43zM229 137h138v-137h-138v137z" />
    <glyph glyph-name="questiondown" unicode="&#xbf;" 
d="M251 526h138v-137h-138v137zM136.5 -126.5q-62.5 45.5 -62.5 132.5q0 45 14.5 77.5t35 53t54.5 46.5q41 33 60.5 57t19.5 61v28h125v-43q0 -46 -14 -78.5t-33 -52t-50 -42.5q-32 -23 -47.5 -42t-15.5 -47q0 -75 97 -75q57 0 78 28.5t21 62.5q0 11 -0.5 18t-0.5 9h139
q1 -3 2.5 -13t1.5 -22q0 -57 -28.5 -103.5t-85 -73.5t-137.5 -27q-111 0 -173.5 45.5z" />
    <glyph glyph-name="quotedbl" unicode="&#x22;" horiz-adv-x="474" 
d="M53 539v147h149v-147l-21 -132h-106zM273 539v147h149v-147l-21 -132h-106z" />
    <glyph glyph-name="quotesingle" unicode="'" horiz-adv-x="238" 
d="M49 539v147h149v-147l-21 -132h-106z" />
    <glyph glyph-name="semicolon" unicode=";" horiz-adv-x="333" 
d="M97 526h138v-137h-138v137zM152 0h-55v137h138v-125l-66 -168h-72z" />
    <glyph glyph-name="slash" unicode="/" horiz-adv-x="278" 
d="M182 735h95l-180 -784h-96z" />
    <glyph glyph-name="underscore" unicode="_" horiz-adv-x="556" 
d="M0 -62h556v-98h-556v98z" />
    <glyph glyph-name="underscoredbl" unicode="&#x2017;" horiz-adv-x="552" 
d="M0 -62h552v-91h-552v91zM0 -221h552v-91h-552v91z" />
    <glyph glyph-name="braceleft" unicode="{" horiz-adv-x="389" 
d="M223 -147.5q-46 11.5 -71.5 43.5t-25.5 93v193q0 31 -28.5 45.5t-68.5 14.5v92q40 0 68.5 14.5t28.5 45.5v193q0 61 25.5 93t71.5 43.5t120 11.5v-77q-41 0 -70 -13.5t-29 -47.5q0 -40 -4 -120l-3 -76q-2 -53 -31.5 -80.5t-96.5 -27.5v-10q66 0 96 -27t32 -81l3 -76
q4 -80 4 -120q0 -61 99 -61v-77q-74 0 -120 11.5z" />
    <glyph glyph-name="braceright" unicode="}" horiz-adv-x="389" 
d="M46 -82q99 0 99 61q0 40 4 120l3 76q2 54 32 81t96 27v10q-67 0 -96.5 27.5t-31.5 80.5l-3 76q-4 80 -4 120q0 34 -29 47.5t-70 13.5v77q74 0 120 -11.5t71.5 -43.5t25.5 -93v-193q0 -31 28.5 -45.5t68.5 -14.5v-92q-40 0 -68.5 -14.5t-28.5 -45.5v-193q0 -61 -25.5 -93
t-71.5 -43.5t-120 -11.5v77z" />
    <glyph glyph-name="bracketleft" unicode="[" horiz-adv-x="333" 
d="M71 735h216v-95h-100v-706h100v-95h-216v896z" />
    <glyph glyph-name="bracketright" unicode="]" horiz-adv-x="333" 
d="M46 -66h100v706h-100v95h216v-896h-216v95z" />
    <glyph glyph-name="parenleft" unicode="(" horiz-adv-x="333" 
d="M94 50q-43 115 -43 238q0 124 43 240t123 208h88q-58 -96 -94.5 -214.5t-36.5 -230.5q0 -113 36.5 -232.5t94.5 -215.5h-88q-80 92 -123 207z" />
    <glyph glyph-name="parenright" unicode=")" horiz-adv-x="333" 
d="M122.5 58.5q36.5 119.5 36.5 232.5q0 112 -36.5 230.5t-94.5 214.5h88q80 -92 123 -208t43 -240q0 -123 -43 -238t-123 -207h-88q58 96 94.5 215.5z" />
    <glyph glyph-name="emdash" unicode="&#x2014;" horiz-adv-x="1000" 
d="M0 319h1000v-98h-1000v98z" />
    <glyph glyph-name="endash" unicode="&#x2013;" horiz-adv-x="556" 
d="M0 319h556v-98h-556v98z" />
    <glyph glyph-name="uni2015" unicode="&#x2015;" horiz-adv-x="1000" 
d="M32 319h936v-98h-936v98z" />
    <glyph glyph-name="hyphen" unicode="-" horiz-adv-x="333" 
d="M46 329h241v-118h-241v118z" />
    <glyph glyph-name="uni00AD" unicode="&#xad;" horiz-adv-x="333" 
d="M46 329h241v-118h-241v118z" />
    <glyph glyph-name="guillemotleft" unicode="&#xab;" horiz-adv-x="556" 
d="M59 326l136 200h99l-108 -200l108 -200h-99zM282 326l136 200h99l-108 -200l108 -200h-99z" />
    <glyph glyph-name="guillemotright" unicode="&#xbb;" horiz-adv-x="556" 
d="M147 326l-108 200h99l136 -200l-136 -200h-99zM370 326l-108 200h99l136 -200l-136 -200h-99z" />
    <glyph glyph-name="guilsinglleft" unicode="&#x2039;" horiz-adv-x="333" 
d="M59 326l136 200h99l-108 -200l108 -200h-99z" />
    <glyph glyph-name="guilsinglright" unicode="&#x203a;" horiz-adv-x="333" 
d="M147 326l-108 200h99l136 -200l-136 -200h-99z" />
    <glyph glyph-name="quotedblbase" unicode="&#x201e;" horiz-adv-x="500" 
d="M125 0h-55v137h138v-125l-66 -168h-72zM347 0h-55v137h138v-125l-66 -168h-72z" />
    <glyph glyph-name="quotedblleft" unicode="&#x201c;" horiz-adv-x="500" 
d="M70 518l66 168h72l-55 -156h55v-137h-138v125zM292 518l66 168h72l-55 -156h55v-137h-138v125z" />
    <glyph glyph-name="quotedblright" unicode="&#x201d;" horiz-adv-x="500" 
d="M125 549h-55v137h138v-125l-66 -168h-72zM347 549h-55v137h138v-125l-66 -168h-72z" />
    <glyph glyph-name="quoteleft" unicode="&#x2018;" horiz-adv-x="278" 
d="M70 518l66 168h72l-55 -156h55v-137h-138v125z" />
    <glyph glyph-name="quotereversed" unicode="&#x201b;" horiz-adv-x="278" 
d="M70 561v125h138v-137h-55l55 -156h-72z" />
    <glyph glyph-name="quoteright" unicode="&#x2019;" horiz-adv-x="278" 
d="M125 549h-55v137h138v-125l-66 -168h-72z" />
    <glyph glyph-name="quotesinglbase" unicode="&#x201a;" horiz-adv-x="278" 
d="M125 0h-55v137h138v-125l-66 -168h-72z" />
    <glyph glyph-name="uni00A0" unicode="&#xa0;" horiz-adv-x="278" 
 />
    <glyph glyph-name="cent" unicode="&#xa2;" horiz-adv-x="556" 
d="M259 69q-111 8 -166 75t-55 199t55 199t166 75v106h51v-106q96 -5 152.5 -58.5t56.5 -150.5h-138q0 41 -18.5 66t-52.5 32v-327q36 5 56.5 30.5t20.5 68.5h132q0 -98 -56 -151.5t-153 -58.5v-117h-51v118zM259 505q-43 -9 -62.5 -47.5t-19.5 -106.5v-16q0 -66 20 -105
t62 -49v324z" />
    <glyph glyph-name="currency" unicode="&#xa4;" horiz-adv-x="556" 
d="M29 144l54 56q-25 31 -37.5 70t-12.5 81q0 43 12.5 82.5t37.5 67.5l-55 54l48 48l57 -56q28 24 66.5 37.5t78.5 13.5t78.5 -13.5t66.5 -37.5l57 56l48 -48l-55 -54q25 -28 37.5 -67.5t12.5 -82.5q0 -42 -12.5 -81t-37.5 -70l54 -56l-45 -45l-55 58q-29 -27 -68 -41
t-81 -14t-81 14t-68 41l-55 -58zM359.5 204.5q37.5 23.5 59.5 62.5t22 84q0 44 -22 82.5t-59.5 62t-81.5 23.5t-81.5 -23.5t-59.5 -62t-22 -82.5q0 -45 22 -84t59.5 -62.5t81.5 -23.5t81.5 23.5z" />
    <glyph glyph-name="dollar" unicode="$" horiz-adv-x="556" 
d="M253 68q-101 5 -157 50t-56 117q0 7 1 12h128v-7q1 -31 24.5 -48t59.5 -21v125q-63 15 -104 31t-70 47.5t-29 83.5q0 72 56 113t147 46v106h51v-106q86 -5 141 -43t55 -99l-1 -23h-128v1q0 26 -17.5 41t-49.5 20v-110q66 -15 108.5 -30.5t73 -48.5t30.5 -87
q0 -160 -212 -170v-117h-51v117zM253 515q-33 -3 -52 -15t-19 -30q0 -20 18 -32t53 -21v98zM361.5 185.5q22.5 11.5 22.5 35.5q0 22 -20.5 36t-59.5 25v-111q35 3 57.5 14.5z" />
    <glyph glyph-name="Euro" unicode="&#x20ac;" horiz-adv-x="556" 
d="M199.5 52q-85.5 64 -117.5 175h-72v81h58q-1 11 -1 35q0 23 1 35h-58v81h72q32 110 117.5 174.5t203.5 64.5q58 0 119 -18v-110q-46 16 -94 16q-69 0 -121.5 -33.5t-78.5 -93.5h222v-81h-243q-2 -20 -2 -35q0 -13 2 -35h243v-81h-222q26 -60 78.5 -93.5t121.5 -33.5
q52 0 94 16v-110q-55 -18 -119 -18q-118 0 -203.5 64z" />
    <glyph glyph-name="florin" unicode="&#x192;" horiz-adv-x="556" 
d="M62 -178q-24 5 -39 11l20 96h50q42 0 51 43l87 406h-75l23 112h75l21 96q13 62 55 103.5t118 41.5q21 0 45 -5t39 -11l-20 -96h-50q-43 0 -52 -43l-19 -86h93l-23 -112h-93l-89 -416q-13 -62 -55 -103.5t-117 -41.5q-21 0 -45 5z" />
    <glyph glyph-name="franc" unicode="&#x20a3;" horiz-adv-x="556" 
d="M60 686h357v-123h-212v-184h87v85h117l11 -85h7q27 97 87 97q15 0 26 -3.5t14 -5.5v-128h-38q-46 0 -66.5 -36.5t-20.5 -110.5v-192h-137v256h-87v-256h-145v686z" />
    <glyph glyph-name="uni20B2" unicode="&#x20b2;" horiz-adv-x="590" 
d="M337 373h196v-303h-100l-13 46q-45 -42 -120 -47v-118h-51v118q-100 8 -155.5 75.5t-55.5 193.5t55 195.5t156 81.5v108h51v-105q102 -2 167.5 -52t65.5 -144h-143q0 32 -24 52t-66 21v-304q38 2 63 19.5t25 43.5h-51v119zM194.5 239.5q17.5 -32.5 54.5 -43.5v291
q-35 -13 -53.5 -46t-18.5 -83v-30q0 -56 17.5 -88.5z" />
    <glyph glyph-name="lira" unicode="&#x20a4;" horiz-adv-x="556" 
d="M24 112h62v82h-75v92h75v53h-75v92h75v68q0 98 57 148.5t162 50.5q102 0 160.5 -49.5t58.5 -144.5v-13h-136v17q0 37 -22.5 57.5t-60.5 20.5q-37 0 -59 -20.5t-22 -53.5v-81h156v-92h-158v-53h158v-92h-158l-12 -82h306v-112h-492v112z" />
    <glyph glyph-name="peseta" unicode="&#x20a7;" horiz-adv-x="1094" 
d="M524.5 28.5q-27.5 40.5 -27.5 100.5v285h-23q-12 -85 -72 -131.5t-165 -46.5h-27v-236h-143v686h180q96 0 152.5 -41.5t72.5 -118.5h28l23 148h106v-148h158q38 12 81 12q78 0 128.5 -38.5t50.5 -104.5q0 -13 -1 -23h-123v1q0 29 -16 44t-43 15q-24 0 -38 -11t-14 -31
q0 -25 21 -36.5t66 -24.5q50 -15 82 -30t55.5 -49t23.5 -92q0 -170 -196 -170q-60 0 -103 20.5t-66 57.5v-62q-2 -1 -12.5 -5t-28 -7.5t-39.5 -3.5q-63 0 -90.5 40.5zM239 359q47 0 72 27t25 76q0 48 -25 74.5t-72 26.5h-29v-204h29zM910 105q18 11 18 36q0 28 -22 42
t-70 28q-49 15 -80 30.5t-53.5 48.5t-22.5 88q0 20 3 36h-54v-271q0 -43 43 -43h8q-8 27 -8 55l1 12h123v-7q1 -35 22 -50.5t50 -15.5q24 0 42 11z" />
    <glyph glyph-name="sterling" unicode="&#xa3;" horiz-adv-x="556" 
d="M24 112h62v170h-75v112h75v105q0 98 57 148.5t162 50.5q102 0 160.5 -49.5t58.5 -144.5v-13h-136v17q0 37 -22.5 57.5t-60.5 20.5q-37 0 -59 -20.5t-22 -53.5v-118h156v-112h-158l-12 -170h306v-112h-492v112z" />
    <glyph glyph-name="yen" unicode="&#xa5;" horiz-adv-x="556" 
d="M211 142h-189v81h189v70h-189v81h145l-30 57l-137 255h157l91 -195l33 -69h5l32 70l90 194h149l-129 -243l-37 -69h146v-81h-189v-70h189v-81h-189v-142h-137v142z" />
    <glyph glyph-name="uni2219" unicode="&#x2219;" horiz-adv-x="350" 
d="M120 207q-20 20 -20 48t20 48t48 20t48 -20t20 -48t-20 -48t-48 -20t-48 20z" />
    <glyph glyph-name="uni2215" unicode="&#x2215;" horiz-adv-x="167" 
d="M312 698h88l-546 -710h-88z" />
    <glyph glyph-name="equivalence" unicode="&#x2261;" horiz-adv-x="583" 
d="M56 546h473v-104h-473v104zM56 333h473v-104h-473v104zM56 120h473v-103h-473v103z" />
    <glyph glyph-name="integralbt" unicode="&#x2321;" horiz-adv-x="604" 
d="M177 -181q77 0 77 57l-17 983h114q14 -880 14 -997q0 -65 -50 -88.5t-138 -23.5v69z" />
    <glyph glyph-name="integraltp" unicode="&#x2320;" horiz-adv-x="604" 
d="M239 747q0 65 50 88.5t138 23.5v-69q-77 0 -77 -57l17 -983h-114q-14 880 -14 997z" />
    <glyph glyph-name="revlogicalnot" unicode="&#x2310;" horiz-adv-x="584" 
d="M42 455h500v-98h-402v-164h-98v262z" />
    <glyph glyph-name="plus" unicode="+" horiz-adv-x="584" 
d="M240 203h-184v104h184v204h103v-204h185v-104h-185v-203h-103v203z" />
    <glyph glyph-name="minus" unicode="&#x2212;" horiz-adv-x="584" 
d="M56 308h472v-104h-472v104z" />
    <glyph glyph-name="multiply" unicode="&#xd7;" horiz-adv-x="584" 
d="M75 111l144 144l-144 144l72 73l145 -144l145 145l73 -74l-145 -145l144 -143l-73 -73l-144 144l-144 -145z" />
    <glyph glyph-name="divide" unicode="&#xf7;" horiz-adv-x="549" 
d="M214 512h120v-110h-120v110zM39 308h472v-105h-472v105zM214 111h120v-110h-120v110z" />
    <glyph glyph-name="equal" unicode="=" horiz-adv-x="584" 
d="M56 412h472v-104h-472v104zM56 199h472v-103h-472v103z" />
    <glyph glyph-name="notequal" unicode="&#x2260;" horiz-adv-x="549" 
d="M147 96h-109v103h164l58 109h-222v104h277l39 72h86l-39 -72h109v-104h-164l-58 -109h222v-103h-277l-38 -71h-86z" />
    <glyph glyph-name="greater" unicode="&#x3e;" horiz-adv-x="584" 
d="M56 120l373 142l-373 142v118l474 -197v-127l-474 -196v118z" />
    <glyph glyph-name="less" unicode="&#x3c;" horiz-adv-x="584" 
d="M54 198v127l474 197v-118l-373 -142l373 -142v-118z" />
    <glyph glyph-name="greaterequal" unicode="&#x2265;" horiz-adv-x="549" 
d="M38 241l373 142l-373 142v118l474 -197v-127l-474 -196v118zM38 104h473v-104h-473v104z" />
    <glyph glyph-name="lessequal" unicode="&#x2264;" horiz-adv-x="549" 
d="M38 319v127l474 197v-118l-373 -142l373 -142v-118zM39 104h473v-104h-473v104z" />
    <glyph glyph-name="plusminus" unicode="&#xb1;" horiz-adv-x="549" 
d="M223 352h-184v104h184v204h103v-204h185v-104h-185v-203h-103v203zM39 104h472v-104h-472v104z" />
    <glyph glyph-name="approxequal" unicode="&#x2248;" horiz-adv-x="549" 
d="M27 372q0 3 18.5 22t50.5 35t74 16q25 0 46.5 -7.5t55.5 -22.5q31 -15 55 -23t50 -8q37 0 69 16t53 35.5t21 21.5v-120q0 -3 -18.5 -22t-50.5 -35t-74 -16q-25 0 -46.5 7.5t-55.5 22.5q-31 15 -55 23t-50 8q-37 0 -69 -16t-53 -35.5t-21 -21.5v120zM27 161q0 3 18.5 22
t50.5 35t74 16q25 0 46.5 -7.5t55.5 -22.5q31 -15 55 -23t50 -8q37 0 69 16t53 35.5t21 21.5v-120q0 -3 -18.5 -22t-50.5 -35t-74 -16q-25 0 -46.5 7.5t-55.5 22.5q-31 15 -55 23t-50 8q-37 0 -69 -16t-53 -35.5t-21 -21.5v120z" />
    <glyph glyph-name="asciitilde" unicode="~" horiz-adv-x="584" 
d="M41 318q0 3 18.5 21.5t51 34.5t75.5 16q25 0 47.5 -7.5t57.5 -22.5q34 -15 57.5 -22.5t49.5 -7.5q38 0 70 16t53.5 35t21.5 21v-119q0 -3 -18.5 -21.5t-51 -34.5t-75.5 -16q-25 0 -47.5 7.5t-57.5 22.5q-34 15 -57.5 22.5t-49.5 7.5q-38 0 -70 -16t-53.5 -35t-21.5 -21
v119z" />
    <glyph glyph-name="logicalnot" unicode="&#xac;" horiz-adv-x="584" 
d="M444 357h-402v98h500v-262h-98v164z" />
    <glyph glyph-name="infinity" unicode="&#x221e;" horiz-adv-x="713" 
d="M122.5 157.5q-34.5 19.5 -55 55.5t-20.5 83t20.5 83.5t56.5 57t80 20.5q49 0 87 -22.5t71 -67.5q5 6 28.5 32t54.5 42t67 16q41 0 76 -19t55.5 -54t20.5 -82q0 -50 -21 -87.5t-56 -57t-75 -19.5t-79.5 19t-78.5 75q-37 -47 -73.5 -70.5t-84.5 -23.5q-39 0 -73.5 19.5z
M309 293q-32 49 -52 65.5t-51 16.5q-28 0 -46.5 -20.5t-18.5 -57.5q0 -31 19.5 -53.5t48.5 -22.5q51 0 100 72zM553 245q17 24 17 51q0 34 -18.5 56.5t-48.5 22.5q-25 0 -45 -16t-55 -61q33 -46 55.5 -61.5t49.5 -15.5q28 0 45 24z" />
    <glyph glyph-name="intersection" unicode="&#x2229;" horiz-adv-x="722" 
d="M94 410q0 75 35.5 136t96.5 95.5t134 34.5t134 -34.5t96.5 -95.5t35.5 -136v-410h-92v410q0 51 -23 92t-62.5 64t-87.5 23t-88 -23t-63.5 -64t-23.5 -92v-410h-92v410z" />
    <glyph glyph-name="integral" unicode="&#x222b;" horiz-adv-x="274" 
d="M23 -71q75 0 75 58l-15.5 382t-11.5 378q0 65 50 88.5t138 23.5v-69q-77 0 -77 -57q5 -98 16.5 -383.5t11.5 -378.5q0 -65 -49.5 -88.5t-137.5 -23.5v70z" />
    <glyph glyph-name="uni2126" unicode="&#x2126;" horiz-adv-x="802" 
d="M33 0zM33 123h51q7 0 45 -6q31 -5 55 -8q-62 41 -96.5 105t-34.5 149q0 105 42 180.5t120 115t186 39.5t186 -39.5t120 -115t42 -180.5q0 -85 -35 -148.5t-97 -105.5q25 3 58 8q34 6 43 6h51v-123h-332v110q80 14 121.5 67.5t41.5 138.5v32q0 227 -199 227t-199 -227v-32
q0 -84 41.5 -137t121.5 -68v-111h-332v123z" />
    <glyph glyph-name="uni2206" unicode="&#x2206;" horiz-adv-x="612" 
d="M319 698l280 -698h-586zM462 64l-168 417l-181 -417h349z" />
    <glyph glyph-name="product" unicode="&#x220f;" horiz-adv-x="823" 
d="M130 598h-89v125h741v-125h-91v-726h-144v726h-272v-726h-145v726z" />
    <glyph glyph-name="summation" unicode="&#x2211;" horiz-adv-x="713" 
d="M59 -28l292 327l-282 310v114h602v-125h-405v-4l254 -279l-277 -314v-4h447v-125h-631v100z" />
    <glyph glyph-name="radical" unicode="&#x221a;" horiz-adv-x="549" 
d="M117 266l-60 -23l-27 80l172 72l103 -281l34 -92l130 835h79l-162 -1005h-110z" />
    <glyph glyph-name="uni00B5" unicode="&#xb5;" horiz-adv-x="576" 
d="M52 0zM52 526h137v-324q0 -49 23 -71t68 -22q46 0 76.5 32.5t30.5 80.5v304h137v-526h-117l-10 69h-7q-19 -39 -51 -60t-75 -21q-55 0 -83 31q8 -67 8 -95v-97h-137v699z" />
    <glyph glyph-name="partialdiff" unicode="&#x2202;" horiz-adv-x="494" 
d="M117 17q-41 29 -61.5 78.5t-20.5 108.5q0 73 26.5 129t69.5 86t93 30q39 0 67 -21t40 -44h4q1 6 1 34q0 60 -17.5 110t-48.5 79t-69 29q-61 0 -108 -34v104q56 29 128 29q62 0 115.5 -37.5t86 -116.5t32.5 -198q0 -186 -62.5 -290.5t-176.5 -104.5q-58 0 -99 29z
M293.5 146q28.5 56 34.5 133q-8 29 -29.5 51t-51.5 22q-24 0 -44 -20.5t-31.5 -55t-11.5 -75.5q0 -50 16.5 -80.5t46.5 -30.5q42 0 70.5 56z" />
    <glyph glyph-name="orthogonal" unicode="&#x221f;" horiz-adv-x="979" 
d="M177 625h89v-536h536v-89h-625v625z" />
    <glyph glyph-name="percent" unicode="%" horiz-adv-x="889" 
d="M88 377.5q-42 40.5 -42 139.5t42 140t125 41t125 -41t42 -140t-42 -139.5t-125 -40.5t-125 40.5zM647 686h104l-507 -686h-102zM262.5 441.5q13.5 23.5 13.5 68.5v15q0 45 -13.5 68.5t-49.5 23.5t-49.5 -23t-13.5 -69v-15q0 -46 13.5 -69t49.5 -23t49.5 23.5zM552 28.5
q-42 40.5 -42 139.5t42 140t125 41t125 -41t42 -140t-42 -139.5t-125 -40.5t-125 40.5zM726.5 92.5q13.5 23.5 13.5 68.5v15q0 45 -13.5 68.5t-49.5 23.5t-49.5 -23.5t-13.5 -68.5v-15q0 -45 13.5 -68.5t49.5 -23.5t49.5 23.5z" />
    <glyph glyph-name="perthousand" unicode="&#x2030;" horiz-adv-x="1000" 
d="M54 377.5q-36 40.5 -36 139.5t36 140t107 41t107 -41t36 -140t-36 -139.5t-107 -40.5t-107 40.5zM483 686h90l-378 -686h-88zM191.5 441q8.5 23 8.5 69v15q0 46 -8.5 69t-30.5 23t-30.5 -23t-8.5 -69v-15q0 -46 8.5 -69t30.5 -23t30.5 23zM412 29.5q-36 40.5 -36 139.5
t36 140t107 41t107 -41t36 -140t-36 -139.5t-107 -40.5t-107 40.5zM730 29.5q-36 40.5 -36 139.5t36 140t107 41t107 -41t36 -140t-36 -139.5t-107 -40.5t-107 40.5zM549.5 93q8.5 23 8.5 69v15q0 46 -8.5 69t-30.5 23t-30.5 -23t-8.5 -69v-15q0 -46 8.5 -69t30.5 -23
t30.5 23zM867.5 93q8.5 23 8.5 69v15q0 46 -8.5 69t-30.5 23t-30.5 -23t-8.5 -69v-15q0 -46 8.5 -69t30.5 -23t30.5 23z" />
    <glyph glyph-name="arrowup" unicode="&#x2191;" horiz-adv-x="500" 
d="M197 515l-129 -53v52l173 197h21l173 -197v-52l-129 53v-722h-109v722z" />
    <glyph glyph-name="arrowright" unicode="&#x2192;" horiz-adv-x="1000" 
d="M764 198h-722v108h722l-53 130h52l197 -174v-21l-197 -173h-52z" />
    <glyph glyph-name="arrowdown" unicode="&#x2193;" horiz-adv-x="500" 
d="M68 -10v52l130 -53v722h108v-722l130 53v-52l-174 -197h-21z" />
    <glyph glyph-name="arrowleft" unicode="&#x2190;" horiz-adv-x="1000" 
d="M42 242v21l197 173h52l-53 -130h722v-108h-722l53 -130h-52z" />
    <glyph glyph-name="arrowboth" unicode="&#x2194;" horiz-adv-x="1000" 
d="M42 242v21l197 173h52l-53 -129h526l-53 129h52l197 -173v-21l-197 -173h-52l53 129h-526l53 -129h-52z" />
    <glyph glyph-name="arrowupdn" unicode="&#x2195;" horiz-adv-x="500" 
d="M65 -10v52l130 -53v526l-130 -53v52l174 197h21l173 -197v-52l-130 53v-526l130 53v-52l-173 -197h-21z" />
    <glyph glyph-name="arrowupdnbse" unicode="&#x21a8;" horiz-adv-x="500" 
d="M65 97v52l130 -53v419l-130 -53v52l174 197h21l173 -197v-52l-130 53v-419l130 53v-52l-173 -197h-21zM66 -147h367v-86h-367v86z" />
    <glyph glyph-name="lozenge" unicode="&#x25ca;" horiz-adv-x="600" 
d="M42 298l179 430h127l178 -430l-178 -431h-127zM400 298l-116 299l-116 -299l116 -300z" />
    <glyph glyph-name="at" unicode="@" horiz-adv-x="975" 
d="M151.5 -51q-112.5 102 -112.5 313q0 153 62.5 250.5t167.5 141.5t239 44q201 0 321 -92.5t120 -284.5q0 -106 -36.5 -173t-90.5 -96.5t-109 -29.5q-43 0 -69.5 14t-39 29.5t-12.5 18.5h-6q-25 -31 -59.5 -47t-89.5 -16q-56 0 -102 28.5t-46 105.5q0 92 75.5 131t213.5 39
v33q0 32 -14 49.5t-53 17.5q-41 0 -59 -13t-18 -30v-14h-120q-1 6 -1 20q0 60 53 96.5t141 36.5q99 0 147.5 -40t48.5 -115v-211q0 -23 10 -32t29 -9q48 0 83 50t35 158q0 152 -94.5 225.5t-258.5 73.5q-180 0 -280 -91t-100 -269q0 -169 84 -253t258 -84q43 0 103 9.5
t91 22.5v-82q-36 -11 -94.5 -19t-99.5 -8q-205 0 -317.5 102zM553.5 148.5q24.5 29.5 24.5 78.5v15q-163 0 -163 -73q0 -22 15.5 -36t45.5 -14q53 0 77.5 29.5z" />
    <glyph glyph-name="ampersand" unicode="&#x26;" horiz-adv-x="722" 
d="M177.5 11.5q-63.5 23.5 -99 68t-35.5 104.5q0 68 37.5 109t102.5 59v4q-60 24 -91.5 59t-31.5 95q0 90 74 139t200 49q77 0 136.5 -23.5t92.5 -66t33 -98.5v-28h-137v19q0 86 -127 86q-66 0 -99.5 -25t-33.5 -70q0 -41 31.5 -64.5t76.5 -23.5h69v-112h-66
q-57 0 -91.5 -21t-34.5 -74q0 -98 140 -98q68 0 101.5 26t33.5 76v203h232v-112h-95v-88q0 -100 -71 -158t-203 -58q-81 0 -144.5 23.5z" />
    <glyph glyph-name="paragraph" unicode="&#xb6;" horiz-adv-x="556" 
d="M233 253q-57 0 -106 24t-79 73t-30 118q0 113 66.5 165.5t177.5 52.5h266v-61h-61v-793h-84v793h-66v-793h-84v421z" />
    <glyph glyph-name="section" unicode="&#xa7;" horiz-adv-x="556" 
d="M118.5 -143.5q-60.5 38.5 -60.5 104.5l1 23h139v-2q0 -29 21 -43.5t58 -14.5t59.5 15.5t22.5 40.5q0 27 -28.5 46.5t-90.5 47.5q-62 27 -102 50.5t-68.5 61.5t-28.5 90q0 37 21.5 72t61.5 61q-66 49 -66 129q0 78 62.5 119t163.5 41q93 0 153.5 -38.5t60.5 -104.5l-1 -23
h-139v3q0 26 -21.5 40.5t-57.5 14.5q-37 0 -59.5 -14.5t-22.5 -39.5q0 -27 28.5 -46.5t90.5 -47.5q62 -27 102 -50.5t68.5 -61.5t28.5 -90q0 -38 -21.5 -72.5t-61.5 -60.5q66 -51 66 -129t-62.5 -119t-163.5 -41q-93 0 -153.5 38.5zM381 213q0 33 -19 57t-47.5 39.5
t-78.5 37.5l-28 12q-33 -29 -33 -56q0 -37 23.5 -63.5t56.5 -43t92 -40.5q34 27 34 57z" />
    <glyph glyph-name="copyright" unicode="&#xa9;" horiz-adv-x="737" 
d="M190.5 36q-81.5 48 -129.5 129.5t-48 177.5t48 177.5t129.5 129.5t177.5 48t177.5 -48t129.5 -129.5t48 -177.5t-48 -177.5t-129.5 -129.5t-177.5 -48t-177.5 48zM514 89.5q67 39.5 106 106.5t39 147q0 79 -39 146.5t-106 107t-146 39.5t-146 -39.5t-106 -107t-39 -146.5
q0 -80 39 -147t106 -106.5t146 -39.5t146 39.5zM232.5 182q-43.5 51 -43.5 159q0 109 43.5 160t135.5 51q83 0 121.5 -41.5t38.5 -124.5h-78q0 53 -18 76.5t-64 23.5q-52 0 -76 -33.5t-24 -111.5q0 -77 23.5 -110.5t76.5 -33.5q45 0 65.5 25t20.5 75h74q0 -72 -39.5 -119
t-120.5 -47q-92 0 -135.5 51z" />
    <glyph glyph-name="registered" unicode="&#xae;" horiz-adv-x="737" 
d="M190.5 36q-81.5 48 -129.5 129.5t-48 177.5t48 177.5t129.5 129.5t177.5 48t177.5 -48t129.5 -129.5t48 -177.5t-48 -177.5t-129.5 -129.5t-177.5 -48t-177.5 48zM514 89.5q67 39.5 106 106.5t39 147q0 79 -39 146.5t-106 107t-146 39.5t-146 -39.5t-106 -107t-39 -146.5
q0 -80 39 -147t106 -106.5t146 -39.5t146 39.5zM220 551h192q63 0 96 -34t33 -92q0 -41 -17 -71.5t-52 -45.5l87 -170h-84l-78 156h-99v-156h-78v413zM402 361q27 0 43.5 17t16.5 47q0 29 -15.5 44.5t-44.5 15.5h-104v-124h104z" />
    <glyph glyph-name="trademark" unicode="&#x2122;" horiz-adv-x="1000" 
d="M217 613h-139v73h354v-73h-138v-333h-77v333zM474 686h114l97 -303h4l100 303h112v-407h-77v294h-6l-98 -294h-72l-101 301h-2v-301h-71v407z" />
    <glyph glyph-name="uni2105" unicode="&#x2105;" horiz-adv-x="885" 
d="M41 511q0 93 45.5 140t129.5 47q71 0 117 -38t46 -110h-88q0 34 -20.5 54t-52.5 20q-89 0 -89 -105v-16q0 -104 89 -104q34 0 54.5 19t20.5 54h86q0 -73 -45 -110.5t-118 -37.5q-175 0 -175 187zM650 698h84l-512 -710h-84zM528 35q-48 47 -48 140t48 140t135 47t135 -47
t48 -140t-48 -140t-135 -47t-135 47zM734 90q24 27 24 77v16q0 50 -24 77.5t-71 27.5t-71 -27.5t-24 -77.5v-16q0 -50 24 -77t71 -27t71 27z" />
    <glyph glyph-name="degree" unicode="&#xb0;" horiz-adv-x="400" 
d="M121.5 407q-35.5 21 -56.5 56.5t-21 78.5t21 78.5t56.5 56.5t78.5 21t78.5 -21t56.5 -56.5t21 -78.5t-21 -78.5t-56.5 -56.5t-78.5 -21t-78.5 21zM252 489.5q21 21.5 21 52.5t-21 52t-52 21t-52.5 -21t-21.5 -52t21.5 -52.5t52.5 -21.5t52 21.5z" />
    <glyph glyph-name="bar" unicode="|" horiz-adv-x="280" 
d="M90 723h100v-896h-100v896z" />
    <glyph glyph-name="brokenbar" unicode="&#xa6;" horiz-adv-x="280" 
d="M90 723h100v-366h-100v366zM90 193h100v-366h-100v366z" />
    <glyph glyph-name="uni2113" unicode="&#x2113;" horiz-adv-x="489" 
d="M249.5 114q21.5 -27 55.5 -27q52 0 99 30v-103q-52 -26 -112 -26q-93 0 -138 50t-46 131l-53 -37v89q29 21 53 42v245q0 119 47.5 173t119.5 54q68 0 106 -39.5t38 -113.5q0 -65 -52 -146t-139 -164v-74q0 -57 21.5 -84zM228 381q102 118 102 202q0 68 -42 68
q-25 0 -42.5 -34.5t-17.5 -108.5v-127z" />
    <glyph glyph-name="dagger" unicode="&#x2020;" horiz-adv-x="556" 
d="M240 425l-205 -18v113l205 -17l-17 183h108l-17 -183l206 17v-113l-206 18l20 -598h-114z" />
    <glyph glyph-name="daggerdbl" unicode="&#x2021;" horiz-adv-x="556" 
d="M241 13l-205 -17v113l205 -18l-20 169l20 165l-205 -18v113l205 -17l-17 183h108l-17 -183l205 17v-113l-205 18l20 -165l-20 -169l205 18v-113l-205 17l17 -186h-108z" />
    <glyph glyph-name="estimated" unicode="&#x212e;" horiz-adv-x="600" 
d="M165.5 23.5q-58.5 35.5 -89.5 97.5t-31 142t31 142t89.5 97.5t136.5 35.5t136 -36.5t89.5 -101.5t31.5 -147v-5h-406v-165q58 -53 149 -53q65 0 114.5 29t75.5 80l34 -21q-32 -61 -89.5 -95.5t-134.5 -34.5q-78 0 -136.5 35.5zM451 290v151q-60 55 -149 55
q-90 0 -149 -54v-152h298z" />
    <glyph glyph-name="uni2116" unicode="&#x2116;" horiz-adv-x="1115" 
d="M756.5 352q-42.5 48 -42.5 149t42.5 149t129.5 48t129.5 -48t42.5 -149t-42.5 -149t-129.5 -48t-129.5 48zM67 686h141l264 -370q8 -11 22 -35t18 -32l5 3q0 8 -1.5 26t-1.5 32v376h141v-686h-141l-265 373q-12 17 -24 38.5t-15 27.5l-5 -3q0 -7 1.5 -25t1.5 -35v-376
h-141v686zM940 412q17 28 17 84v10q0 56 -17 84t-54 28t-54.5 -28.5t-17.5 -83.5v-10q0 -55 17.5 -83.5t54.5 -28.5t54 28zM730 263h313v-89h-313v89z" />
    <glyph glyph-name="asciicircum" unicode="^" horiz-adv-x="469" 
d="M181 686h107l157 -392h-110l-101 270l-99 -270h-110z" />
    <glyph glyph-name="house" unicode="&#x2302;" horiz-adv-x="604" 
d="M77 310l225 253l225 -253v-310h-450v310zM458 70v213l-156 178l-156 -178v-213h312z" />
    <glyph glyph-name="minute" unicode="&#x2032;" horiz-adv-x="240" 
d="M86 686h130l1 -3l-57 -177h-109z" />
    <glyph glyph-name="second" unicode="&#x2033;" horiz-adv-x="479" 
d="M86 686h130l1 -3l-57 -177h-109zM287 686h130l1 -3l-57 -177h-109z" />
    <glyph glyph-name="ampersand.alt" horiz-adv-x="722" 
d="M535 0l-37 41q-84 -55 -189 -55q-71 0 -127 23.5t-88.5 69t-32.5 108.5q0 64 37.5 111.5t98.5 75.5q-49 61 -49 133q0 61 27.5 104t73 65t98.5 22q49 0 90.5 -18.5t67 -55t25.5 -88.5q0 -56 -36.5 -110t-102.5 -86l109 -119q26 56 27 133h127q-4 -134 -68 -227l116 -127
h-167zM294.5 571q-18.5 -20 -18.5 -57q0 -55 47 -102q43 18 62.5 46.5t19.5 61.5q0 34 -18.5 52.5t-45.5 18.5q-28 0 -46.5 -20zM422 125l-156 172q-34 -14 -50.5 -38.5t-16.5 -64.5q0 -44 35 -71.5t88 -27.5q52 0 100 30z" />
    <glyph glyph-name="hookabovecomb" unicode="&#x309;" horiz-adv-x="0" 
d="M-220 645h14q18 0 25 4.5t7 14.5q0 11 -8.5 15t-26.5 4h-58v44q38 8 83 8q46 0 81.5 -13.5t35.5 -47.5q0 -27 -24 -41.5t-61 -16.5v-25h-68v54z" />
    <glyph glyph-name="uni030F" unicode="&#x30f;" horiz-adv-x="0" 
d="M-326 720l1 3h133l79 -132h-105zM-151 720l1 3h133l79 -132h-105z" />
    <glyph glyph-name="uni0311" unicode="&#x311;" horiz-adv-x="0" 
d="M-311 651.5q17 31.5 53 51.5t91 20t91.5 -20t53.5 -51.5t17 -65.5h-90q-2 18 -21 33t-51 15t-50 -15t-21 -33h-90q0 34 17 65.5z" />
    <glyph glyph-name="uni031B" unicode="&#x31b;" horiz-adv-x="0" 
d="M-20 686v-54q0 -105 -50 -157t-161 -68v68q49 7 79 25t43 49h-69v137h158z" />
    <glyph glyph-name="dotbelowcomb" unicode="&#x323;" horiz-adv-x="0" 
d="M-233 -43h135v-130h-135v130z" />
    <glyph glyph-name="uni0326" unicode="&#x326;" horiz-adv-x="0" 
d="M-181 -138h-55v98h138v-86l-63 -104h-72z" />
    <glyph glyph-name="uni0328" unicode="&#x328;" horiz-adv-x="0" 
d="M-83 0zM-229 -161q-31 21 -31 67q0 34 13.5 58t37.5 48h86v-4q-12 -13 -22 -32t-10 -38q0 -22 12 -36.5t36 -14.5h24v-55q-39 -14 -71 -14q-44 0 -75 21z" />
    <glyph glyph-name="uni02BC" unicode="&#x2bc;" horiz-adv-x="280" 
d="M126 559h-55v127h138v-115l-66 -129h-72z" />
    <glyph glyph-name="uni02C9" unicode="&#x2c9;" horiz-adv-x="333" 
d="M14 611zM14 699h305v-88h-305v88z" />
    <glyph glyph-name="acute" unicode="&#xb4;" horiz-adv-x="333" 
d="M154 723h133l1 -3l-108 -129h-105z" />
    <glyph glyph-name="breve" unicode="&#x2d8;" horiz-adv-x="333" 
d="M75 606q-36 20 -53 51.5t-17 65.5h90q3 -18 21 -33t50 -15t51 15t21 33h90q0 -34 -17 -65.5t-53.5 -51.5t-91.5 -20t-91 20z" />
    <glyph glyph-name="caron" unicode="&#x2c7;" horiz-adv-x="333" 
d="M0 723h111l56 -69l55 69h111l-105 -135h-122z" />
    <glyph glyph-name="cedilla" unicode="&#xb8;" horiz-adv-x="333" 
d="M45 -174v49h88q23 0 34 5t11 19q0 12 -9.5 18t-32.5 6h-41l13 88h85l-6 -44q44 -2 71 -19t27 -49q0 -45 -41.5 -63t-94.5 -18q-56 0 -104 8z" />
    <glyph glyph-name="circumflex" unicode="&#x2c6;" horiz-adv-x="333" 
d="M106 723h122l105 -135h-111l-55 69l-56 -69h-111z" />
    <glyph glyph-name="dieresis" unicode="&#xa8;" horiz-adv-x="333" 
d="M2 723h118v-118h-118v118zM212 723h119v-118h-119v118z" />
    <glyph glyph-name="dotaccent" unicode="&#x2d9;" horiz-adv-x="333" 
d="M100 724h135v-130h-135v130z" />
    <glyph glyph-name="grave" unicode="`" horiz-adv-x="333" 
d="M75 720l1 3h133l79 -132h-105z" />
    <glyph glyph-name="hungarumlaut" unicode="&#x2dd;" horiz-adv-x="333" 
d="M86 723h133l1 -3l-108 -129h-105zM261 723h133l1 -3l-108 -129h-105z" />
    <glyph glyph-name="macron" unicode="&#xaf;" horiz-adv-x="333" 
d="M14 699h305v-88h-305v88z" />
    <glyph glyph-name="ogonek" unicode="&#x2db;" horiz-adv-x="333" 
d="M104 -161q-31 21 -31 67q0 34 13.5 58t37.5 48h86v-4q-12 -13 -22 -32t-10 -38q0 -22 12 -36.5t36 -14.5h24v-55q-39 -14 -71 -14q-44 0 -75 21z" />
    <glyph glyph-name="ring" unicode="&#x2da;" horiz-adv-x="333" 
d="M93.5 585q-27.5 29 -27.5 72t27.5 72t73.5 29t73.5 -29t27.5 -72t-27.5 -72t-73.5 -29t-73.5 29zM198.5 625.5q12.5 12.5 12.5 31.5t-12.5 31.5t-31.5 12.5q-20 0 -32 -12.5t-12 -31.5t12 -31.5t32 -12.5q19 0 31.5 12.5z" />
    <glyph glyph-name="tilde" unicode="&#x2dc;" horiz-adv-x="333" 
d="M23.5 688.5q24.5 34.5 73.5 34.5q16 0 30 -4.5t39 -14.5q21 -9 35 -13.5t29 -4.5t23.5 8.5t11.5 28.5h70q0 -53 -24.5 -87.5t-74.5 -34.5q-16 0 -29.5 4.5t-38.5 14.5q-21 9 -35 13.5t-29 4.5q-30 0 -35 -37h-70q0 53 24.5 87.5z" />
    <glyph glyph-name="acute.loclPLK" horiz-adv-x="333" 
d="M119 722h124l-48 -131h-105z" />
    <glyph glyph-name=".ttfautohint" horiz-adv-x="333" 
d="M0 0z" />
    </font>
</defs>
</svg>
