<?xml version="1.0" encoding="UTF-8"?>
<svg width="23px" height="23px" viewBox="0 0 23 23" version="1.1" xmlns="http://www.w3.org/2000/svg" xmlns:xlink="http://www.w3.org/1999/xlink">
    <!-- Generator: Sketch 49.3 (51167) - http://www.bohemiancoding.com/sketch -->
    <title>ic_zoom_out_24px</title>
    <desc>Created with Sketch.</desc>
    <defs></defs>
    <g id="Symbols" stroke="none" stroke-width="1" fill="none" fill-rule="evenodd">
        <g id="Header" transform="translate(-1247.000000, -38.000000)" fill="#666666">
            <g id="Group-6">
                <g id="ic_zoom_out_24px" transform="translate(1244.000000, 35.000000)">
                    <g id="Group">
                        <path d="M19.375,17.5 L18.3875,17.5 L18.0375,17.1625 C19.2625,15.7375 20,13.8875 20,11.875 C20,7.3875 16.3625,3.75 11.875,3.75 C7.3875,3.75 3.75,7.3875 3.75,11.875 C3.75,16.3625 7.3875,20 11.875,20 C13.8875,20 15.7375,19.2625 17.1625,18.0375 L17.5,18.3875 L17.5,19.375 L23.75,25.6125 L25.6125,23.75 L19.375,17.5 L19.375,17.5 Z M11.875,18.5 C8.20916667,18.5 5.25,15.5408333 5.25,11.875 C5.25,8.20916667 8.20916667,5.25 11.875,5.25 C15.5408333,5.25 18.5,8.20916667 18.5,11.875 C18.5,15.5408333 15.5408333,18.5 11.875,18.5 L11.875,18.5 Z" id="Shape"></path>
                    </g>
                </g>
            </g>
        </g>
    </g>
</svg>