<?xml version="1.0" standalone="no"?>
<!DOCTYPE svg PUBLIC "-//W3C//DTD SVG 20010904//EN"
 "http://www.w3.org/TR/2001/REC-SVG-20010904/DTD/svg10.dtd">
<svg version="1.0" xmlns="http://www.w3.org/2000/svg"
 width="700.000000pt" height="700.000000pt" viewBox="0 0 700.000000 700.000000"
 preserveAspectRatio="xMidYMid meet">
<metadata>
Created by potrace 1.11, written by Peter Selinger 2001-2013
</metadata>
<g transform="translate(0.000000,700.000000) scale(0.100000,-0.100000)"
fill="#000000" stroke="none">
<path d="M751 5913 c-5 -21 -15 -58 -21 -83 -7 -25 -14 -53 -16 -64 -2 -10
-13 -59 -25 -108 -12 -51 -18 -93 -13 -97 5 -5 98 -30 206 -56 108 -26 210
-56 227 -66 37 -22 69 -83 65 -124 -2 -17 -20 -98 -39 -180 -20 -83 -38 -157
-40 -165 -2 -8 -26 -107 -54 -220 -115 -472 -153 -626 -157 -650 -6 -31 -32
-68 -68 -94 -38 -29 -81 -25 -300 28 -103 25 -193 46 -200 46 -9 0 -40 -105
-36 -122 0 -2 -6 -25 -14 -53 -8 -27 -17 -63 -20 -80 -3 -16 -15 -66 -26 -109
-12 -43 -17 -82 -13 -86 6 -6 267 -72 338 -86 6 -1 75 -18 155 -37 168 -41
460 -112 675 -164 83 -20 155 -39 162 -42 7 -4 -270 -6 -615 -6 l-627 0 -3
-193 -2 -192 210 0 c235 0 252 -4 289 -63 21 -34 21 -42 21 -649 l0 -615 -23
-34 c-39 -58 -59 -62 -285 -63 -142 -1 -205 -4 -210 -13 -4 -6 -7 -91 -6 -190
l1 -178 844 0 844 0 0 190 0 190 -88 2 c-101 3 -132 14 -164 62 -22 32 -23 44
-23 191 l0 158 212 123 c117 68 217 125 223 126 11 3 309 -389 339 -445 25
-48 18 -123 -15 -158 -39 -42 -59 -48 -174 -54 l-110 -5 0 -190 0 -190 877 0
878 0 0 191 0 192 -122 4 c-176 5 -201 20 -328 187 -76 101 -242 318 -253 331
-6 9 -66 88 -132 175 -66 88 -130 171 -142 185 -13 14 -23 28 -23 31 0 3 -11
19 -25 35 -14 16 -39 48 -55 71 l-30 42 62 37 c225 132 452 242 609 295 84 28
107 31 221 33 l128 1 1 55 c0 30 0 103 -1 163 -1 59 3 107 7 108 38 5 620 3
615 -2 -4 -4 -34 -21 -67 -39 -297 -161 -431 -414 -371 -699 74 -351 374 -550
931 -616 100 -12 114 -13 275 -20 337 -14 411 -20 520 -42 202 -40 303 -118
280 -216 -26 -115 -139 -193 -335 -231 -80 -15 -386 -16 -445 -2 -25 6 -46 11
-105 22 -51 9 -202 62 -257 90 -105 53 -194 118 -280 205 -48 49 -88 93 -88
98 0 32 -27 36 -226 35 -109 -1 -201 -2 -204 -3 -4 -1 -5 -675 -1 -703 1 -5
86 -8 190 -8 l188 0 17 43 c49 130 149 137 406 27 151 -64 213 -84 340 -109
221 -45 502 -45 751 -1 331 59 597 211 723 414 72 114 97 202 100 346 5 228
-111 410 -344 537 -77 42 -207 89 -300 108 -8 2 -35 8 -60 13 -111 26 -260 38
-575 47 -200 6 -375 15 -395 20 -8 3 -35 7 -60 10 -132 17 -231 69 -269 142
-16 32 -16 112 1 153 55 130 197 190 453 192 122 1 200 -3 271 -16 30 -5 86
-15 124 -21 261 -43 526 -196 656 -378 21 -29 43 -56 49 -62 10 -8 274 -12
400 -6 20 1 20 9 23 546 l2 545 -97 1 c-54 1 -104 1 -111 0 -24 -4 -116 31
-154 58 -21 14 -115 127 -210 252 -95 125 -243 318 -328 430 -85 112 -192 253
-238 313 l-83 109 108 64 c163 96 494 256 618 298 105 36 115 38 252 39 l143
1 0 211 0 210 -915 0 c-633 0 -915 -3 -916 -10 -4 -45 -3 -389 1 -399 3 -8 36
-12 101 -13 106 -1 143 -15 173 -64 9 -16 16 -30 16 -33 0 -5 -63 -42 -190
-114 -19 -11 -165 -96 -325 -188 -159 -92 -293 -169 -296 -171 -10 -6 -3 460
8 487 13 30 67 78 91 80 9 1 58 3 107 3 l90 2 2 194 c0 107 -1 202 -3 211 -4
14 -99 15 -929 15 l-925 0 0 -208 c0 -159 3 -208 13 -209 6 -1 111 -2 232 -2
202 -2 223 -4 255 -22 19 -12 43 -36 54 -55 19 -33 20 -54 20 -694 1 -684 0
-703 -41 -748 -33 -37 -63 -41 -293 -44 -124 -1 -228 -2 -232 -3 -5 -1 -8 -83
-8 -183 l0 -183 -267 2 c-148 1 -273 2 -279 2 -8 1 -5 26 8 79 10 42 27 111
37 153 l18 76 -176 43 c-245 60 -268 67 -296 98 -46 49 -45 88 2 282 24 96 45
184 47 195 9 43 87 363 101 415 15 57 42 170 49 205 10 49 58 232 67 256 14
35 63 70 108 76 23 3 104 -12 226 -42 241 -59 225 -56 231 -42 8 21 94 381 91
383 -2 2 -219 55 -282 69 -11 3 -47 11 -80 20 -33 8 -145 35 -250 60 -104 25
-201 48 -215 52 -14 3 -32 7 -40 9 -8 2 -125 30 -260 63 -135 33 -285 69 -335
81 -49 12 -180 44 -290 71 -110 27 -205 49 -212 49 -7 0 -17 -17 -22 -37z
m4247 -1768 c101 -134 187 -257 192 -274 13 -47 5 -105 -18 -139 -37 -51 -83
-66 -207 -67 l-110 -1 -3 -157 c-2 -137 -5 -156 -20 -161 -9 -3 -48 -12 -87
-21 -38 -8 -80 -17 -92 -21 l-23 -6 -2 183 -3 182 -101 2 c-87 2 -106 5 -133
24 -57 41 -64 68 -65 253 0 92 2 169 4 171 5 4 298 173 390 225 25 14 54 31
65 38 11 8 22 14 25 14 3 -1 87 -111 188 -245z m1300 -905 l52 0 -15 -37 c-8
-21 -27 -49 -42 -62 -38 -33 -86 -26 -267 40 l-149 54 64 5 c35 3 118 4 184 3
66 -1 144 -2 173 -3z m-4155 -81 c24 -6 37 -16 38 -27 0 -9 1 -62 2 -117 l2
-100 85 -1 c98 -1 141 -18 165 -64 l15 -29 -92 -54 c-104 -61 -496 -286 -614
-353 l-40 -24 1 208 c1 214 4 241 35 272 34 34 64 43 152 43 l88 1 0 142 0
142 63 -14 c34 -8 79 -19 100 -25z"/>
</g>
</svg>
